<svg width="50.000000" height="46.000000" viewBox="0 0 50 46" fill="none" xmlns="http://www.w3.org/2000/svg" xmlns:xlink="http://www.w3.org/1999/xlink">
	<desc>
			Created with Pixso.
	</desc>
	<defs/>
	<path id="Vector" d="M13.4506 9.83893C12.0608 11.5377 11.1851 14.0123 11.1851 16.0223C11.1851 16.715 11.2891 17.3524 11.5119 17.884C11.7318 17.7637 11.9516 17.6536 12.1615 17.5333C13.5106 16.7118 14.8696 15.8903 16.2087 15.0486C16.6984 14.7481 17.208 14.678 17.7377 14.8182C18.3872 14.9785 18.9169 15.3392 19.0468 16.0405C19.0779 16.2145 19.0947 16.3854 19.0947 16.5519C19.0947 17.1332 18.89 17.6593 18.3772 18.0643C17.3579 18.8658 16.2787 19.6172 15.3193 20.4788C14.8996 20.8596 14.6798 21.4707 14.39 21.9816C14.3795 21.9956 14.3751 22.0169 14.3751 22.0403C14.3751 22.0842 14.3904 22.1359 14.4099 22.162C15.3193 23.2139 15.3993 24.6166 15.9589 25.8188C16.0488 26.0092 16.1687 26.1895 16.2887 26.3699C16.4586 26.6103 16.6484 26.6404 16.9082 26.4399C17.6577 25.8689 18.0874 25.0875 18.3872 24.2258C18.8869 22.8132 19.0868 21.3405 19.0968 19.8477C19.0968 19.4369 19.1367 19.0562 19.5664 18.8859C19.9762 18.7255 20.2859 18.9259 20.5957 19.2064C21.4452 19.9779 22.3046 20.7493 23.184 21.4907C25.3025 23.2941 28.4404 23.2039 30.4091 21.2302C32.0679 19.5671 33.6968 17.864 35.2558 16.1006C35.8354 15.4494 36.1951 14.5778 36.5849 13.7863C36.8147 13.3254 36.8846 12.7944 37.0645 12.3135C37.1694 12.018 37.2469 11.7425 37.2469 11.4645C37.2469 11.1865 37.1694 10.9059 36.9646 10.6003C36.8058 10.3632 36.7353 10.0787 36.7353 9.7865C36.7353 9.17719 37.0417 8.53412 37.4942 8.21588C38.2337 7.69495 39.4329 7.83521 40.0525 8.52649C41.2717 9.89905 42.4908 11.2716 43.7 12.6542C43.8699 12.8445 43.9798 13.105 44.0498 13.3555C44.4395 14.8182 44.8092 16.291 45.159 17.7637C45.203 17.951 45.2258 18.1535 45.2258 18.3544C45.2258 18.5189 45.2105 18.6824 45.179 18.8358C44.8492 20.5891 44.4995 22.3323 44.1297 24.0756C44.0698 24.3761 43.9199 24.6767 43.74 24.9171C41.5015 27.8626 39.253 30.8082 36.9946 33.7437C36.6284 34.2169 36.4344 34.71 36.4344 35.288C36.4344 35.4198 36.4445 35.556 36.4649 35.6973C36.9246 38.8031 37.3343 41.9089 37.7541 45.0147C37.7621 45.0714 37.7661 45.1265 37.7661 45.1797C37.7661 45.5875 37.5345 45.8867 37.1545 45.9665C36.7348 46.0466 36.375 45.7861 36.305 45.2752C36.0352 43.4318 35.7854 41.5783 35.5256 39.7248C35.3457 38.4525 35.1958 37.1801 35.0059 35.9077C34.971 35.6857 34.9538 35.4691 34.9538 35.2575C34.9538 34.38 35.2498 33.5885 35.8054 32.862C37.874 30.1669 39.9326 27.4518 42.0211 24.7668C42.4908 24.1657 42.7806 23.5345 42.9105 22.7932C43.1504 21.4807 43.4402 20.1783 43.68 18.8658C43.7088 18.7117 43.7238 18.5506 43.7238 18.3893C43.7238 18.215 43.7064 18.0404 43.67 17.874C43.3802 16.6116 43.0504 15.3492 42.7207 14.0969C42.6507 13.8464 42.5508 13.5759 42.3809 13.3856C41.2817 12.1132 40.1524 10.8608 39.0332 9.59845C38.9932 9.5484 38.9432 9.46826 38.8933 9.45819C38.8653 9.45325 38.8348 9.4472 38.8032 9.44092C38.6429 9.40912 38.452 9.37122 38.3936 9.43817C38.326 9.51959 38.2766 9.68365 38.2766 9.81531C38.2766 9.87811 38.2879 9.93359 38.3137 9.96918C39.0532 11.0211 39.8226 12.043 40.5921 13.075C40.6621 13.1652 40.802 13.2353 40.9119 13.2553C41.9694 13.4105 42.6126 14.1069 42.6126 15.0768C42.6126 15.2343 42.5957 15.3989 42.5608 15.5696C42.261 17.0424 41.8413 18.4951 41.6414 19.9779C41.3516 22.0919 40.2823 23.8552 39.363 25.6986C39.1431 26.1294 38.7334 26.2496 38.3536 26.0593C38.1012 25.9293 37.9559 25.6966 37.9559 25.4249C37.9559 25.2986 37.9873 25.164 38.0538 25.0273C38.3536 24.3962 38.6634 23.765 39.0032 23.1538C39.5128 22.2221 39.8826 21.2603 40.0725 20.2183C40.3723 18.5652 40.762 16.9222 41.1018 15.2791C41.1056 15.2599 41.1073 15.24 41.1073 15.2196C41.1073 15.1348 41.0778 15.0413 41.0489 14.9495C41.0303 14.8907 41.012 14.8327 41.0018 14.7781C40.8819 14.9084 40.712 15.0186 40.6621 15.1789C40.0325 17.0023 39.4329 18.8458 38.7934 20.6692C38.6734 20.9998 38.4636 21.3304 38.2038 21.5609C36.0052 23.5546 33.8067 25.5483 31.5783 27.512C30.3696 28.5748 29.7993 29.8936 29.7993 31.4879C29.7993 31.5017 29.7994 31.5156 29.7995 31.5295C29.8095 35.8876 29.8095 40.2458 29.8095 44.6039C29.8095 44.6613 29.8101 44.7192 29.8107 44.7774C29.8113 44.8362 29.812 44.8954 29.812 44.9547C29.812 45.0723 29.8095 45.1901 29.7995 45.3052C29.7695 45.716 29.5097 45.9465 29.1199 45.9765C28.7202 46.0066 28.4604 45.7761 28.3505 45.3954C28.3238 45.2886 28.3194 45.1772 28.3194 45.0644C28.3194 45.0363 28.3196 45.008 28.3199 44.9797C28.3202 44.9514 28.3205 44.9229 28.3205 44.8945C28.3205 43.3987 28.3194 41.9019 28.3183 40.4046C28.3171 38.9066 28.316 37.4083 28.316 35.9103C28.316 34.4127 28.3171 32.9154 28.3205 31.4193C28.3205 29.4255 29.08 27.7524 30.559 26.4199C30.9987 26.0192 31.6482 25.6886 31.8381 25.1976C31.8773 25.0993 31.8933 24.9919 31.8933 24.8782C31.8933 24.6331 31.8192 24.3589 31.7448 24.0839C31.6956 23.9018 31.6462 23.7193 31.6182 23.5446C31.5683 23.1739 31.5283 22.7932 31.4883 22.3824C27.481 25.4481 23.9035 24.6166 20.6357 21.2302C20.3259 22.4725 20.1061 23.6448 19.7463 24.7769C19.3866 25.919 18.767 26.9309 17.6977 27.7324C18.3872 28.3335 18.9868 28.9647 19.6964 29.4356C21.9948 30.9785 23.6137 33.0924 24.7629 35.567C25.0427 36.1682 25.0927 36.8895 25.1426 37.5608C25.3525 40.0554 25.5324 42.5501 25.7122 45.0548C25.715 45.092 25.7163 45.1284 25.7163 45.1637C25.7163 45.6518 25.4627 45.9592 25.0527 45.9965C24.623 46.0366 24.2932 45.7261 24.2433 45.165C24.1233 43.7724 24.0234 42.3698 23.9135 40.9672C23.8036 39.5845 23.7136 38.202 23.5937 36.8194C23.5737 36.5389 23.4838 36.2583 23.3639 36.0079C22.2346 33.7837 20.7856 31.8701 18.6371 30.5076C17.8376 29.9966 17.228 29.1851 16.4686 28.584C15.2594 27.6322 14.4199 26.48 14.0902 24.9572C13.9902 24.4863 13.7704 24.0455 13.6205 23.5847C13.5305 23.2941 13.3806 23.1538 13.0009 23.3041C13.0709 23.6848 13.1308 24.0856 13.2108 24.4863C13.4106 25.5383 13.6005 26.5803 13.8303 27.6222C13.9203 28.0229 14.0702 28.4137 14.26 28.7844C14.7897 29.8063 15.3593 30.8082 15.8989 31.82C16.0096 32.03 16.064 32.2196 16.064 32.3864C16.064 32.6413 15.9368 32.8429 15.6891 32.9822C15.2794 33.2126 14.8996 33.0524 14.5998 32.5214C13.9503 31.3391 13.2707 30.1669 12.6711 28.9547C12.4513 28.5038 12.3913 27.9628 12.2914 27.4619C12.0615 26.3198 11.8517 25.1676 11.6118 24.0255C11.5783 23.868 11.5622 23.7189 11.5622 23.5774C11.5622 22.9175 11.9117 22.4206 12.4713 21.9916C12.6811 21.8314 12.921 21.621 13.0109 21.3805C13.4706 20.1682 14.2601 19.2565 15.3393 18.5352C16.0888 18.0443 16.7583 17.4331 17.4779 16.8821C17.6162 16.7764 17.7155 16.6707 17.7155 16.5363C17.7155 16.4669 17.689 16.3897 17.6277 16.301C17.4479 16.0405 17.268 16.1407 17.0781 16.2609C15.4392 17.2528 13.8004 18.2446 12.1715 19.2565C12.0016 19.3568 11.8817 19.5771 11.7917 19.7675C11.1921 21.12 10.5826 22.4725 10.0429 23.8552C9.95929 24.062 9.9192 24.3093 9.9192 24.5538C9.9192 24.7474 9.94437 24.9392 9.99295 25.1075Q10.8773 28.1281 11.8817 31.1187C12.0316 31.5696 12.3513 32.0104 12.6911 32.341C14.5299 34.0843 16.4086 35.7875 18.2873 37.4907C18.5806 37.7579 18.7237 38.0331 18.7237 38.4008C18.7237 38.4465 18.7214 38.4938 18.717 38.5426C18.5271 40.7568 18.3672 42.9709 18.1874 45.185C18.1474 45.686 17.8076 46.0066 17.3979 45.9865C16.9861 45.9584 16.7146 45.649 16.7146 45.1573C16.7146 45.124 16.7158 45.0898 16.7184 45.0548C16.8683 43.041 17.0182 41.0272 17.198 39.0135C17.2017 38.9717 17.2036 38.9318 17.2036 38.8935C17.2036 38.6188 17.1075 38.4254 16.8883 38.2321C15.1494 36.649 13.4206 35.0461 11.6918 33.4631C11.0722 32.902 10.6425 32.2308 10.3927 31.4193C9.80309 29.5057 9.20349 27.6022 8.5939 25.6986C8.46822 25.3076 8.40456 24.924 8.40456 24.5447C8.40456 24.0496 8.51311 23.5616 8.73381 23.0737C9.25345 21.9215 9.73312 20.7493 10.2428 19.5872C10.3077 19.4419 10.3402 19.3116 10.3402 19.1789C10.3402 19.0461 10.3077 18.9109 10.2428 18.7556C9.88173 17.8733 9.73088 16.9719 9.73088 16.0602C9.73088 15.357 9.82065 14.6478 9.97296 13.9366C10.3127 12.3336 10.9623 10.8608 11.8517 9.49829C13.7604 6.58282 15.6191 3.63733 17.1481 0.491455C17.3679 0.0405884 17.7876 -0.10968 18.1874 0.0806885C18.4393 0.20697 18.5901 0.443481 18.5901 0.717102C18.5901 0.855957 18.5513 1.00433 18.4672 1.15271C17.308 3.25659 16.1388 5.35052 14.9296 7.42444C14.7578 7.71588 14.669 7.97229 14.669 8.25452C14.669 8.39911 14.6923 8.55048 14.7397 8.71686C15.1694 10.2397 15.5492 11.7725 15.9389 13.3154C15.9715 13.4514 15.9981 13.6109 15.9981 13.7589C15.9981 13.8835 15.9792 13.9998 15.9289 14.0869C15.809 14.2872 15.4992 14.4676 15.2594 14.4876C14.8696 14.5177 14.6398 14.2171 14.5499 13.8364C14.2501 12.6542 13.9403 11.482 13.6405 10.2998C13.5505 10.1696 13.5006 10.0193 13.4506 9.83893ZM39.233 4.72937C39.4329 3.91785 39.5928 3.17645 39.8226 2.44507C39.9026 2.19464 40.0825 1.90405 40.2923 1.80389C40.4822 1.71368 40.8619 1.75378 41.0218 1.89404C41.1707 2.02576 41.2889 2.31915 41.2889 2.53802C41.2889 2.56885 41.2866 2.59821 41.2817 2.62543C41.0818 3.60724 40.822 4.56903 40.5621 5.53082C40.5352 5.62811 40.5213 5.71375 40.5213 5.79144C40.5213 6.00177 40.623 6.15405 40.8419 6.32233C41.0718 6.50269 41.3016 6.85333 41.3016 7.12384C41.2916 7.73499 40.6221 7.94537 40.0525 7.55463C38.5635 6.54272 37.4942 5.17017 36.8047 3.51709C36.4749 2.72559 36.2751 1.87402 36.0652 1.03241C36.0381 0.927734 36.0253 0.828613 36.0253 0.736389C36.0253 0.352173 36.2483 0.0870972 36.5948 0.0305786C37.0845 -0.0596313 37.4043 0.190857 37.5042 0.781982C37.7241 2.08441 38.2038 3.28668 38.9433 4.36865C39.0032 4.47888 39.0931 4.56903 39.233 4.72937ZM28.2205 2.60547C28.2025 2.73773 28.1939 2.8717 28.1939 3.00684C28.1939 3.6189 28.3701 4.25604 28.6403 4.8797C28.95 5.61108 29.2299 6.36249 29.4897 7.1239C29.5691 7.36078 29.607 7.59766 29.607 7.82758C29.607 8.69684 29.0656 9.46783 28.1806 9.76886C27.6909 9.93921 27.2012 10.0995 26.7116 10.2498C26.2819 10.38 25.9021 10.1996 25.7722 9.82898C25.74 9.7345 25.7242 9.6405 25.7242 9.54987C25.7242 9.24652 25.901 8.98059 26.2319 8.85718C26.7316 8.66681 27.2312 8.50653 27.7409 8.34619C28.0146 8.25952 28.1533 8.13129 28.1533 7.92004C28.1533 7.83826 28.1325 7.74396 28.0906 7.63489C27.7409 6.75323 27.4411 5.85156 27.0813 4.96991C26.7856 4.2608 26.7119 3.53485 26.7119 2.80371C26.7119 2.44031 26.7302 2.07556 26.7484 1.711C26.7567 1.54486 26.765 1.37878 26.7715 1.21289C26.7915 0.812134 27.1113 0.611755 27.511 0.621765C27.9507 0.641785 28.1706 0.922302 28.2105 1.33307C28.2265 1.48938 28.2313 1.64569 28.2313 1.80835C28.2313 1.92468 28.2289 2.04425 28.2263 2.16943C28.2235 2.30695 28.2205 2.45129 28.2205 2.60547ZM29.7195 14.167C29.1299 13.8865 28.6702 13.616 28.1806 13.4557C28.0007 13.3956 27.7009 13.5558 27.511 13.6961C27.0014 14.0568 26.5217 14.147 26.032 13.7061C25.8122 13.5158 25.6023 13.5358 25.3525 13.6861C25.0927 13.8464 24.8129 13.9766 24.573 14.2271C24.7929 14.2371 25.0227 14.2471 25.2426 14.2672C25.5428 14.3048 25.755 14.4308 25.755 14.7445C25.755 14.765 25.7541 14.7862 25.7522 14.8082C25.7222 15.1489 25.4924 15.259 25.1926 15.229C24.2433 15.1589 23.3039 15.0988 22.3545 14.9985C22.1846 14.9785 21.9248 14.7681 21.9148 14.6279C21.9136 14.6169 21.913 14.6057 21.913 14.594C21.913 14.4131 22.0544 14.1522 22.2046 14.0768C23.2839 13.5258 24.3732 12.9948 25.4824 12.5039C25.6623 12.4238 25.9821 12.5139 26.1619 12.6442C26.5617 12.9247 26.9114 13.0048 27.3212 12.6642C27.8008 12.2534 28.2505 12.3035 28.8201 12.6041C29.7395 13.095 30.7388 13.4457 31.7082 13.8364C31.7295 13.8451 31.7509 13.8536 31.7723 13.8621C32.0158 13.9592 32.248 14.0518 32.2481 14.3688C32.2481 14.3749 32.248 14.3812 32.2478 14.3875C32.2378 14.7881 31.908 14.8483 31.6182 14.8984C30.9487 15.0086 30.2691 15.1088 29.5996 15.1989C29.5712 15.2023 29.5422 15.2061 29.513 15.2099C29.1936 15.2516 28.8434 15.2972 28.7702 14.8383C28.7642 14.7966 28.7614 14.7579 28.7614 14.722C28.7614 14.3341 29.0922 14.2646 29.4397 14.2371C29.4604 14.251 29.4905 14.241 29.5728 14.2137C29.6098 14.2015 29.6574 14.1857 29.7195 14.167ZM33.1972 23.9553C33.2971 23.8952 33.377 23.8552 33.427 23.8051C34.6462 22.713 35.8653 21.631 37.0645 20.5289C37.2344 20.3686 37.3643 20.1282 37.4343 19.8978C38.0638 18.0543 38.6734 16.2108 39.283 14.3574C39.3049 14.2859 39.3209 14.1994 39.3209 14.1193C39.3209 14.0534 39.3101 13.9918 39.283 13.9466C39.0432 13.5759 38.7634 13.2253 38.5035 12.8746C38.4336 12.9247 38.3936 12.9448 38.3836 12.9648C38.3137 13.1552 38.2537 13.3455 38.2038 13.5358C37.764 15.1889 36.9346 16.6016 35.7254 17.8038C34.926 18.6053 34.1565 19.4369 33.387 20.2684C33.2671 20.3987 33.1072 20.549 33.0772 20.7092C32.9976 21.184 32.9512 21.6588 32.9512 22.1362C32.9512 22.7367 33.0246 23.3414 33.1972 23.9553ZM26.8715 17.7336C25.8322 17.6735 24.8428 17.5233 23.9335 17.0123C23.7436 16.9021 23.5138 16.7919 23.4338 16.6216C23.3839 16.5159 23.3555 16.3764 23.3555 16.2457C23.3555 16.1409 23.3738 16.0417 23.4138 15.9703C23.4738 15.8602 23.8835 15.8101 24.0034 15.9002C25.2126 16.862 26.6216 16.7919 28.0107 16.6116C28.6003 16.5314 29.1499 16.1307 29.7295 15.9203C29.9194 15.8502 30.2692 15.8602 30.3691 15.9803C30.4181 16.034 30.4413 16.1494 30.4413 16.2679C30.4413 16.4152 30.4055 16.5671 30.3391 16.6116C29.8694 16.9321 29.3598 17.2628 28.8201 17.4231C28.2006 17.6134 27.531 17.6335 26.8715 17.7336ZM42.291 29.3855C42.4009 29.4155 42.5808 29.4556 42.7507 29.5258C44.9392 30.3974 47.1377 31.269 49.3262 32.1306C49.6659 32.2709 49.9557 32.4412 49.9957 32.852C49.9986 32.8803 50 32.9081 50 32.9354C50 33.4763 49.4459 33.7917 48.8465 33.5533C47.3775 32.9722 45.9185 32.3911 44.4495 31.8C43.6201 31.4694 42.7806 31.1388 41.9512 30.7982C41.6468 30.6744 41.4778 30.442 41.4778 30.1513C41.4778 30.0889 41.4856 30.0238 41.5015 29.9565C41.5815 29.6059 41.8313 29.3955 42.291 29.3855ZM0.809204 33.4531C0.349518 33.423 0.0597229 33.2126 0.00975037 32.8019C0.00320435 32.756 0 32.7118 0 32.6693C0 32.3218 0.214325 32.0875 0.579361 31.9803C1.54871 31.6998 2.52803 31.4293 3.49738 31.1588C4.80649 30.7982 6.1156 30.4174 7.43469 30.0868C7.66454 30.0267 8.0143 30.1269 8.18419 30.2872C8.29025 30.3935 8.3663 30.6202 8.3663 30.8041C8.3663 30.8801 8.35332 30.9487 8.3241 30.9985C8.19418 31.239 7.89438 31.4594 7.62457 31.5396C5.66589 32.1106 3.69724 32.6416 1.72858 33.1926C1.41879 33.2828 1.09901 33.3729 0.809204 33.4531Z" fill="#E96E8B" fill-opacity="1.000000" fill-rule="evenodd"/>
</svg>
