<svg width="49.000000" height="49.000000" viewBox="0 0 49 49" fill="none" xmlns="http://www.w3.org/2000/svg" xmlns:xlink="http://www.w3.org/1999/xlink">
	<desc>
			Created with Pixso.
	</desc>
	<defs>
		<clipPath id="clip53_351">
			<rect id="Frame" width="49.000000" height="49.000000" fill="white" fill-opacity="0"/>
		</clipPath>
	</defs>
	<rect id="Frame" width="49.000000" height="49.000000" fill="#FFFFFF" fill-opacity="0"/>
	<g clip-path="url(#clip53_351)">
		<path id="Vector" d="M49.0002 25.175C48.9182 25.6091 48.8555 26.0432 48.7542 26.4675C47.4662 32.0717 44.1475 35.9589 38.8365 38.1292C36.9793 38.8864 35.0257 39.1854 33.019 39.195C32.8936 39.195 32.744 39.2722 32.6427 39.3589C31.186 40.6129 29.5507 41.5437 27.6791 42.0212C26.396 42.3443 25.0984 42.4311 23.7815 42.2623C23.6898 42.2527 23.5644 42.2816 23.5065 42.3395C22.5514 43.2848 21.6059 44.2349 20.6605 45.1849C20.6412 45.209 20.6267 45.238 20.5881 45.2959C20.9306 45.619 21.2731 45.9421 21.5963 46.2508C20.6556 47.1913 19.744 48.1028 18.8371 49.0046C18.3933 48.5561 17.9254 48.0835 17.4382 47.5916C17.8578 47.1768 18.292 46.7476 18.6972 46.3424C14.3751 42.0212 10.0674 37.7095 5.75015 33.3979C4.31749 34.8303 2.85588 36.2916 1.39909 37.7482C0.89743 37.2466 0.434341 36.7836 -0.00462341 36.3447C1.92006 34.4204 3.85922 32.4816 5.80321 30.538C6.26147 31.001 6.76315 31.5074 7.26482 32.0186C7.35165 31.9559 7.39989 31.927 7.43848 31.8932C8.23441 31.1071 9.0255 30.321 9.82625 29.5397C10.0047 29.3661 10.1012 29.1732 10.1205 28.932C10.1977 27.9385 10.2893 26.9498 10.3569 25.9563C10.4775 24.1863 10.5546 22.4067 11.0901 20.6994C11.394 19.7204 11.8281 18.7847 12.1368 17.8057C12.8508 15.5438 13.5309 13.2675 14.2111 10.9958C14.5439 9.88177 15.2964 9.22589 16.4204 9.03778C17.5877 8.84491 18.538 9.24518 19.223 10.2291C19.9176 11.2274 20.4772 12.2932 20.6267 13.5182C20.6942 14.0873 20.6894 14.6709 20.6508 15.2448C20.5495 16.7833 20.3614 18.3121 19.9851 19.812C19.8067 20.5258 19.5896 21.2347 19.4063 21.9485C19.3773 22.0594 19.3966 22.2234 19.4594 22.3199C20.7569 24.3455 21.5673 26.5543 21.9098 28.9272C22.0352 29.7905 22.0497 30.6682 22.1269 31.5411C22.1366 31.6617 22.1751 31.8016 22.2475 31.8932C24.4713 34.5795 27.269 36.3302 30.7132 36.9476C37.0565 38.0809 43.2454 34.758 45.8696 28.8597C46.815 26.7328 47.1913 24.4998 47.008 22.1897C46.5352 16.1081 42.2131 11.0152 36.2751 9.71783C31.1136 8.58929 26.6371 9.97827 22.9373 13.7883C22.9035 13.8221 22.8698 13.8607 22.836 13.8896C22.8264 13.8992 22.8071 13.9041 22.7781 13.9185C22.2957 13.4844 21.8037 13.0456 21.2924 12.5826C22.2282 11.5312 23.2846 10.6438 24.4182 9.8866C24.0226 9.48633 23.6319 9.09088 23.2316 8.69055C22.8312 9.0957 22.4067 9.5249 21.9822 9.95416C21.495 9.45258 21.0415 8.98474 20.6122 8.5459C21.9291 7.22925 23.2846 5.87402 24.6208 4.53809C25.0356 4.9577 25.5035 5.42548 25.9859 5.9126C25.5856 6.30811 25.1466 6.74213 24.6883 7.1955C25.2238 7.73083 25.7351 8.24207 26.2512 8.74359C26.2898 8.78223 26.4056 8.79187 26.4587 8.76288C27.6935 8.20343 28.9718 7.79834 30.308 7.56683C30.3707 7.55719 30.472 7.4704 30.472 7.41736C30.4865 7.01221 30.4817 6.60229 30.4817 6.16821C29.7967 6.16821 29.131 6.16821 28.4557 6.16821C28.4461 6.07178 28.4316 6.00427 28.4316 5.93671C28.4316 4.00757 28.4316 2.07843 28.4316 0.149353C28.4316 0.101074 28.4412 0.0528564 28.4461 0.00463867C31.8565 0.00463867 35.2621 0.00463867 38.6725 0.00463867C38.6773 0.0528564 38.687 0.101074 38.687 0.149353C38.687 2.07843 38.687 4.00757 38.687 5.93671C38.687 6.00427 38.6725 6.0766 38.6628 6.17303C37.9827 6.17303 37.3218 6.17303 36.6513 6.17303C36.6513 6.70355 36.6513 7.20514 36.6513 7.71155C37.9586 8.01538 39.2031 8.45905 40.3897 9.05713C40.4476 9.08606 40.573 9.03778 40.6309 8.98474C40.8962 8.73877 41.1471 8.47833 41.4027 8.22278C41.7356 7.88995 42.0732 7.55719 42.4302 7.1955C41.9719 6.74695 41.533 6.31293 41.123 5.9126C41.615 5.42548 42.0829 4.9577 42.5074 4.53809C43.8436 5.87402 45.1991 7.22925 46.5208 8.5459C46.0866 8.98956 45.6332 9.46222 45.146 9.95898C44.7215 9.52972 44.297 9.10052 43.887 8.68573C43.3612 9.2066 42.8499 9.71301 42.3289 10.2291C42.3916 10.2773 42.4688 10.3351 42.5412 10.393C45.8165 12.843 47.9052 16.0502 48.759 20.058C48.8507 20.4776 48.923 20.9068 49.0002 21.3264C49.0002 22.6044 49.0002 23.8873 49.0002 25.175ZM19.2423 36.6871C19.2712 36.5906 19.2905 36.5135 19.3195 36.4363C20.0913 34.1359 20.318 31.7775 19.9562 29.3806C19.5896 26.9402 18.7647 24.6735 17.2356 22.7009C17.1391 22.5755 17.115 22.4646 17.168 22.3054C17.3851 21.6158 17.5974 20.9261 17.8 20.2365C18.2389 18.7028 18.4898 17.1354 18.6104 15.5486C18.6538 14.9651 18.6924 14.3719 18.6345 13.798C18.5428 12.9153 18.0942 12.163 17.6118 11.4348C17.3996 11.1165 17.1391 10.9717 16.758 11.0345C16.4011 11.0923 16.2419 11.319 16.1406 11.6518C15.3881 14.1163 14.6404 16.5904 13.8686 19.05C13.6226 19.8313 13.2511 20.5692 13.0196 21.3505C12.5372 22.9613 12.489 24.6396 12.378 26.3036C12.3105 27.2874 12.2285 28.2713 12.132 29.2551C12.0645 29.8917 11.8185 30.456 11.3313 30.9094C10.7958 31.4109 10.2893 31.9366 9.77319 32.4575C9.44518 32.7903 9.13162 33.1327 8.84702 33.4365C12.2767 36.8704 15.7306 40.3187 19.2133 43.8056C19.2567 43.7526 19.305 43.6706 19.3725 43.6031C20.453 42.5324 21.5384 41.4762 22.6045 40.3911C22.8698 40.121 23.1206 40.0776 23.4776 40.1499C25.7254 40.6033 27.8093 40.1258 29.763 38.9683C29.8064 38.9394 29.8643 38.9297 29.9125 38.9105C26.8011 38.1629 24.1674 36.7064 21.9339 34.5458C21.6831 35.5007 21.4371 36.4315 21.1863 37.3816C20.5013 37.1308 19.8742 36.909 19.2423 36.6871ZM36.6368 4.10406C36.6368 3.42401 36.6368 2.74884 36.6368 2.05914C34.5819 2.05914 32.5318 2.05914 30.4769 2.05914C30.4769 2.75366 30.4769 3.42401 30.4769 4.10406C32.5366 4.10406 34.5771 4.10406 36.6368 4.10406ZM32.5318 7.33051C32.9032 7.33051 33.2409 7.33051 33.5786 7.33051C33.9114 7.33051 34.2442 7.33051 34.5867 7.33051C34.5867 6.95917 34.5867 6.56854 34.5867 6.15857C33.9645 6.15857 33.3615 6.15857 32.7633 6.15857C32.691 6.15857 32.6186 6.15857 32.5318 6.15857C32.5318 6.5589 32.5318 6.93024 32.5318 7.33051Z" fill="#E96E8B" fill-opacity="1.000000" fill-rule="nonzero"/>
		<path id="Vector" d="M32.5557 11.3481C33.2359 11.3481 33.8823 11.3481 34.5721 11.3481C34.5721 11.4446 34.5721 11.5363 34.5721 11.6279C34.5721 13.8608 34.5769 16.0938 34.5672 18.3316C34.5672 18.5679 34.6203 18.674 34.8615 18.7512C36.5353 19.2962 37.6593 20.8732 37.6593 22.6481C37.6593 24.4036 36.5353 25.971 34.8615 26.5159C34.6396 26.5883 34.5672 26.6799 34.5672 26.9163C34.5817 27.7988 34.5672 28.6862 34.5769 29.5688C34.5817 29.7714 34.5142 29.8292 34.3164 29.8244C33.8099 29.8148 33.3034 29.8148 32.7969 29.8244C32.6136 29.8292 32.5461 29.7762 32.5509 29.5785C32.5605 28.6718 32.5509 27.7603 32.5605 26.8536C32.5605 26.6655 32.5027 26.5931 32.3242 26.5353C30.4718 25.9372 29.2755 24.1721 29.4878 22.2477C29.6759 20.5405 30.6166 19.3637 32.2325 18.7657C32.4882 18.6692 32.5605 18.5583 32.5605 18.293C32.5461 16.0649 32.5557 13.8416 32.5557 11.6134C32.5557 11.5411 32.5557 11.459 32.5557 11.3481ZM33.5349 20.5646C32.3772 20.5935 31.4607 21.5388 31.4848 22.6818C31.509 23.8345 32.4689 24.7315 33.6507 24.7026C34.7554 24.6785 35.6719 23.6994 35.6429 22.5757C35.6092 21.452 34.6492 20.5356 33.5349 20.5646Z" fill="#E96E8B" fill-opacity="1.000000" fill-rule="nonzero"/>
		<path id="Vector" d="M4.08574 37.7483C4.54399 37.2949 5.00708 36.832 5.46051 36.3834C6.12138 37.049 6.79189 37.7242 7.44792 38.3801C7.00896 38.8238 6.53622 39.2916 6.08278 39.7498C5.42192 39.0939 4.75624 38.4235 4.08574 37.7483Z" fill="#E96E8B" fill-opacity="1.000000" fill-rule="nonzero"/>
	</g>
</svg>
