<svg width="48.501343" height="49.520447" viewBox="0 0 48.5013 49.5204" fill="none" xmlns="http://www.w3.org/2000/svg" xmlns:xlink="http://www.w3.org/1999/xlink">
	<desc>
			Created with Pixso.
	</desc>
	<defs/>
	<path id="Vector" d="M26.5326 29.6131C26.3149 31.0214 25.7818 32.291 24.9113 33.4166C24.4 34.078 23.8015 34.6595 23.1051 35.1395C22.9691 35.2302 22.9202 35.3316 22.9256 35.4916C22.9365 35.8277 22.931 36.1638 22.931 36.5319C23.486 36.6439 24.0355 36.7559 24.5795 36.8625C26.8481 37.3214 29.1277 37.7534 31.3854 38.2549C33.7683 38.783 35.6017 40.7887 35.9825 43.1625C36.1675 44.3094 36.26 45.4564 36.2491 46.6139C36.2437 47.4941 36.2491 48.369 36.2491 49.2704C24.2476 49.2704 12.2678 49.2704 0.27179 49.2704C0.266296 49.2011 0.25 49.1318 0.25 49.0624C0.260864 47.7394 0.244568 46.4112 0.304382 45.0883C0.353394 43.936 0.473083 42.7784 0.973572 41.7062C1.88214 39.7485 3.43262 38.575 5.5816 38.1482C8.18756 37.6307 10.799 37.108 13.4049 36.5852C13.4647 36.5745 13.5246 36.5532 13.6171 36.5265C13.6171 36.1531 13.6279 35.769 13.6116 35.3903C13.6062 35.3156 13.5137 35.2302 13.443 35.1769C11.6639 33.9127 10.5323 32.2323 10.0699 30.1252C10.0319 29.9598 10.0046 29.7945 9.96655 29.6024C9.22125 29.5811 8.57928 29.3197 8.12225 28.7115C7.82306 28.3115 7.68158 27.8581 7.7088 27.3619C7.76318 26.2578 8.52484 25.5483 9.88495 25.3242C9.90674 25.2068 9.92847 25.0842 9.95569 24.9668C10.1624 24.1987 10.8044 23.7292 11.6912 23.6279C14.4766 23.3185 17.0881 22.5076 19.4002 20.902C19.879 20.5712 20.3305 20.1925 20.7603 19.7977C21.7341 18.9122 22.8929 19.1683 23.4207 20.3685C23.7471 21.1154 24.1225 21.8462 24.5251 22.561C24.6992 22.8704 24.9549 23.1744 25.2487 23.3825C25.9504 23.8732 26.451 24.4761 26.5924 25.3189C28.0886 25.5323 28.8719 26.2791 28.8719 27.474C28.8502 28.6689 28.0613 29.3997 26.5326 29.6131ZM25.3085 27.2873C25.3085 26.7912 25.3139 26.2897 25.3085 25.7936C25.303 25.2922 25.1126 24.8761 24.6829 24.5881C24.1987 24.2627 23.8124 23.8412 23.4805 23.3718C22.9202 22.577 22.5339 21.6968 22.1639 20.8113C22.0334 20.4966 21.9354 20.4806 21.6743 20.71C21.3424 20.998 21.0215 21.2968 20.6678 21.5635C18.0619 23.5532 15.0533 24.5294 11.8109 24.9081C11.3267 24.9668 11.1797 25.1108 11.1797 25.5909C11.1797 26.5085 11.1689 27.4207 11.1852 28.3382C11.1961 28.7969 11.2178 29.2664 11.3049 29.7145C12.0339 33.4112 15.4233 35.8063 19.237 35.3209C22.0334 34.9635 24.4326 32.8404 25.1017 30.1519C25.3357 29.2023 25.3139 28.2475 25.3085 27.2873ZM10.9894 38.3722C10.8697 38.3936 10.7826 38.4095 10.6901 38.4255C9.02539 38.7563 7.34973 39.0657 5.69043 39.4284C3.67743 39.8658 2.37177 41.0875 1.88214 43.0558C1.48499 44.6562 1.52307 46.2992 1.56116 47.9368C1.56116 47.9528 1.57745 47.9635 1.59375 47.9849C4.72198 47.9849 7.85022 47.9849 10.9948 47.9849C10.9894 44.7789 10.9894 41.5889 10.9894 38.3722ZM34.9108 47.9849C34.9217 47.9475 34.938 47.9208 34.938 47.8995C34.9489 46.4326 34.9652 44.9656 34.7204 43.5146C34.3722 41.4288 32.9468 39.8925 30.9012 39.4498C29.6282 39.1724 28.3497 38.9323 27.0712 38.6763C26.5761 38.575 26.0811 38.4789 25.5696 38.3776C25.5696 41.6049 25.5696 44.7949 25.5696 47.9902C28.6979 47.9849 31.8043 47.9849 34.9108 47.9849ZM21.0704 47.9849C22.1422 47.9849 23.1758 47.9849 24.2258 47.9849C24.2258 44.6829 24.2258 41.4022 24.2258 38.1002C23.7961 38.0148 23.3771 37.9348 22.9202 37.8441C22.9202 39.7751 22.9202 41.6636 22.9202 43.5946C22.2836 43.1465 21.696 42.7305 21.0704 42.293C21.0704 44.2134 21.0704 46.0911 21.0704 47.9849ZM12.3223 38.1002C12.3223 41.4128 12.3223 44.6935 12.3223 47.9849C13.3777 47.9849 14.4168 47.9849 15.4668 47.9849C15.4668 46.0911 15.4668 44.2134 15.4668 42.293C14.8357 42.7358 14.2427 43.1519 13.5898 43.6106C13.5898 41.6529 13.5898 39.7645 13.5898 37.8494C13.1492 37.9348 12.7411 38.0148 12.3223 38.1002ZM21.6199 35.9824C19.373 36.8892 17.1533 36.8999 14.9119 35.9984C14.9119 36.2064 14.8956 36.3825 14.9173 36.5532C14.9282 36.6332 14.9826 36.7399 15.0533 36.7825C16.0598 37.428 17.0717 38.0735 18.0836 38.7029C18.1489 38.7456 18.2958 38.7403 18.3665 38.6976C19.4056 38.0682 20.4393 37.4333 21.473 36.7932C21.5328 36.7559 21.6036 36.6812 21.609 36.6172C21.6308 36.4198 21.6199 36.2225 21.6199 35.9824ZM16.8269 42.8691C16.8106 42.9332 16.7943 42.9651 16.7943 42.9972C16.7943 43.6266 16.7834 44.2614 16.7997 44.8909C16.7997 44.9816 16.8867 45.0989 16.9684 45.163C17.8171 45.8191 18.6712 46.4645 19.5253 47.11C19.5852 47.1527 19.6505 47.19 19.7484 47.2487C19.7484 46.5339 19.7538 45.8671 19.743 45.2056C19.743 45.1256 19.6668 45.0296 19.5961 44.9763C19.2153 44.6775 18.8235 44.3841 18.4373 44.0907C17.9041 43.6853 17.3764 43.2852 16.8269 42.8691ZM19.743 43.4612C19.743 42.7411 19.743 42.0956 19.7375 41.4502C19.7375 41.3915 19.6831 41.3168 19.6342 41.2795C19.1826 40.9541 18.7256 40.634 18.2632 40.3086C17.8007 40.634 17.3492 40.9541 16.8813 41.2848C17.8442 42.0209 18.7637 42.7198 19.743 43.4612ZM21.6036 38.2282C20.8691 38.6816 20.1673 39.1083 19.4383 39.5618C20.1673 40.0792 20.8691 40.57 21.6036 41.0875C21.6036 40.1219 21.6036 39.2044 21.6036 38.2282ZM14.9282 38.2388C14.9282 39.2097 14.9282 40.1273 14.9282 41.0928C15.6518 40.586 16.3373 40.0952 17.0554 39.5884C16.3318 39.1297 15.6464 38.6923 14.9282 38.2388ZM26.6305 28.2795C27.1365 28.3221 27.5391 27.9648 27.5499 27.4847C27.5554 26.9886 27.1637 26.6205 26.6305 26.6472C26.6305 27.1859 26.6305 27.73 26.6305 28.2795ZM18.5515 47.9849C17.9422 47.5208 17.3927 47.1047 16.8106 46.6619C16.8106 47.1367 16.8106 47.5527 16.8106 47.9849C17.3764 47.9849 17.9204 47.9849 18.5515 47.9849ZM9.86322 26.6365C9.34094 26.6578 8.97095 27.0419 8.99817 27.5114C9.02539 27.9594 9.40619 28.3008 9.86322 28.2742C9.86322 27.7354 9.86322 27.202 9.86322 26.6365Z" fill="#E96E8B" fill-opacity="1.000000" fill-rule="nonzero"/>
	<path id="Vector" d="M24.9113 33.4166C24.4 34.078 23.8015 34.6595 23.1051 35.1395C22.9691 35.2302 22.9202 35.3316 22.9256 35.4916C22.9365 35.8277 22.931 36.1638 22.931 36.5319C23.486 36.6439 24.0355 36.7559 24.5795 36.8625C26.8481 37.3214 29.1277 37.7534 31.3854 38.2549C33.7683 38.783 35.6017 40.7887 35.9825 43.1625C36.1675 44.3094 36.26 45.4564 36.2491 46.6139C36.2437 47.4941 36.2491 48.369 36.2491 49.2704C24.2476 49.2704 12.2678 49.2704 0.27179 49.2704C0.266296 49.2011 0.25 49.1318 0.25 49.0624C0.260864 47.7394 0.244568 46.4112 0.304382 45.0883C0.353394 43.936 0.473083 42.7784 0.973572 41.7062C1.88214 39.7485 3.43262 38.575 5.5816 38.1482C8.18756 37.6307 10.799 37.108 13.4049 36.5852C13.4647 36.5745 13.5246 36.5532 13.6171 36.5265C13.6171 36.1531 13.6279 35.769 13.6116 35.3903C13.6062 35.3156 13.5137 35.2302 13.443 35.1769C11.6639 33.9127 10.5323 32.2323 10.0699 30.1252C10.0319 29.9598 10.0046 29.7945 9.96655 29.6024C9.22125 29.5811 8.57922 29.3197 8.12225 28.7115C7.82306 28.3115 7.68158 27.8581 7.7088 27.3619C7.76318 26.2578 8.52484 25.5483 9.88495 25.3242C9.90674 25.2068 9.92847 25.0842 9.95569 24.9668C10.1624 24.1987 10.8044 23.7292 11.6912 23.6279C14.4766 23.3185 17.088 22.5076 19.4002 20.902C19.879 20.5712 20.3305 20.1925 20.7603 19.7977C21.7341 18.9122 22.8929 19.1683 23.4207 20.3685C23.7471 21.1154 24.1225 21.8462 24.5251 22.561C24.6992 22.8704 24.9549 23.1744 25.2487 23.3825C25.9504 23.8732 26.451 24.476 26.5924 25.3189C28.0886 25.5323 28.8719 26.2791 28.8719 27.474C28.8502 28.6689 28.0613 29.3997 26.5326 29.6131C26.3149 31.0214 25.7818 32.291 24.9113 33.4166ZM25.3085 25.7936C25.303 25.2922 25.1126 24.8761 24.6829 24.5881C24.1987 24.2627 23.8124 23.8412 23.4805 23.3718C22.9202 22.577 22.5339 21.6968 22.1639 20.8113C22.0334 20.4966 21.9354 20.4806 21.6743 20.71C21.3424 20.998 21.0215 21.2968 20.6678 21.5635C18.0619 23.5532 15.0533 24.5294 11.8109 24.9081C11.3267 24.9668 11.1797 25.1108 11.1797 25.5909C11.1797 26.5085 11.1689 27.4207 11.1852 28.3382C11.1961 28.7969 11.2178 29.2664 11.3049 29.7145C12.0339 33.4112 15.4233 35.8063 19.237 35.3209C22.0334 34.9635 24.4326 32.8404 25.1017 30.1519C25.3357 29.2023 25.3139 28.2475 25.3085 27.2873C25.3085 26.7912 25.3139 26.2897 25.3085 25.7936ZM10.6901 38.4255C9.02539 38.7563 7.34973 39.0657 5.69043 39.4284C3.67743 39.8658 2.37177 41.0875 1.88214 43.0558C1.48499 44.6562 1.52307 46.2992 1.56116 47.9368C1.56116 47.9528 1.57745 47.9635 1.59375 47.9849C4.72198 47.9849 7.85022 47.9849 10.9948 47.9849C10.9894 44.7789 10.9894 41.5889 10.9894 38.3722C10.8697 38.3936 10.7826 38.4095 10.6901 38.4255ZM34.938 47.8995C34.9489 46.4326 34.9652 44.9656 34.7204 43.5146C34.3722 41.4288 32.9468 39.8925 30.9012 39.4498C29.6282 39.1724 28.3497 38.9323 27.0712 38.6763C26.5761 38.575 26.0811 38.4789 25.5696 38.3776C25.5696 41.6049 25.5696 44.7949 25.5696 47.9902C28.6979 47.9849 31.8043 47.9849 34.9108 47.9849C34.9217 47.9475 34.938 47.9208 34.938 47.8995ZM24.2258 47.9849C24.2258 44.6829 24.2258 41.4022 24.2258 38.1002C23.7961 38.0148 23.3771 37.9348 22.9202 37.8441C22.9202 39.7751 22.9202 41.6636 22.9202 43.5946C22.2836 43.1465 21.696 42.7305 21.0704 42.293C21.0704 44.2134 21.0704 46.0911 21.0704 47.9849C22.1422 47.9849 23.1758 47.9849 24.2258 47.9849ZM12.3223 47.9849C13.3777 47.9849 14.4168 47.9849 15.4668 47.9849C15.4668 46.0911 15.4668 44.2134 15.4668 42.293C14.8357 42.7358 14.2427 43.1519 13.5898 43.6106C13.5898 41.6529 13.5898 39.7645 13.5898 37.8494C13.1492 37.9348 12.7411 38.0148 12.3223 38.1002C12.3223 41.4128 12.3223 44.6935 12.3223 47.9849ZM14.9119 35.9984C14.9119 36.2064 14.8956 36.3824 14.9173 36.5532C14.9282 36.6332 14.9826 36.7399 15.0533 36.7825C16.0598 37.428 17.0717 38.0735 18.0836 38.7029C18.1489 38.7456 18.2958 38.7403 18.3665 38.6976C19.4056 38.0682 20.4393 37.4333 21.473 36.7932C21.5328 36.7559 21.6036 36.6812 21.609 36.6172C21.6308 36.4198 21.6199 36.2225 21.6199 35.9824C19.373 36.8892 17.1533 36.8999 14.9119 35.9984ZM16.7943 42.9972C16.7943 43.6266 16.7834 44.2614 16.7997 44.8909C16.7997 44.9816 16.8867 45.0989 16.9684 45.163C17.8171 45.8191 18.6712 46.4645 19.5253 47.11C19.5852 47.1526 19.6505 47.19 19.7484 47.2487C19.7484 46.5339 19.7538 45.8671 19.743 45.2056C19.743 45.1256 19.6668 45.0296 19.5961 44.9763C19.2152 44.6775 18.8235 44.3841 18.4373 44.0907C17.9041 43.6853 17.3764 43.2852 16.8269 42.8691C16.8106 42.9332 16.7943 42.9651 16.7943 42.9972ZM19.7375 41.4502C19.7375 41.3915 19.6831 41.3168 19.6342 41.2795C19.1826 40.9541 18.7256 40.634 18.2632 40.3086C17.8007 40.634 17.3492 40.9541 16.8813 41.2848C17.8442 42.0209 18.7637 42.7198 19.743 43.4612C19.743 42.7411 19.743 42.0956 19.7375 41.4502ZM19.4383 39.5618C20.1673 40.0792 20.8691 40.57 21.6036 41.0875C21.6036 40.1219 21.6036 39.2044 21.6036 38.2282C20.8691 38.6816 20.1673 39.1083 19.4383 39.5618ZM14.9282 41.0928C15.6518 40.586 16.3373 40.0952 17.0554 39.5884C16.3318 39.1297 15.6464 38.6923 14.9282 38.2388C14.9282 39.2097 14.9282 40.1273 14.9282 41.0928ZM27.5499 27.4847C27.5554 26.9886 27.1637 26.6205 26.6305 26.6472C26.6305 27.1859 26.6305 27.73 26.6305 28.2795C27.1365 28.3221 27.5391 27.9648 27.5499 27.4847ZM16.8106 46.6619C16.8106 47.1367 16.8106 47.5528 16.8106 47.9849C17.3764 47.9849 17.9204 47.9849 18.5515 47.9849C17.9422 47.5208 17.3927 47.1047 16.8106 46.6619ZM8.99817 27.5114C9.02539 27.9594 9.40619 28.3008 9.86316 28.2742C9.86316 27.7354 9.86316 27.202 9.86316 26.6365C9.34088 26.6578 8.97095 27.0419 8.99817 27.5114Z" stroke="#E96E8B" stroke-opacity="1.000000" stroke-width="0.500000"/>
	<path id="Vector" d="M8.56476 23.955C8.11481 23.955 7.71368 23.955 7.31256 23.955C6.83014 19.6379 9.13934 14.715 14.1751 12.854C19.4222 10.9119 25.3687 13.3246 27.6454 18.6804C28.0844 18.7345 28.5018 18.7507 28.903 18.8427C31.3964 19.4215 33.0552 21.5259 33.0714 24.1172C33.0768 25.3345 33.066 26.5517 33.0768 27.7689C33.0876 29.4406 34.2314 30.7281 35.8847 30.9445C37.5597 31.1663 39.213 29.8842 39.3647 28.2017C39.4298 27.4605 39.3756 26.714 39.3756 25.9296C38.2372 25.9296 37.1044 25.9296 35.9389 25.9296C35.9389 25.275 35.9389 24.6583 35.9389 24.0145C35.7058 24.0145 35.4999 24.0145 35.283 24.0145C35.283 23.5763 35.283 23.1651 35.283 22.7269C35.4944 22.7269 35.7004 22.7269 35.9227 22.7269C35.9227 22.4943 35.9227 22.2941 35.9227 22.067C35.7167 22.067 35.5107 22.067 35.2885 22.067C35.2885 21.6234 35.2885 21.2068 35.2885 20.7632C35.4999 20.7632 35.7058 20.7632 35.8901 20.7632C35.8901 20.1897 35.9335 19.6379 35.8847 19.0969C35.6841 17.0412 34.8819 15.2397 33.5809 13.6276C29.8082 8.94269 32.2421 1.91528 38.1072 0.497925C42.7364 -0.621887 47.4469 2.51581 48.1462 7.20612C48.504 9.60266 47.9402 11.7774 46.4062 13.6655C44.7637 15.6887 44.0157 17.9933 44.0861 20.5792C44.0861 20.6333 44.0916 20.682 44.1024 20.7632C44.3463 20.7632 44.574 20.7632 44.8179 20.7632C44.8179 21.2014 44.8179 21.6125 44.8179 22.0507C44.5794 22.0507 44.3463 22.0507 44.1024 22.0507C44.1024 22.2833 44.1024 22.4835 44.1024 22.7161C44.3354 22.7161 44.5632 22.7161 44.8125 22.7161C44.8125 23.1543 44.8125 23.5654 44.8125 24.009C44.5848 24.009 44.3517 24.009 44.097 24.009C44.097 24.6583 44.097 25.275 44.097 25.9296C42.9532 25.9296 41.842 25.9296 40.6928 25.9296C40.6928 26.4435 40.6874 26.9196 40.6928 27.3956C40.7091 28.1313 40.6386 28.8509 40.3459 29.5379C39.5545 31.4151 37.6085 32.5079 35.5649 32.2266C33.6135 31.9561 32.0035 30.3223 31.7921 28.3423C31.7271 27.7418 31.765 27.1359 31.7596 26.53C31.7488 25.5455 31.7813 24.5609 31.7162 23.5817C31.597 21.8452 30.1009 20.3033 28.3771 20.0599C28.2958 20.0491 28.22 20.0491 28.0953 20.0383C28.4422 21.3258 28.491 22.6241 28.4476 23.9495C28.0248 23.9495 27.6129 23.9495 27.1575 23.9495C27.1575 23.6358 27.1575 23.3112 27.1575 22.992C27.1575 21.8776 27.0328 20.774 26.6317 19.7299C25.2711 16.1648 22.7072 14.0225 18.9019 13.5681C13.9854 12.9893 9.65973 16.2243 8.72736 21.0715C8.60809 21.7045 8.60809 22.3591 8.56476 23.0082C8.54846 23.3112 8.56476 23.6196 8.56476 23.955ZM41.7661 18.7778C42.0859 18.7778 42.3732 18.7723 42.6605 18.7831C42.8231 18.7886 42.8773 18.7236 42.899 18.5668C43.1809 16.4515 43.994 14.5743 45.3437 12.9189C46.6555 11.3122 47.1542 9.46741 46.8615 7.41168C46.3195 3.62482 42.5358 0.94696 38.7631 1.67725C33.5484 2.6889 31.3151 8.74249 34.6488 12.8756C35.7329 14.2227 36.5135 15.7158 36.9146 17.3983C37.0231 17.8473 37.0935 18.3071 37.1857 18.7615C37.5435 18.7615 37.8849 18.7615 38.2644 18.7615C38.2644 18.3395 38.2644 17.9338 38.2644 17.5281C38.7143 17.5281 39.1262 17.5281 39.5707 17.5281C39.5707 17.9446 39.5707 18.3504 39.5707 18.7561C39.8851 18.7561 40.167 18.7561 40.476 18.7561C40.476 18.3342 40.476 17.9338 40.476 17.5335C40.9205 17.5335 41.3379 17.5335 41.7715 17.5335C41.7661 17.9446 41.7661 18.3395 41.7661 18.7778ZM37.2615 20.7307C39.1208 20.7307 40.9476 20.7307 42.7744 20.7307C42.7744 20.5089 42.7744 20.3033 42.7744 20.0923C40.9313 20.0923 39.1046 20.0923 37.2615 20.0923C37.2615 20.3087 37.2615 20.5143 37.2615 20.7307ZM37.2615 22.6945C39.11 22.6945 40.9421 22.6945 42.7744 22.6945C42.7744 22.4727 42.7744 22.2725 42.7744 22.067C40.9313 22.067 39.1046 22.067 37.2615 22.067C37.2615 22.2779 37.2615 22.4835 37.2615 22.6945ZM42.7744 24.0253C40.9313 24.0253 39.1046 24.0253 37.2561 24.0253C37.2561 24.2255 37.2561 24.4094 37.2561 24.6096C39.0991 24.6096 40.9313 24.6096 42.7744 24.6096C42.7744 24.4094 42.7744 24.2255 42.7744 24.0253Z" fill="#E96E8B" fill-opacity="1.000000" fill-rule="nonzero"/>
	<path id="Vector" d="M7.31256 23.955C6.83014 19.6379 9.13934 14.715 14.1751 12.854C19.4222 10.9119 25.3687 13.3246 27.6454 18.6804C28.0844 18.7345 28.5018 18.7507 28.903 18.8427C31.3964 19.4215 33.0552 21.5259 33.0714 24.1172C33.0768 25.3345 33.066 26.5517 33.0768 27.7689C33.0876 29.4406 34.2314 30.7281 35.8847 30.9445C37.5597 31.1663 39.213 29.8842 39.3647 28.2017C39.4298 27.4605 39.3756 26.714 39.3756 25.9296C38.2372 25.9296 37.1044 25.9296 35.9389 25.9296C35.9389 25.275 35.9389 24.6583 35.9389 24.0145C35.7058 24.0145 35.4999 24.0145 35.283 24.0145C35.283 23.5763 35.283 23.1651 35.283 22.7269C35.4944 22.7269 35.7004 22.7269 35.9227 22.7269C35.9227 22.4943 35.9227 22.2941 35.9227 22.067C35.7167 22.067 35.5107 22.067 35.2885 22.067C35.2885 21.6234 35.2885 21.2068 35.2885 20.7632C35.4999 20.7632 35.7058 20.7632 35.8901 20.7632C35.8901 20.1897 35.9335 19.6379 35.8847 19.0969C35.6841 17.0412 34.8819 15.2397 33.5809 13.6276C29.8082 8.94269 32.2421 1.91528 38.1072 0.497925C42.7364 -0.621887 47.4469 2.51581 48.1462 7.20612C48.504 9.60266 47.9402 11.7774 46.4062 13.6655C44.7637 15.6887 44.0157 17.9933 44.0861 20.5792C44.0861 20.6333 44.0916 20.682 44.1024 20.7632C44.3463 20.7632 44.574 20.7632 44.8179 20.7632C44.8179 21.2014 44.8179 21.6125 44.8179 22.0507C44.5794 22.0507 44.3463 22.0507 44.1024 22.0507C44.1024 22.2833 44.1024 22.4835 44.1024 22.7161C44.3354 22.7161 44.5632 22.7161 44.8125 22.7161C44.8125 23.1543 44.8125 23.5654 44.8125 24.009C44.5848 24.009 44.3517 24.009 44.097 24.009C44.097 24.6583 44.097 25.275 44.097 25.9296C42.9532 25.9296 41.842 25.9296 40.6928 25.9296C40.6928 26.4435 40.6874 26.9196 40.6928 27.3956C40.7091 28.1313 40.6386 28.8509 40.3459 29.5379C39.5545 31.4151 37.6085 32.5079 35.5649 32.2266C33.6135 31.9561 32.0035 30.3223 31.7921 28.3423C31.7271 27.7418 31.765 27.1359 31.7596 26.53C31.7488 25.5455 31.7813 24.5609 31.7162 23.5817C31.597 21.8452 30.1009 20.3033 28.3771 20.0599C28.2958 20.0491 28.22 20.0491 28.0953 20.0383C28.4422 21.3258 28.491 22.6241 28.4476 23.9495C28.0248 23.9495 27.6129 23.9495 27.1575 23.9495C27.1575 23.6358 27.1575 23.3112 27.1575 22.992C27.1575 21.8776 27.0328 20.774 26.6317 19.7299C25.2711 16.1648 22.7072 14.0225 18.9019 13.5681C13.9854 12.9893 9.65973 16.2243 8.72736 21.0715C8.60809 21.7045 8.60809 22.3591 8.56476 23.0082C8.54846 23.3112 8.56476 23.6196 8.56476 23.955C8.11481 23.955 7.71368 23.955 7.31256 23.955ZM42.6605 18.7831C42.8231 18.7886 42.8773 18.7236 42.899 18.5668C43.1809 16.4515 43.994 14.5743 45.3437 12.9189C46.6555 11.3122 47.1542 9.46741 46.8615 7.41168C46.3195 3.62482 42.5358 0.94696 38.7631 1.67725C33.5484 2.6889 31.3151 8.74249 34.6488 12.8756C35.7329 14.2227 36.5135 15.7158 36.9146 17.3983C37.0231 17.8473 37.0935 18.3071 37.1857 18.7615C37.5435 18.7615 37.8849 18.7615 38.2644 18.7615C38.2644 18.3395 38.2644 17.9338 38.2644 17.5281C38.7143 17.5281 39.1263 17.5281 39.5707 17.5281C39.5707 17.9446 39.5707 18.3504 39.5707 18.7561C39.8851 18.7561 40.167 18.7561 40.476 18.7561C40.476 18.3342 40.476 17.9338 40.476 17.5335C40.9205 17.5335 41.3379 17.5335 41.7715 17.5335C41.7661 17.9446 41.7661 18.3395 41.7661 18.7778C42.0859 18.7778 42.3732 18.7723 42.6605 18.7831ZM42.7744 20.7307C42.7744 20.5089 42.7744 20.3033 42.7744 20.0923C40.9313 20.0923 39.1046 20.0923 37.2615 20.0923C37.2615 20.3087 37.2615 20.5143 37.2615 20.7307C39.1208 20.7307 40.9476 20.7307 42.7744 20.7307ZM42.7744 22.6945C42.7744 22.4727 42.7744 22.2725 42.7744 22.067C40.9313 22.067 39.1046 22.067 37.2615 22.067C37.2615 22.2779 37.2615 22.4835 37.2615 22.6945C39.11 22.6945 40.9421 22.6945 42.7744 22.6945ZM37.2561 24.0253C37.2561 24.2255 37.2561 24.4094 37.2561 24.6096C39.0991 24.6096 40.9313 24.6096 42.7744 24.6096C42.7744 24.4094 42.7744 24.2255 42.7744 24.0253C40.9313 24.0253 39.1046 24.0253 37.2561 24.0253Z" stroke="#E96E8B" stroke-opacity="1.000000" stroke-width="0.500000"/>
	<path id="Vector" d="M12.25 10.3809C11.9715 10.66 11.6523 10.9739 11.3622 11.2704C9.66199 9.56696 7.95599 7.85767 6.25 6.14838C6.54016 5.86346 6.85931 5.55536 7.14941 5.27045C8.83221 6.95648 10.5382 8.66577 12.25 10.3809Z" fill="#E96E8B" fill-opacity="1.000000" fill-rule="nonzero"/>
	<path id="Vector" d="M11.3622 11.2704C9.66199 9.56696 7.95599 7.85767 6.25 6.14838C6.54016 5.86346 6.85931 5.55536 7.14941 5.27045C8.83221 6.95648 10.5382 8.66577 12.25 10.3809C11.9715 10.66 11.6523 10.9739 11.3622 11.2704Z" stroke="#E96E8B" stroke-opacity="1.000000" stroke-width="0.500000"/>
	<path id="Vector" d="M24.9988 11.2704C24.7621 10.9866 24.4964 10.674 24.25 10.3727C25.6655 8.67584 27.0858 6.97314 28.506 5.27045C28.7524 5.57159 29.0133 5.88434 29.25 6.16815C27.8394 7.86505 26.4239 9.56775 24.9988 11.2704Z" fill="#E96E8B" fill-opacity="1.000000" fill-rule="nonzero"/>
	<path id="Vector" d="M24.25 10.3727C25.6655 8.67584 27.0858 6.97314 28.506 5.27045C28.7524 5.57159 29.0133 5.88434 29.25 6.16815C27.8394 7.86505 26.4239 9.56775 24.9988 11.2704C24.7621 10.9866 24.4964 10.674 24.25 10.3727Z" stroke="#E96E8B" stroke-opacity="1.000000" stroke-width="0.500000"/>
	<path id="Vector" d="M19.25 9.27045C18.5692 9.27045 17.9224 9.27045 17.25 9.27045C17.25 6.93524 17.25 4.61127 17.25 2.27045C17.9138 2.27045 18.5692 2.27045 19.25 2.27045C19.25 4.60565 19.25 6.92401 19.25 9.27045Z" fill="#E96E8B" fill-opacity="1.000000" fill-rule="nonzero"/>
	<path id="Vector" d="M17.25 9.27045C17.25 6.93524 17.25 4.61127 17.25 2.27045C17.9138 2.27045 18.5692 2.27045 19.25 2.27045C19.25 4.60565 19.25 6.92401 19.25 9.27045C18.5692 9.27045 17.9224 9.27045 17.25 9.27045Z" stroke="#E96E8B" stroke-opacity="1.000000" stroke-width="0.500000"/>
	<path id="Vector" d="M37.1637 13.2704C37.2885 12.5129 37.3977 11.8209 37.5121 11.1233C37.5849 10.6873 37.6681 10.2514 37.7201 9.80994C37.7305 9.71185 37.6681 9.57019 37.5953 9.4939C36.8309 8.70367 36.0612 7.91895 35.25 7.09064C35.6088 7.03064 35.9208 6.9762 36.238 6.92712C36.9921 6.81268 37.7461 6.69281 38.5001 6.58923C38.6561 6.56744 38.7393 6.49658 38.8069 6.34949C39.2438 5.41211 39.6858 4.48029 40.1278 3.54291C40.1642 3.46118 40.2058 3.38489 40.263 3.27045C40.3306 3.40668 40.3878 3.51025 40.4398 3.6192C40.8662 4.52386 41.2927 5.42303 41.7087 6.3277C41.7867 6.49115 41.8802 6.56201 42.0571 6.58923C43.0503 6.72546 44.0436 6.88354 45.042 7.03613C45.1096 7.047 45.172 7.06879 45.25 7.08514C45.0784 7.27588 44.9224 7.45026 44.756 7.62469C44.158 8.24048 43.5547 8.86176 42.9515 9.46661C42.8267 9.59198 42.7851 9.70642 42.8163 9.89172C43.0035 10.9707 43.1751 12.0552 43.3519 13.1342C43.3571 13.1614 43.3467 13.1887 43.3467 13.2487C43.0659 13.0961 42.8007 12.9489 42.5407 12.8073C41.8491 12.4258 41.1627 12.0497 40.4762 11.6628C40.3306 11.5811 40.2162 11.5811 40.0706 11.6628C39.1241 12.1969 38.1725 12.7146 37.1637 13.2704ZM42.5303 7.97888C42.1143 7.91351 41.6722 7.84265 41.225 7.78271C41.0638 7.76093 40.965 7.70099 40.8922 7.54291C40.6998 7.10693 40.4918 6.68188 40.2682 6.2132C40.1226 6.51843 39.9666 6.77454 39.8782 7.05249C39.7066 7.59198 39.3946 7.8808 38.8278 7.86444C38.5469 7.85358 38.2661 7.94617 38.0165 7.98981C38.3389 8.34949 38.6613 8.69824 38.963 9.05792C39.0306 9.13965 39.0721 9.27588 39.0618 9.37946C38.9993 9.86444 38.9161 10.3386 38.8329 10.8726C39.2802 10.6274 39.691 10.4094 40.0862 10.1805C40.2214 10.0988 40.3306 10.1042 40.4658 10.1805C40.8662 10.4094 41.2719 10.6274 41.7191 10.8726C41.6359 10.3495 41.5682 9.87537 41.4799 9.40668C41.4487 9.24323 41.485 9.14508 41.5942 9.03064C41.9114 8.69281 42.2131 8.33313 42.5303 7.97888Z" fill="#E96E8B" fill-opacity="1.000000" fill-rule="nonzero"/>
</svg>
