<svg width="8.188416" height="14.000000" viewBox="0 0 8.18842 14" fill="none" xmlns="http://www.w3.org/2000/svg" xmlns:xlink="http://www.w3.org/1999/xlink">
	<desc>
			Created with Pixso.
	</desc>
	<defs/>
	<path id="Facebook" d="M4.82446 13.5L2.46234 13.5L2.46234 8.05762L0.5 8.05762L0.5 5.85107L2.46234 5.85107L2.46234 5.04785C2.46234 2.06738 3.63885 0.5 6.12817 0.5C6.8913 0.5 7.08209 0.629883 7.5 0.735352L7.5 2.91846C7.0321 2.83154 6.90039 2.78369 6.41437 2.78369C5.83746 2.78369 5.52856 2.95654 5.24689 3.29785C4.96527 3.63965 4.82446 4.23096 4.82446 5.07715L4.82446 5.85596L7.5 5.85596L6.78229 8.0625L4.82446 8.0625L4.82446 8.05762L4.82446 13.5Z" stroke="#FACCD7" stroke-opacity="1.000000" stroke-width="1.000000"/>
</svg>
