<svg width="15.000000" height="17.000000" viewBox="0 0 15 17" fill="none" xmlns="http://www.w3.org/2000/svg" xmlns:xlink="http://www.w3.org/1999/xlink">
	<desc>
			Created with Pixso.
	</desc>
	<defs>
		<clipPath id="clip44_13677">
			<rect id="Frame" width="15.000000" height="17.000000" fill="white" fill-opacity="0"/>
		</clipPath>
	</defs>
	<g clip-path="url(#clip44_13677)">
		<path id="Vector" d="M8.02045 4.15186C8.02045 5.07031 8.03387 5.99121 8.01471 6.90967C8.00702 7.30957 7.71185 7.91895 7.24603 8.12451C6.82428 8.31104 6.4754 8.19531 6.13037 7.9668C6.06903 7.92627 6.0307 7.85352 5.98279 7.79395C5.31183 6.94629 4.64093 6.10059 3.96997 5.25293C3.45435 4.60156 2.93292 3.95557 2.42688 3.29639C2.27539 3.09863 2.14124 2.87549 2.05115 2.64307C1.84216 2.10645 2.14508 1.63184 2.58215 1.4126C2.79681 1.30518 3.03455 1.2417 3.26074 1.16113C4.09076 0.865234 4.92273 0.570801 5.75275 0.276855C5.97125 0.200195 6.18787 0.115723 6.41022 0.0444336C6.69586 -0.0458984 6.96997 0.0268555 7.24219 0.11377C7.55847 0.215332 7.71948 0.461426 7.84412 0.742188C7.95911 1.00146 8.0224 1.27051 8.02045 1.55908C8.0166 2.42188 8.02045 3.28662 8.02045 4.15186ZM7.24408 4.26904C7.2326 3.39258 7.22113 2.51416 7.21344 1.6377C7.21155 1.46484 7.18274 1.30322 7.11566 1.14355C7.05243 0.988281 6.95081 0.870605 6.79364 0.80957C6.71698 0.778809 6.64221 0.769043 6.56934 0.830566C6.54633 0.849609 6.5061 0.849609 6.47351 0.857422C6.42365 0.867188 6.37189 0.867188 6.32397 0.882324C5.28693 1.2417 4.24988 1.60303 3.21277 1.96631C3.04028 2.02588 2.85626 2.05664 2.71442 2.19336C2.65497 2.25098 2.64728 2.29688 2.69141 2.35449C2.78149 2.47754 2.87158 2.60059 2.96552 2.72168C3.70355 3.67334 4.44153 4.62451 5.18152 5.57568C5.62811 6.15039 6.07477 6.72705 6.52332 7.30176C6.74188 7.58252 7.0946 7.54004 7.22491 7.21533C7.25946 7.12891 7.28247 7.03076 7.28052 6.93848C7.27289 6.04883 7.25751 5.15869 7.24408 4.26904Z" fill="#FACCD7" fill-opacity="1.000000" fill-rule="nonzero"/>
		<path id="Vector" d="M9.74756 10.1387C9.95074 10.1099 10.129 10.2002 10.313 10.2559C11.3846 10.5732 12.4543 10.8921 13.5239 11.2148C13.8249 11.3052 14.1297 11.3921 14.423 11.5015C14.676 11.5977 14.8907 11.7549 14.9731 12.0337C15.0345 12.2412 14.9731 12.4375 14.908 12.6333C14.8044 12.9429 14.5974 13.189 14.4114 13.4463C13.959 14.0732 13.5009 14.6958 13.0524 15.3242C12.646 15.8892 11.8466 15.9624 11.3175 15.4663C11.2025 15.3589 11.1067 15.2261 11.0204 15.0938C10.2939 13.9712 9.56543 12.8486 8.85236 11.7188C8.65875 11.4131 8.60889 11.0649 8.72778 10.7056C8.81976 10.4287 9.0517 10.3115 9.29132 10.2158C9.43317 10.1577 9.59229 10.1465 9.74371 10.1118C9.74371 10.1216 9.74567 10.1289 9.74756 10.1387ZM9.73029 10.8843C9.66132 10.8843 9.59613 10.877 9.53479 10.8862C9.46002 10.8999 9.37952 10.9385 9.38525 11.0229C9.39484 11.1479 9.40057 11.29 9.46387 11.3901C10.1769 12.5259 10.8977 13.6577 11.6223 14.7861C11.6856 14.8843 11.7853 14.9629 11.8811 15.0342C11.9252 15.0669 12.0038 15.0781 12.0613 15.0688C12.1935 15.0474 12.3066 14.9878 12.391 14.8765C12.9067 14.2056 13.4223 13.5327 13.9456 12.8682C14.0684 12.7124 14.145 12.5469 14.1815 12.355C14.1929 12.2954 14.1795 12.2627 14.122 12.249C14.0358 12.23 13.9476 12.2183 13.8613 12.1934C13.5699 12.1089 13.2824 12.0205 12.991 11.9341C12.3546 11.7437 11.7162 11.5532 11.0798 11.3613C10.6255 11.2246 10.1712 11.0903 9.71692 10.9536C9.7265 10.9326 9.72839 10.9111 9.73029 10.8843Z" fill="#FACCD7" fill-opacity="1.000000" fill-rule="nonzero"/>
		<path id="Vector" d="M14.9406 7.4668C14.952 7.65723 14.8619 7.80713 14.7354 7.93408C14.4709 8.19727 14.1431 8.34521 13.7866 8.44336C12.7534 8.72949 11.722 9.02393 10.6888 9.31396C10.4415 9.3833 10.1962 9.48291 9.94312 9.51562C9.58081 9.56201 9.21466 9.58496 8.87537 9.37158C8.38464 9.06055 8.3808 8.39893 8.61853 8.04932C9.26837 7.09619 9.91437 6.14258 10.5623 5.1875C10.7195 4.95508 10.8709 4.7168 11.0319 4.48779C11.1929 4.25928 11.3981 4.08057 11.6837 4.04004C12.0306 3.99023 12.3259 4.12646 12.5731 4.35352C12.7265 4.49365 12.8434 4.67432 12.9853 4.82812C13.5661 5.45654 14.1527 6.08105 14.7335 6.70996C14.7661 6.74414 14.7853 6.79639 14.7987 6.84424C14.8543 7.0498 14.908 7.25537 14.9597 7.46143C14.9578 7.46338 14.9482 7.46484 14.9406 7.4668ZM9.54053 8.73535C9.54053 8.7373 9.54053 8.74121 9.54053 8.74316C9.61725 8.7373 9.6958 8.74316 9.76868 8.72412C10.3016 8.5835 10.8326 8.4375 11.3635 8.29541C12.046 8.11279 12.7284 7.93213 13.4108 7.74756C13.6332 7.68604 13.8632 7.64746 14.0549 7.49756C14.168 7.40918 14.2198 7.31494 14.1738 7.17676C14.1565 7.12695 14.1354 7.07471 14.101 7.03467C14.0281 6.94629 13.9457 6.86328 13.869 6.78076C13.3073 6.17725 12.7476 5.57178 12.1878 4.96826C12.1686 4.94922 12.1476 4.92432 12.1456 4.89941C12.1265 4.7666 11.9271 4.6626 11.8006 4.71484C11.676 4.7666 11.6357 4.88379 11.5706 4.98389C10.9303 5.94873 10.29 6.91162 9.64984 7.87451C9.52521 8.06104 9.39868 8.24561 9.27985 8.43359C9.17633 8.59717 9.24725 8.72949 9.43701 8.7373C9.47156 8.73535 9.50604 8.73535 9.54053 8.73535Z" fill="#FACCD7" fill-opacity="1.000000" fill-rule="nonzero"/>
		<path id="Vector" d="M7.90924 13.8306C7.89777 14.4746 7.88434 15.1162 7.8728 15.7603C7.87091 15.8618 7.88623 15.9639 7.88623 16.0659C7.88818 16.479 7.68304 16.769 7.29968 16.9136C6.93542 17.0498 6.57892 17.0073 6.21661 16.896C5.45367 16.6616 4.68878 16.4331 3.92395 16.2041C3.67664 16.1294 3.42554 16.0659 3.23004 15.8813C3.18207 15.835 3.13226 15.7871 3.09772 15.7314C2.86194 15.3354 2.80444 14.9355 3.03259 14.5068C3.14374 14.2974 3.29712 14.1343 3.45624 13.9707C4.31116 13.0903 5.16803 12.2124 6.02301 11.334C6.29712 11.0513 6.62109 10.8896 7.02173 10.8784C7.20575 10.8726 7.35907 10.9302 7.49902 11.0381C7.79041 11.2607 7.95526 11.5493 7.94568 11.9238C7.93036 12.5562 7.92078 13.1943 7.90924 13.8306ZM7.24213 13.9111C7.25171 13.9111 7.2594 13.9111 7.26898 13.9111C7.26898 13.4634 7.26709 13.0156 7.26898 12.5679C7.27094 12.3408 7.27667 12.1143 7.28241 11.8853C7.28625 11.7334 7.20764 11.6108 7.09839 11.6143C6.93927 11.6201 6.79169 11.6606 6.67285 11.7817C5.76801 12.7119 4.86322 13.6401 3.96039 14.5723C3.87219 14.6626 3.78595 14.7588 3.71692 14.8647C3.61725 15.0166 3.71307 15.2373 3.88562 15.2949C4.6543 15.5566 5.41913 15.8218 6.18976 16.0791C6.42554 16.1582 6.65173 16.2773 6.91626 16.2598C7.16162 16.2446 7.18658 16.2329 7.20959 15.9829C7.21149 15.9639 7.21149 15.9448 7.21149 15.9253C7.22296 15.2549 7.23254 14.582 7.24213 13.9111Z" fill="#FACCD7" fill-opacity="1.000000" fill-rule="nonzero"/>
		<path id="Vector" d="M0 10.6133C0.0249023 10.3076 0.0479126 10.0098 0.0709229 9.71338C0.0996704 9.34473 0.130371 8.97363 0.159119 8.60449C0.184021 8.30078 0.205139 7.99902 0.235779 7.69727C0.254944 7.50732 0.371887 7.36475 0.49646 7.22852C0.891357 6.80176 1.31696 6.76123 1.83453 6.99609C3.09583 7.56494 4.33612 8.18359 5.58978 8.77197C5.85242 8.89502 6.08624 9.03906 6.2569 9.2793C6.5329 9.66162 6.44666 10.5112 5.84662 10.7881C5.5802 10.9111 5.29456 10.9492 5.01276 11.0107C4.5144 11.1187 4.01404 11.2148 3.51562 11.3164C2.8064 11.4604 2.09906 11.605 1.38977 11.7471C1.24982 11.7759 1.11182 11.8105 0.969971 11.8276C0.626831 11.8721 0.354614 11.7314 0.157166 11.4604C0.0900879 11.3682 0.0670776 11.2358 0.0479126 11.1187C0.0230103 10.9492 0.0153198 10.7764 0 10.6133ZM0.672852 10.5498C0.697754 10.665 0.734192 10.8477 0.782104 11.0283C0.789795 11.0571 0.84729 11.0957 0.87793 11.0898C1.00256 11.0703 1.12335 11.0356 1.24603 11.0107C1.78278 10.9014 2.31952 10.7939 2.8562 10.6841C3.58276 10.5361 4.30927 10.3901 5.03387 10.2324C5.24664 10.1865 5.48627 10.2114 5.65497 10.0288C5.68756 9.99414 5.72394 9.95166 5.73352 9.90771C5.76422 9.76172 5.72394 9.63477 5.59552 9.54639C5.51501 9.49072 5.43262 9.43115 5.34442 9.38867C4.19617 8.84473 3.04602 8.30469 1.89777 7.76074C1.66583 7.65137 1.43005 7.55908 1.16931 7.55908C1.02173 7.55908 0.897095 7.68018 0.88562 7.82422C0.851135 8.26807 0.814697 8.71045 0.778259 9.1543C0.745667 9.59619 0.713074 10.0366 0.672852 10.5498Z" fill="#FACCD7" fill-opacity="1.000000" fill-rule="nonzero"/>
	</g>
</svg>
