<svg width="15.380188" height="15.380371" viewBox="0 0 15.3802 15.3804" fill="none" xmlns="http://www.w3.org/2000/svg" xmlns:xlink="http://www.w3.org/1999/xlink">
	<desc>
			Created with Pixso.
	</desc>
	<defs/>
	<path id="Vector" d="M2.90356 14.8804C1.58075 14.8804 0.5 13.7993 0.5 12.4766L0.5 2.90381C0.5 1.58057 1.58075 0.5 2.90356 0.5L12.4766 0.5C13.7994 0.5 14.8802 1.58057 14.8802 2.90381L14.8802 12.4766C14.8802 13.8052 13.8054 14.8804 12.4766 14.8804L2.90356 14.8804ZM5.08276 10.3032C4.38586 9.60645 4.00201 8.6792 4.00201 7.69287C4.00201 6.70703 4.38586 5.77979 5.08276 5.08252C5.7796 4.38574 6.70679 4.00195 7.69305 4.00195C8.67926 4.00195 9.60645 4.38574 10.3033 5.08252C11.0002 5.77979 11.384 6.70703 11.384 7.69287C11.384 8.6792 11.0002 9.60645 10.3033 10.3032C9.60052 11 8.67926 11.3843 7.69305 11.3843C6.70679 11.3843 5.7796 11 5.08276 10.3032ZM12.1035 3.88086C11.7121 3.88086 11.3948 3.56348 11.3948 3.17188C11.3948 2.78076 11.7121 2.46338 12.1035 2.46338C12.4949 2.46338 12.8122 2.78076 12.8122 3.17188C12.8122 3.56348 12.4949 3.88086 12.1035 3.88086Z" stroke="#FACCD7" stroke-opacity="1.000000" stroke-width="1.000000"/>
</svg>
