<svg width="50.000000" height="50.000000" viewBox="0 0 50 50" fill="none" xmlns="http://www.w3.org/2000/svg" xmlns:xlink="http://www.w3.org/1999/xlink">
	<desc>
			Created with Pixso.
	</desc>
	<defs>
		<clipPath id="clip40_6810">
			<rect id="icon" width="50.000000" height="50.000000" fill="white" fill-opacity="0"/>
		</clipPath>
	</defs>
	<g clip-path="url(#clip40_6810)">
		<path id="Vector" d="M7.08331 6.87506C7.91669 5.20837 9.58331 4.16663 11.4583 4.16663L38.5417 4.16663C40.4167 4.16663 42.0833 5.20837 42.9167 6.87506L46.4584 13.7499C47.2917 15.4166 47.0833 17.4999 45.8333 18.9583L25 45.8333L3.95831 19.1665C2.91669 17.7082 2.70831 15.6249 3.54169 13.7499L7.08331 6.87506Z" stroke="#E96E8B" stroke-opacity="1.000000" stroke-width="1.500000" stroke-linejoin="round"/>
		<path id="Vector" d="M2.91675 16.6666L14.5834 16.6666L16.6667 16.6666L33.3334 16.6666L35.4167 16.6666L47.0834 16.6666" stroke="#E96E8B" stroke-opacity="1.000000" stroke-width="1.500000" stroke-linejoin="round" stroke-linecap="round"/>
		<path id="Vector" d="M24.9999 45.8333L14.5833 16.6666L20.8333 4.16663" stroke="#E96E8B" stroke-opacity="1.000000" stroke-width="1.500000" stroke-linejoin="round" stroke-linecap="round"/>
		<path id="Vector" d="M25 45.8333L35.4167 16.6666L29.1667 4.16663" stroke="#E96E8B" stroke-opacity="1.000000" stroke-width="1.500000" stroke-linejoin="round" stroke-linecap="round"/>
	</g>
</svg>
