<svg width="64.945923" height="43.942261" viewBox="0 0 64.9459 43.9423" fill="none" xmlns="http://www.w3.org/2000/svg" xmlns:xlink="http://www.w3.org/1999/xlink">
	<desc>
			Created with Pixso.
	</desc>
	<defs/>
	<path id="Vector" d="M9.73514 34.2796C8.60422 34.2796 7.5289 34.2796 6.45361 34.2796C6.18478 34.2796 5.92523 34.2796 5.6564 34.2796C5.23926 34.2704 4.98898 34.0687 4.98898 33.7385C4.99826 33.4174 5.23001 33.2248 5.63788 33.2248C6.17551 33.2156 6.72244 33.2248 7.32498 33.2248C7.27863 32.9313 7.23227 32.6744 7.18594 32.4268C6.99127 31.3903 6.7966 30.3538 6.60193 29.3173C6.49997 28.7487 6.68536 28.5285 7.26935 28.5193C7.74213 28.5193 8.21487 28.5193 8.6969 28.5102C8.71545 28.5102 8.73398 28.4918 8.79889 28.4735C8.60422 26.2629 8.40955 24.0432 8.2056 21.796C7.89972 21.796 7.62161 21.8235 7.35278 21.7868C6.54633 21.6768 5.91595 21.2731 5.50809 20.576C4.4884 18.8241 4.23813 16.9346 4.60892 14.9625C4.71088 14.4397 4.97971 14.2838 5.48956 14.4672C7.36206 15.1276 8.86377 16.2559 9.89273 17.9619C10.5416 19.0351 10.347 20.3009 9.43851 21.1722C9.33652 21.264 9.24384 21.4382 9.25311 21.5667C9.44775 23.8414 9.6517 26.1161 9.85565 28.3818C9.85565 28.4185 9.87418 28.446 9.88345 28.501C10.1337 28.501 10.3748 28.501 10.6621 28.501C10.727 27.8956 10.8011 27.2994 10.8661 26.694C10.9958 25.5108 11.1349 24.3276 11.2554 23.1351C11.2739 22.9792 11.2183 22.7958 11.1349 22.6674C10.6528 21.9335 10.6158 21.1814 11.07 20.4293C11.8208 19.191 12.924 18.3747 14.2866 17.8885C14.7686 17.7142 15.0375 17.8793 15.1302 18.3839C15.399 19.7505 15.2229 21.053 14.5833 22.2913C14.1383 23.1443 13.4338 23.5571 12.4604 23.4562C12.4141 23.4562 12.3678 23.4562 12.2751 23.4562C12.0897 25.1347 11.9043 26.7949 11.7096 28.5193C12.238 28.5193 12.7293 28.5193 13.2206 28.5193C13.8046 28.5193 13.9992 28.7487 13.888 29.3082C13.6748 30.4456 13.4616 31.5829 13.2484 32.7203C13.2206 32.8671 13.2021 33.0138 13.165 33.2248C13.5265 33.2248 13.8509 33.2248 14.1847 33.2248C14.4627 33.2248 14.7408 33.2156 15.0189 33.2339C15.3248 33.2523 15.5195 33.4633 15.5288 33.7385C15.5288 34.0136 15.3341 34.2245 15.0375 34.2613C14.9355 34.2704 14.8335 34.2704 14.7223 34.2704C13.5543 34.2704 12.3863 34.2704 11.2183 34.2704C11.0885 34.2704 10.968 34.2704 10.8104 34.2704C10.8012 34.3989 10.7826 34.4906 10.7826 34.5915C10.7826 35.7105 10.7733 36.8387 10.7919 37.9578C10.7919 38.1229 10.8753 38.3155 10.9958 38.4347C12.3307 39.7739 13.6748 41.1039 15.0189 42.4247C15.1209 42.5256 15.2878 42.6265 15.4268 42.6265C17.1602 42.6357 18.903 42.6357 20.6364 42.6357C20.6828 42.6357 20.7292 42.6265 20.794 42.6082C20.794 41.9294 20.794 41.2598 20.794 40.5444C20.4789 40.5444 20.1729 40.5444 19.867 40.5444C19.4406 40.5352 19.2367 40.3517 19.2367 39.939C19.2367 36.8571 19.2367 33.7751 19.2367 30.684C19.2367 30.2712 19.4406 30.0787 19.867 30.0787C20.5808 30.0695 21.3039 30.0603 22.0176 30.0878C22.3513 30.097 22.4255 29.9777 22.4163 29.675C22.3977 28.9504 22.407 28.235 22.407 27.5104C22.4163 26.2812 23.3154 25.3732 24.5576 25.364C27.7093 25.3549 30.8518 25.364 34.0035 25.364C34.6246 25.364 35.1437 25.6117 35.6072 26.0428C35.6814 25.9877 35.7462 25.951 35.8019 25.8961C36.219 25.5291 36.7103 25.3549 37.2665 25.3549C40.3904 25.3549 43.5144 25.3549 46.6383 25.3549C47.9268 25.3549 48.8167 26.2538 48.826 27.5287C48.826 28.2717 48.8352 29.0238 48.826 29.7668C48.826 30.0145 48.9094 30.0787 49.1504 30.0787C49.8827 30.0695 50.6058 30.0695 51.3381 30.0787C51.8294 30.0787 52.0055 30.2529 52.0055 30.7391C52.0055 33.7843 52.0055 36.8387 52.0055 39.884C52.0055 40.3517 51.8201 40.526 51.3566 40.5352C51.0693 40.5352 50.7819 40.5352 50.4575 40.5352C50.4575 41.2323 50.4575 41.9111 50.4575 42.6082C52.1909 42.6082 53.9151 42.6082 55.6856 42.6082C55.6949 42.4889 55.7042 42.3697 55.7042 42.2504C55.7042 32.9037 55.7042 23.5662 55.7135 14.2195C55.7135 13.9077 55.6208 13.8344 55.3241 13.8435C54.1283 13.8618 52.9418 13.8527 51.746 13.8527C51.0415 13.8527 50.8653 13.6325 51.0322 12.9721C51.5235 11.0276 52.0148 9.08301 52.5061 7.13849C52.6359 6.62482 52.7657 6.52393 53.3033 6.52393C55.2592 6.52393 57.2152 6.52393 59.1711 6.52393C59.718 6.52393 59.8478 6.61566 59.9776 7.12933C60.4781 9.11053 60.9787 11.0918 61.4793 13.0638C61.6091 13.5958 61.4051 13.8527 60.8582 13.8527C59.6439 13.8527 58.4295 13.8527 57.2152 13.8527C57.0947 13.8527 56.9649 13.8527 56.8166 13.8527C56.8166 23.4562 56.8166 33.023 56.8166 42.6357C56.9556 42.6357 57.0947 42.6357 57.2244 42.6357C59.4492 42.6357 61.6647 42.6357 63.8894 42.6357C64.0007 42.6357 64.1212 42.6265 64.2324 42.6448C64.5198 42.6907 64.6959 42.8741 64.6959 43.1585C64.6959 43.4337 64.5383 43.6079 64.2695 43.6721C64.1583 43.6996 64.0378 43.6905 63.9265 43.6905C42.9674 43.6905 22.0084 43.6905 1.04004 43.6905C0.93808 43.6905 0.826843 43.6996 0.724854 43.6813C0.428223 43.6354 0.233551 43.4245 0.252106 43.1401C0.27063 42.8466 0.446777 42.6815 0.734131 42.6448C0.83609 42.6265 0.93808 42.6357 1.04932 42.6357C2.36563 42.6357 3.69119 42.6448 5.00754 42.6265C5.18365 42.6265 5.39685 42.5348 5.51736 42.4155C6.86148 41.1039 8.19635 39.7831 9.52194 38.4531C9.6517 38.3246 9.74442 38.1045 9.74442 37.9211C9.76294 36.8295 9.75366 35.7472 9.75366 34.6557C9.73514 34.5548 9.73514 34.4355 9.73514 34.2796ZM20.312 39.4895C30.5551 39.4895 40.7334 39.4895 50.921 39.4895C50.9302 39.4254 50.9488 39.3886 50.9488 39.3428C50.9488 36.6828 50.9488 34.0228 50.958 31.3628C50.958 31.1426 50.8468 31.1243 50.6707 31.1243C50.1886 31.1335 49.6973 31.1426 49.2153 31.1151C48.9094 31.0968 48.826 31.1885 48.826 31.5004C48.8445 33.2339 48.8352 34.9584 48.8352 36.692C48.8352 37.2423 48.6776 37.3982 48.1029 37.3982C39.7786 37.3982 31.4636 37.3982 23.1393 37.3982C22.5831 37.3982 22.4163 37.2331 22.4163 36.6828C22.4163 34.9492 22.407 33.2248 22.4255 31.4912C22.4255 31.216 22.3606 31.106 22.064 31.1151C21.6098 31.1426 21.1648 31.1426 20.7106 31.1151C20.3954 31.0968 20.3027 31.1977 20.3027 31.5187C20.312 34.0503 20.312 36.5819 20.312 39.1226C20.312 39.2419 20.312 39.3519 20.312 39.4895ZM29.2574 33.2248C31.0928 33.2248 32.9375 33.2248 34.7729 33.2248C35.0232 33.2248 35.1159 33.1606 35.1159 32.9037C35.1066 31.1243 35.1159 29.354 35.1066 27.5746C35.1066 26.8408 34.6802 26.428 33.9386 26.4189C30.8425 26.4189 27.7371 26.4189 24.641 26.4189C23.8994 26.4189 23.473 26.8316 23.473 27.5654C23.473 29.3265 23.4823 31.0968 23.4637 32.8579C23.4637 33.1514 23.5564 33.2248 23.8438 33.2248C25.6514 33.2248 27.459 33.2248 29.2574 33.2248ZM47.7599 33.2064C47.7692 33.0872 47.7785 32.9863 47.7785 32.8854C47.7785 31.1243 47.7785 29.354 47.7785 27.593C47.7785 26.8316 47.3706 26.428 46.5919 26.428C43.5144 26.428 40.4368 26.428 37.3592 26.428C36.5713 26.428 36.1634 26.8316 36.1634 27.6113C36.1634 29.3632 36.1634 31.1151 36.1634 32.8762C36.1634 32.9863 36.1727 33.0964 36.1819 33.2064C40.066 33.2064 43.8944 33.2064 47.7599 33.2064ZM21.9157 42.6173C31.0742 42.6173 40.205 42.6173 49.3358 42.6173C49.3358 41.9202 49.3358 41.2506 49.3358 40.5811C40.1772 40.5811 31.0557 40.5811 21.9157 40.5811C21.9157 41.269 21.9157 41.9385 21.9157 42.6173ZM60.2835 12.7887C60.2649 12.6786 60.265 12.6236 60.2557 12.5685C59.8571 10.9909 59.4585 9.41321 59.0691 7.83557C59.0135 7.59711 58.8745 7.56958 58.6705 7.56958C57.0483 7.57874 55.4354 7.57874 53.8131 7.56958C53.5536 7.56958 53.4516 7.65216 53.396 7.89978C53.0438 9.349 52.6729 10.7891 52.3022 12.2383C52.2558 12.4126 52.228 12.5869 52.1816 12.7979C54.8977 12.7887 57.5767 12.7887 60.2835 12.7887ZM35.0881 36.3526C35.0881 35.6463 35.0881 34.9859 35.0881 34.3071C31.2133 34.3071 27.3663 34.3071 23.5101 34.3071C23.5101 35.0042 23.5101 35.6738 23.5101 36.3526C27.3663 36.3526 31.2133 36.3526 35.0881 36.3526ZM36.1819 36.3434C40.066 36.3434 43.9037 36.3434 47.7599 36.3434C47.7599 35.6463 47.7599 34.9767 47.7599 34.3071C43.8944 34.3071 40.0475 34.3071 36.1819 34.3071C36.1819 34.9859 36.1819 35.6463 36.1819 36.3434ZM7.77921 29.5742C7.76993 29.6292 7.7514 29.6475 7.76065 29.6659C7.9646 30.7849 8.1778 31.8948 8.37247 33.0138C8.40955 33.2248 8.54858 33.2156 8.70618 33.2156C9.46631 33.2156 10.2357 33.2156 10.9958 33.2156C11.3574 33.2156 11.8301 33.3257 12.0341 33.1514C12.2565 32.9588 12.2473 32.4818 12.3121 32.1241C12.479 31.2802 12.6273 30.4364 12.7849 29.565C11.0978 29.5742 9.44778 29.5742 7.77921 29.5742ZM5.58224 15.6505C5.32269 16.9988 5.70276 18.9617 6.42581 20.0532C6.52777 20.2 6.65756 20.3467 6.7966 20.4568C7.35278 20.8879 8.14999 20.8604 8.68765 20.4109C9.24384 19.934 9.38287 19.1635 9.00281 18.5123C8.23343 17.2098 7.11179 16.3109 5.73984 15.6871C5.70276 15.6688 5.6564 15.6688 5.58224 15.6505ZM14.1847 19.0626C13.1835 19.5487 12.4234 20.1725 11.9321 21.0714C11.6911 21.5024 11.8487 22.0161 12.2565 22.2729C12.6458 22.5206 13.2113 22.4747 13.4709 22.0895C14.0919 21.2089 14.2495 20.2 14.1847 19.0626ZM6.88004 42.6265C7.84409 42.6265 8.77106 42.6265 9.69806 42.6265C9.69806 41.6818 9.69806 40.7553 9.69806 39.8381C8.75253 40.7645 7.83481 41.6725 6.88004 42.6265ZM13.5543 42.6173C12.6458 41.7184 11.7189 40.8012 10.829 39.9114C10.829 40.7553 10.829 41.6818 10.829 42.6173C11.7745 42.6173 12.7015 42.6173 13.5543 42.6173Z" fill="#E96E8B" fill-opacity="1.000000" fill-rule="nonzero"/>
	<path id="Vector" d="M35.6536 18.5673C32.5667 18.5673 29.4706 18.5673 26.3837 18.5673C25.7441 18.5673 25.6051 18.4297 25.6051 17.806C25.6051 13.2565 25.6051 8.70697 25.6051 4.14825C25.6051 3.54291 25.7534 3.38696 26.3559 3.38696C32.5482 3.38696 38.7404 3.38696 44.9326 3.38696C45.5352 3.38696 45.6835 3.54291 45.6835 4.14825C45.6835 8.69775 45.6835 13.2473 45.6835 17.806C45.6835 18.4114 45.5352 18.5581 44.9326 18.5581C41.8273 18.5673 38.7404 18.5673 35.6536 18.5673ZM26.6804 12.0182C26.8009 11.9081 26.8936 11.8347 26.9677 11.7614C27.561 11.1835 28.145 10.5965 28.7383 10.0095C29.2018 9.55084 29.3964 9.55084 29.8599 10.0186C32.3072 12.4401 34.7544 14.8616 37.1924 17.2923C37.3592 17.4574 37.5261 17.5308 37.7671 17.5308C39.9177 17.5216 42.0683 17.5308 44.2189 17.5216C44.3394 17.5216 44.4599 17.5125 44.5804 17.5033C44.5804 13.1372 44.5804 8.79871 44.5804 4.46014C44.4691 4.45099 44.3857 4.44177 44.3116 4.44177C38.5365 4.44177 32.7614 4.44177 26.9955 4.43262C26.7174 4.43262 26.6433 4.5152 26.6433 4.78119C26.6526 7.08344 26.6526 9.38568 26.6526 11.688C26.6526 11.7797 26.6618 11.8715 26.6804 12.0182ZM35.7926 17.5033C33.6049 15.3386 31.4265 13.1831 29.2203 10.9909C28.4231 11.7889 27.5888 12.6144 26.7638 13.4491C26.6896 13.5225 26.6526 13.6509 26.6526 13.7518C26.6433 14.9442 26.6526 16.1366 26.6526 17.329C26.6526 17.384 26.6711 17.4391 26.6896 17.5033C29.7394 17.5033 32.7799 17.5033 35.7926 17.5033Z" fill="#E96E8B" fill-opacity="1.000000" fill-rule="nonzero"/>
	<path id="Vector" d="M12.9054 6.23041C12.9054 4.47845 12.9054 2.72656 12.9054 0.965454C12.9054 0.4151 13.0723 0.25 13.6285 0.25C16.669 0.25 19.7188 0.25 22.7592 0.25C23.2969 0.25 23.473 0.4151 23.473 0.947083C23.473 4.49683 23.473 8.05573 23.473 11.6054C23.473 12.1191 23.2969 12.2842 22.787 12.2842C19.728 12.2842 16.6783 12.2842 13.6192 12.2842C13.0723 12.2842 12.9054 12.1191 12.9054 11.5596C12.9054 9.78015 12.9054 8.00983 12.9054 6.23041ZM19.6353 1.31403C20.6086 3.27692 20.5901 5.18475 19.3016 6.95502C18.0038 8.74365 16.1777 9.37653 13.9807 9.0647C13.9807 9.78931 13.9807 10.5048 13.9807 11.2202C16.7987 11.2202 19.589 11.2202 22.3885 11.2202C22.3885 7.89978 22.3885 4.61609 22.3885 1.31403C21.4707 1.31403 20.5716 1.31403 19.6353 1.31403ZM13.9622 4.64355C13.9622 5.66174 13.9715 6.67987 13.9529 7.698C13.9529 7.91815 14.0271 7.99152 14.2403 8.03735C15.8996 8.3584 17.633 7.62463 18.5693 6.19373C19.4963 4.77197 19.4685 2.87329 18.4859 1.53412C18.3932 1.41492 18.1892 1.30481 18.0409 1.30481C16.7895 1.2865 15.5473 1.30481 14.2959 1.2865C14.0363 1.2865 13.9529 1.35071 13.9622 1.6167C13.9715 2.62567 13.9622 3.63464 13.9622 4.64355Z" fill="#E96E8B" fill-opacity="1.000000" fill-rule="nonzero"/>
	<path id="Vector" d="M20.312 39.4895C20.312 39.3519 20.312 39.2327 20.312 39.1226C20.312 36.5911 20.3213 34.0594 20.3027 31.5187C20.3027 31.1977 20.3954 31.0968 20.7106 31.1151C21.1648 31.1426 21.6098 31.1426 22.064 31.1151C22.3606 31.0968 22.4255 31.216 22.4255 31.4912C22.4163 33.2248 22.4163 34.9492 22.4163 36.6828C22.4163 37.2423 22.5739 37.3982 23.1393 37.3982C31.4636 37.3982 39.7786 37.3982 48.1029 37.3982C48.6684 37.3982 48.826 37.2423 48.8352 36.692C48.8352 34.9584 48.8445 33.2339 48.826 31.5004C48.826 31.1977 48.9094 31.106 49.2153 31.1151C49.6973 31.1426 50.1886 31.1243 50.6707 31.1243C50.8375 31.1243 50.958 31.1426 50.958 31.3628C50.9488 34.0228 50.958 36.6828 50.9488 39.3428C50.9488 39.3886 50.9302 39.4254 50.921 39.4895C40.7334 39.4895 30.5551 39.4895 20.312 39.4895Z" fill="#FFFFFF" fill-opacity="1.000000" fill-rule="nonzero"/>
	<path id="Vector" d="M21.9157 42.6173C21.9157 41.9385 21.9157 41.269 21.9157 40.5811C31.0557 40.5811 40.1772 40.5811 49.3358 40.5811C49.3358 41.2506 49.3358 41.9202 49.3358 42.6173C40.205 42.6173 31.0742 42.6173 21.9157 42.6173Z" fill="#FFFFFF" fill-opacity="1.000000" fill-rule="nonzero"/>
	<path id="Vector" d="M7.77921 29.5742C9.44778 29.5742 11.0978 29.5742 12.7849 29.5742C12.6273 30.4456 12.479 31.2894 12.3122 32.1333C12.2473 32.491 12.2566 32.968 12.0341 33.1606C11.8301 33.3441 11.3481 33.2249 10.9958 33.2249C10.2357 33.2249 9.46634 33.2249 8.70621 33.2249C8.54861 33.2249 8.40958 33.234 8.3725 33.023C8.17783 31.904 7.96463 30.7941 7.76068 29.6751C7.7514 29.6567 7.76065 29.6292 7.77921 29.5742Z" fill="#FFFFFF" fill-opacity="1.000000" fill-rule="nonzero"/>
	<path id="Vector" d="M5.58224 15.6505C5.64713 15.6596 5.70276 15.6689 5.73984 15.678C7.11176 16.3018 8.23343 17.2006 9.00281 18.5031C9.38287 19.1544 9.24384 19.934 8.68762 20.4018C8.14999 20.8513 7.35278 20.8788 6.7966 20.4477C6.65753 20.3376 6.52777 20.2 6.42581 20.0441C5.70276 18.9617 5.32269 16.9988 5.58224 15.6505Z" fill="#FFFFFF" fill-opacity="1.000000" fill-rule="nonzero"/>
	<path id="Vector" d="M14.1847 19.0626C14.2495 20.2 14.0919 21.209 13.4709 22.0987C13.2021 22.4839 12.6459 22.5298 12.2565 22.2821C11.8487 22.0253 11.7003 21.5025 11.9321 21.0806C12.4234 20.1725 13.1835 19.5396 14.1847 19.0626Z" fill="#FFFFFF" fill-opacity="1.000000" fill-rule="nonzero"/>
	<path id="Vector" d="M6.88004 42.6265C7.83481 41.6818 8.76181 40.7645 9.69806 39.8381C9.69806 40.7645 9.69806 41.6818 9.69806 42.6265C8.77106 42.6265 7.84409 42.6265 6.88004 42.6265Z" fill="#FFFFFF" fill-opacity="1.000000" fill-rule="nonzero"/>
	<path id="Vector" d="M13.5543 42.6173C12.7015 42.6173 11.7745 42.6173 10.829 42.6173C10.829 41.6818 10.829 40.7645 10.829 39.9114C11.7189 40.8012 12.6458 41.7184 13.5543 42.6173Z" fill="#FFFFFF" fill-opacity="1.000000" fill-rule="nonzero"/>
	<path id="Vector" d="M35.1159 10.1929C35.1159 8.17493 36.7659 6.53308 38.8053 6.53308C40.8539 6.53308 42.5132 8.18408 42.504 10.2204C42.4947 12.2383 40.8354 13.871 38.796 13.8618C36.7567 13.8527 35.1067 12.2108 35.1159 10.1929ZM36.1634 10.202C36.1634 11.6513 37.3592 12.8253 38.8239 12.8162C40.2699 12.807 41.4472 11.6238 41.4379 10.1929C41.4379 8.76196 40.2514 7.58789 38.8053 7.58789C37.3499 7.57874 36.1634 8.75281 36.1634 10.202Z" fill="#E96E8B" fill-opacity="1.000000" fill-rule="nonzero"/>
	<path id="Vector" d="M6.45361 34.2796C6.18478 34.2796 5.92523 34.2796 5.6564 34.2796C5.23926 34.2704 4.98898 34.0687 4.98898 33.7385C4.99826 33.4174 5.23001 33.2248 5.63788 33.2248C6.17551 33.2156 6.72244 33.2248 7.32498 33.2248C7.27863 32.9313 7.23227 32.6744 7.18594 32.4268C6.99127 31.3903 6.7966 30.3538 6.60193 29.3173C6.49997 28.7487 6.68536 28.5285 7.26935 28.5193C7.74213 28.5193 8.21487 28.5193 8.6969 28.5102C8.71545 28.5102 8.73398 28.4918 8.79889 28.4735C8.60422 26.2629 8.40955 24.0432 8.2056 21.796C7.89972 21.796 7.62161 21.8235 7.35278 21.7868C6.54633 21.6768 5.91595 21.2731 5.50809 20.576C4.4884 18.8241 4.23813 16.9346 4.60892 14.9625C4.71088 14.4397 4.97971 14.2838 5.48956 14.4672C7.36206 15.1276 8.86377 16.2559 9.89273 17.9619C10.5416 19.0351 10.347 20.3009 9.43851 21.1722C9.33652 21.264 9.24384 21.4382 9.25311 21.5667C9.44775 23.8414 9.6517 26.1161 9.85565 28.3818C9.85565 28.4185 9.87418 28.446 9.88345 28.501C10.1337 28.501 10.3748 28.501 10.6621 28.501C10.727 27.8956 10.8011 27.2994 10.8661 26.694C10.9958 25.5108 11.1349 24.3276 11.2554 23.1351C11.2739 22.9792 11.2183 22.7958 11.1349 22.6674C10.6528 21.9335 10.6158 21.1814 11.07 20.4293C11.8208 19.191 12.924 18.3747 14.2866 17.8885C14.7686 17.7142 15.0375 17.8793 15.1302 18.3839C15.399 19.7505 15.2229 21.053 14.5833 22.2913C14.1383 23.1443 13.4338 23.5571 12.4604 23.4562C12.4141 23.4562 12.3678 23.4562 12.2751 23.4562C12.0897 25.1347 11.9043 26.7949 11.7096 28.5193C12.238 28.5193 12.7293 28.5193 13.2206 28.5193C13.8046 28.5193 13.9992 28.7487 13.888 29.3082C13.6748 30.4456 13.4616 31.5829 13.2484 32.7203C13.2206 32.8671 13.2021 33.0138 13.165 33.2248C13.5265 33.2248 13.8509 33.2248 14.1847 33.2248C14.4627 33.2248 14.7408 33.2156 15.0189 33.2339C15.3248 33.2523 15.5195 33.4633 15.5288 33.7385C15.5288 34.0136 15.3341 34.2245 15.0375 34.2613C14.9355 34.2704 14.8335 34.2704 14.7223 34.2704C13.5543 34.2704 12.3863 34.2704 11.2183 34.2704C11.0885 34.2704 10.968 34.2704 10.8104 34.2704C10.8012 34.3989 10.7826 34.4906 10.7826 34.5915C10.7826 35.7105 10.7733 36.8387 10.7919 37.9578C10.7919 38.1229 10.8753 38.3155 10.9958 38.4347C12.3307 39.7739 13.6748 41.1039 15.0189 42.4247C15.1209 42.5256 15.2878 42.6265 15.4268 42.6265C17.1602 42.6357 18.903 42.6357 20.6364 42.6357C20.6828 42.6357 20.7292 42.6265 20.794 42.6082C20.794 41.9294 20.794 41.2598 20.794 40.5444C20.4789 40.5444 20.1729 40.5444 19.867 40.5444C19.4406 40.5352 19.2367 40.3517 19.2367 39.939C19.2367 36.8571 19.2367 33.7751 19.2367 30.684C19.2367 30.2712 19.4406 30.0787 19.867 30.0787C20.5808 30.0695 21.3039 30.0603 22.0176 30.0878C22.3513 30.097 22.4255 29.9777 22.4163 29.675C22.3977 28.9504 22.407 28.235 22.407 27.5104C22.4163 26.2812 23.3154 25.3732 24.5576 25.364C27.7093 25.3549 30.8518 25.364 34.0035 25.364C34.6246 25.364 35.1437 25.6117 35.6072 26.0428C35.6814 25.9877 35.7462 25.951 35.8019 25.8961C36.219 25.5291 36.7103 25.3549 37.2665 25.3549C40.3904 25.3549 43.5144 25.3549 46.6383 25.3549C47.9268 25.3549 48.8167 26.2538 48.826 27.5287C48.826 28.2717 48.8352 29.0238 48.826 29.7668C48.826 30.0145 48.9094 30.0787 49.1504 30.0787C49.8827 30.0695 50.6058 30.0695 51.3381 30.0787C51.8294 30.0787 52.0055 30.2529 52.0055 30.7391C52.0055 33.7843 52.0055 36.8387 52.0055 39.884C52.0055 40.3517 51.8201 40.526 51.3566 40.5352C51.0693 40.5352 50.7819 40.5352 50.4575 40.5352C50.4575 41.2323 50.4575 41.9111 50.4575 42.6082C52.1909 42.6082 53.9151 42.6082 55.6856 42.6082C55.6949 42.4889 55.7042 42.3697 55.7042 42.2504C55.7042 32.9037 55.7042 23.5662 55.7135 14.2195C55.7135 13.9077 55.6208 13.8344 55.3241 13.8435C54.1283 13.8618 52.9418 13.8527 51.746 13.8527C51.0415 13.8527 50.8653 13.6325 51.0322 12.9721C51.5235 11.0276 52.0148 9.08301 52.5061 7.13849C52.6359 6.62482 52.7657 6.52393 53.3033 6.52393C55.2592 6.52393 57.2152 6.52393 59.1711 6.52393C59.718 6.52393 59.8478 6.61566 59.9776 7.12933C60.4781 9.11053 60.9787 11.0918 61.4793 13.0638C61.6091 13.5958 61.4051 13.8527 60.8582 13.8527C59.6439 13.8527 58.4295 13.8527 57.2152 13.8527C57.0947 13.8527 56.9649 13.8527 56.8166 13.8527C56.8166 23.4562 56.8166 33.023 56.8166 42.6357C56.9556 42.6357 57.0947 42.6357 57.2244 42.6357C59.4492 42.6357 61.6647 42.6357 63.8894 42.6357C64.0007 42.6357 64.1212 42.6265 64.2324 42.6448C64.5198 42.6907 64.6959 42.8741 64.6959 43.1585C64.6959 43.4337 64.5383 43.6079 64.2695 43.6721C64.1583 43.6996 64.0378 43.6905 63.9265 43.6905C42.9674 43.6905 22.0084 43.6905 1.04004 43.6905C0.93808 43.6905 0.826843 43.6996 0.724854 43.6813C0.428223 43.6354 0.233551 43.4245 0.252106 43.1401C0.27063 42.8466 0.446777 42.6815 0.734131 42.6448C0.83609 42.6265 0.93808 42.6357 1.04932 42.6357C2.36563 42.6357 3.69119 42.6448 5.00754 42.6265C5.18365 42.6265 5.39685 42.5348 5.51736 42.4155C6.86148 41.1039 8.19635 39.7831 9.52194 38.4531C9.6517 38.3246 9.74442 38.1045 9.74442 37.9211C9.76294 36.8295 9.75366 35.7472 9.75366 34.6557C9.73514 34.5548 9.73514 34.4355 9.73514 34.2796C8.60422 34.2796 7.5289 34.2796 6.45361 34.2796ZM22.4255 31.4912C22.4255 31.216 22.3606 31.0968 22.064 31.1151C21.6098 31.1426 21.1648 31.1426 20.7106 31.1151C20.3954 31.0968 20.3027 31.1977 20.3027 31.5187C20.312 34.0503 20.312 36.5819 20.312 39.1226C20.312 39.2419 20.312 39.3519 20.312 39.4895C30.5551 39.4895 40.7334 39.4895 50.921 39.4895C50.9302 39.4254 50.9488 39.3886 50.9488 39.3428C50.9488 36.6828 50.9488 34.0228 50.958 31.3628C50.958 31.1426 50.8468 31.1243 50.6707 31.1243C50.1886 31.1243 49.6973 31.1426 49.2153 31.1151M50.6707 31.1243C50.1886 31.1335 49.6973 31.1426 49.2153 31.1151C48.9094 31.0968 48.826 31.1885 48.826 31.5004C48.8445 33.2339 48.8352 34.9584 48.8352 36.692C48.8352 37.2423 48.6776 37.3982 48.1029 37.3982C39.7786 37.3982 31.4636 37.3982 23.1393 37.3982C22.5831 37.3982 22.4163 37.2331 22.4163 36.6828C22.4163 34.9492 22.407 33.2248 22.4255 31.4912M22.4163 36.6828C22.4163 34.9492 22.4163 33.2248 22.4255 31.4912C22.4255 31.216 22.3606 31.106 22.064 31.1151M34.7729 33.2248C35.0232 33.2248 35.1159 33.1606 35.1159 32.9037C35.1066 31.1243 35.1159 29.354 35.1066 27.5746C35.1066 26.8408 34.6802 26.428 33.9386 26.4189C30.8425 26.4189 27.7371 26.4189 24.641 26.4189C23.8994 26.4189 23.473 26.8316 23.473 27.5654C23.473 29.3265 23.4823 31.0968 23.4637 32.8579C23.4637 33.1514 23.5564 33.2248 23.8438 33.2248C25.6514 33.2248 27.459 33.2248 29.2574 33.2248C31.0928 33.2248 32.9375 33.2248 34.7729 33.2248ZM47.7785 32.8854C47.7785 31.1243 47.7785 29.354 47.7785 27.593C47.7785 26.8316 47.3706 26.428 46.5919 26.428C43.5144 26.428 40.4368 26.428 37.3592 26.428C36.5713 26.428 36.1634 26.8316 36.1634 27.6113C36.1634 29.3632 36.1634 31.1151 36.1634 32.8762C36.1634 32.9863 36.1727 33.0964 36.1819 33.2064C40.066 33.2064 43.8944 33.2064 47.7599 33.2064C47.7692 33.0872 47.7785 32.9863 47.7785 32.8854ZM49.3358 42.6173C49.3358 41.9202 49.3358 41.2506 49.3358 40.5811C40.1772 40.5811 31.0557 40.5811 21.9157 40.5811C21.9157 41.269 21.9157 41.9385 21.9157 42.6173C31.0742 42.6173 40.205 42.6173 49.3358 42.6173ZM60.2557 12.5685C59.8571 10.9909 59.4585 9.41321 59.0691 7.83557C59.0135 7.59711 58.8745 7.56958 58.6705 7.56958C57.0483 7.57874 55.4354 7.57874 53.8131 7.56958C53.5536 7.56958 53.4516 7.65216 53.396 7.89978C53.0438 9.349 52.6729 10.7891 52.3022 12.2383C52.2558 12.4126 52.228 12.5869 52.1816 12.7979C54.8977 12.7887 57.5767 12.7887 60.2835 12.7887C60.2649 12.6786 60.265 12.6236 60.2557 12.5685ZM35.0881 34.3071C31.2133 34.3071 27.3663 34.3071 23.5101 34.3071C23.5101 35.0042 23.5101 35.6738 23.5101 36.3526C27.3663 36.3526 31.2133 36.3526 35.0881 36.3526C35.0881 35.6463 35.0881 34.9859 35.0881 34.3071ZM47.7599 36.3434C47.7599 35.6463 47.7599 34.9767 47.7599 34.3071C43.8944 34.3071 40.0475 34.3071 36.1819 34.3071C36.1819 34.9859 36.1819 35.6463 36.1819 36.3434C40.066 36.3434 43.9037 36.3434 47.7599 36.3434ZM7.77921 29.5742C7.76993 29.6292 7.7514 29.6475 7.76065 29.6659C7.9646 30.7849 8.1778 31.8948 8.37247 33.0138C8.40955 33.2248 8.54858 33.2156 8.70618 33.2156C9.46631 33.2156 10.2357 33.2156 10.9958 33.2156C11.3574 33.2156 11.8301 33.3257 12.0341 33.1514C12.2565 32.9588 12.2473 32.4818 12.3121 32.1241C12.479 31.2802 12.6273 30.4364 12.7849 29.565C11.0978 29.5742 9.44778 29.5742 7.77921 29.5742C7.76065 29.6292 7.7514 29.6567 7.76068 29.6751C7.96463 30.7941 8.17783 31.904 8.3725 33.023C8.40958 33.234 8.54861 33.2249 8.70621 33.2249C9.46634 33.2249 10.2357 33.2249 10.9958 33.2249C11.3481 33.2249 11.8301 33.3441 12.0341 33.1606C12.2566 32.968 12.2473 32.491 12.3122 32.1333C12.479 31.2894 12.6273 30.4456 12.7849 29.5742C11.0978 29.5742 9.44778 29.5742 7.77921 29.5742M5.58224 15.6505C5.32269 16.9988 5.70276 18.9617 6.42581 20.0441C6.52777 20.2 6.65753 20.3376 6.7966 20.4477C7.35278 20.8788 8.14999 20.8513 8.68762 20.4018C9.24384 19.934 9.38287 19.1544 9.00281 18.5031C8.23343 17.2006 7.11176 16.3018 5.73984 15.678C5.70276 15.6689 5.64713 15.6596 5.58224 15.6505C5.32269 16.9988 5.70276 18.9617 6.42581 20.0532C6.52777 20.2 6.65756 20.3467 6.7966 20.4568C7.35278 20.8879 8.14999 20.8604 8.68765 20.4109C9.24384 19.934 9.38287 19.1635 9.00281 18.5123C8.23343 17.2098 7.11179 16.3109 5.73984 15.6871C5.70276 15.6688 5.6564 15.6688 5.58224 15.6505M14.1847 19.0626C13.1835 19.5487 12.4234 20.1725 11.9321 21.0714C11.6911 21.5024 11.8487 22.0161 12.2565 22.2729C12.6458 22.5206 13.2113 22.4747 13.4709 22.0895C14.0919 21.2089 14.2495 20.2 14.1847 19.0626C13.1835 19.5396 12.4234 20.1725 11.9321 21.0806C11.7003 21.5025 11.8487 22.0253 12.2565 22.2821C12.6459 22.5298 13.2021 22.4839 13.4709 22.0987C14.0919 21.209 14.2495 20.2 14.1847 19.0626M9.69806 42.6265C9.69806 41.6818 9.69806 40.7553 9.69806 39.8381C8.75253 40.7645 7.83481 41.6725 6.88004 42.6265C7.84409 42.6265 8.77106 42.6265 9.69806 42.6265ZM10.829 39.9114C10.829 40.7553 10.829 41.6818 10.829 42.6173C11.7745 42.6173 12.7015 42.6173 13.5543 42.6173C12.6458 41.7184 11.7189 40.8012 10.829 39.9114ZM26.3837 18.5673C25.7441 18.5673 25.6051 18.4297 25.6051 17.806C25.6051 13.2565 25.6051 8.70697 25.6051 4.14825C25.6051 3.54291 25.7534 3.38696 26.3559 3.38696C32.5482 3.38696 38.7404 3.38696 44.9326 3.38696C45.5352 3.38696 45.6835 3.54291 45.6835 4.14825C45.6835 8.69775 45.6835 13.2473 45.6835 17.806C45.6835 18.4114 45.5352 18.5581 44.9326 18.5581C41.8273 18.5673 38.7404 18.5673 35.6536 18.5673C32.5667 18.5673 29.4706 18.5673 26.3837 18.5673ZM26.9677 11.7614C27.561 11.1835 28.145 10.5965 28.7383 10.0095C29.2018 9.55084 29.3964 9.55084 29.8599 10.0186C32.3072 12.4401 34.7544 14.8616 37.1924 17.2923C37.3592 17.4574 37.5261 17.5308 37.7671 17.5308C39.9177 17.5216 42.0683 17.5308 44.2189 17.5216C44.3394 17.5216 44.4599 17.5125 44.5804 17.5033C44.5804 13.1372 44.5804 8.79871 44.5804 4.46014C44.4691 4.45099 44.3857 4.44177 44.3116 4.44177C38.5365 4.44177 32.7614 4.44177 26.9955 4.43262C26.7174 4.43262 26.6433 4.5152 26.6433 4.78119C26.6526 7.08344 26.6526 9.38568 26.6526 11.688C26.6526 11.7797 26.6618 11.8715 26.6804 12.0182C26.8009 11.9081 26.8936 11.8347 26.9677 11.7614ZM29.2203 10.9909C28.4231 11.7889 27.5888 12.6144 26.7638 13.4491C26.6896 13.5225 26.6526 13.6509 26.6526 13.7518C26.6433 14.9442 26.6526 16.1366 26.6526 17.329C26.6526 17.384 26.6711 17.4391 26.6896 17.5033C29.7394 17.5033 32.7799 17.5033 35.7926 17.5033C33.6049 15.3386 31.4265 13.1831 29.2203 10.9909ZM12.9054 0.965454C12.9054 0.4151 13.0723 0.25 13.6285 0.25C16.669 0.25 19.7188 0.25 22.7592 0.25C23.2969 0.25 23.473 0.4151 23.473 0.947083C23.473 4.49683 23.473 8.05573 23.473 11.6054C23.473 12.1191 23.2969 12.2842 22.787 12.2842C19.728 12.2842 16.6783 12.2842 13.6192 12.2842C13.0723 12.2842 12.9054 12.1191 12.9054 11.5596C12.9054 9.78015 12.9054 8.00983 12.9054 6.23041C12.9054 4.47845 12.9054 2.72656 12.9054 0.965454ZM19.3016 6.95502C18.0038 8.74365 16.1777 9.37653 13.9807 9.0647C13.9807 9.78931 13.9807 10.5048 13.9807 11.2202C16.7987 11.2202 19.589 11.2202 22.3885 11.2202C22.3885 7.89978 22.3885 4.61609 22.3885 1.31403C21.4707 1.31403 20.5716 1.31403 19.6353 1.31403C20.6086 3.27692 20.5901 5.18475 19.3016 6.95502ZM13.9529 7.698C13.9529 7.91815 14.0271 7.99152 14.2403 8.03735C15.8996 8.3584 17.633 7.62463 18.5693 6.19373C19.4963 4.77197 19.4685 2.87329 18.4859 1.53412C18.3932 1.41492 18.1892 1.30481 18.0409 1.30481C16.7895 1.2865 15.5473 1.30481 14.2959 1.2865C14.0363 1.2865 13.9529 1.35071 13.9622 1.6167C13.9715 2.62567 13.9622 3.63464 13.9622 4.64355C13.9622 5.66174 13.9715 6.67987 13.9529 7.698ZM20.312 39.4895C20.312 39.3519 20.312 39.2327 20.312 39.1226M20.312 39.1226C20.312 36.5911 20.3213 34.0594 20.3027 31.5187M22.4163 36.6828C22.4163 37.2423 22.5739 37.3982 23.1393 37.3982M48.1029 37.3982C48.6684 37.3982 48.826 37.2423 48.8352 36.692M48.826 31.5004C48.826 31.1977 48.9094 31.106 49.2153 31.1151M50.6707 31.1243C50.8375 31.1243 50.958 31.1426 50.958 31.3628M50.958 31.3628C50.9488 34.0228 50.958 36.6828 50.9488 39.3428M6.88004 42.6265C7.83481 41.6818 8.76181 40.7645 9.69806 39.8381M9.69806 39.8381C9.69806 40.7645 9.69806 41.6818 9.69806 42.6265M10.829 42.6173C10.829 41.6818 10.829 40.7645 10.829 39.9114M38.8053 6.53308C40.8539 6.53308 42.5132 8.18408 42.504 10.2204C42.4947 12.2383 40.8354 13.871 38.796 13.8618C36.7567 13.8527 35.1067 12.2108 35.1159 10.1929C35.1159 8.17493 36.7659 6.53308 38.8053 6.53308ZM38.8239 12.8162C40.2699 12.807 41.4472 11.6238 41.4379 10.1929C41.4379 8.76196 40.2514 7.58789 38.8053 7.58789C37.3499 7.57874 36.1634 8.75281 36.1634 10.202C36.1634 11.6513 37.3592 12.8253 38.8239 12.8162Z" stroke="#E96E8B" stroke-opacity="1.000000" stroke-width="0.500000"/>
</svg>
