<svg width="47.000000" height="48.000000" viewBox="0 0 47 48" fill="none" xmlns="http://www.w3.org/2000/svg" xmlns:xlink="http://www.w3.org/1999/xlink">
	<desc>
			Created with Pixso.
	</desc>
	<defs/>
	<path id="Vector" d="M33.0989 0C33.7142 0.721863 34.3482 1.42499 34.9263 2.16565C36.9215 4.70624 38.8049 7.3219 40.2874 10.2094C40.9027 11.4 41.4808 12.6188 41.6673 13.9688C41.725 14.396 41.7536 14.8154 41.7536 15.2266C41.7536 17.4049 40.9512 19.3517 39.4296 21C36.9215 23.7375 33.7795 24.6656 30.2365 23.5875C26.7308 22.5187 24.6983 20.0062 23.9803 16.4062C23.8943 15.9717 23.855 15.5452 23.855 15.1255C23.855 13.725 24.2936 12.4006 24.9034 11.1094C25.0992 10.6969 25.5094 10.5656 25.8824 10.7438C26.1566 10.8747 26.3047 11.1121 26.3047 11.3999C26.3047 11.5037 26.2855 11.6139 26.246 11.7281C25.9756 12.5062 25.6027 13.2656 25.4628 14.0719C25.3945 14.4754 25.3614 14.8699 25.3614 15.2554C25.3614 17.0286 26.0632 18.6107 27.2809 19.9969C29.3321 22.3312 32.6047 23.1188 35.4484 22.0219C38.2738 20.9221 40.2439 18.192 40.2439 15.1887C40.2439 15.1197 40.2429 15.0505 40.2408 14.9813C40.2128 14.0625 39.9331 13.0969 39.5695 12.2344C37.9285 8.4281 35.4111 5.19373 32.8378 1.93127C32.6979 2.09064 32.5861 2.21252 32.4835 2.34375C31.4393 3.72186 30.4137 5.11877 29.3601 6.48749C29.1923 6.70312 28.9219 6.9281 28.6701 6.96564C28.4743 7.00311 28.176 6.81561 28.0081 6.64685C27.9026 6.53223 27.8563 6.40222 27.8563 6.26819C27.8563 6.1062 27.9239 5.93829 28.0361 5.78436C28.81 4.72498 29.5559 3.65625 30.3577 2.6156C31.0663 1.71564 31.8122 0.871887 32.5394 0L33.0989 0ZM27.0106 9.50623C26.591 9.50623 26.274 9.20624 26.2646 8.77496Q26.2645 8.76587 26.2645 8.7569C26.2645 8.34399 26.5784 8.03424 26.9919 8.02496C27.4021 8.01562 27.7378 8.35309 27.7378 8.75623C27.7379 8.76215 27.738 8.76801 27.738 8.77386C27.738 9.18695 27.4151 9.49701 27.0106 9.50623ZM38.777 15.3563C38.6464 17.0906 37.8539 18.6469 36.3435 19.8187C35.924 20.1375 35.5137 20.1094 35.234 19.7625C35.1185 19.6165 35.0611 19.4599 35.0611 19.3031C35.0611 19.0673 35.1909 18.8308 35.4484 18.6281C36.5952 17.7375 37.2106 16.5563 37.2945 15.1125C37.3318 14.4938 37.6208 14.1469 38.0777 14.1656C38.5293 14.1923 38.7791 14.5235 38.7791 15.2394C38.7791 15.2773 38.7784 15.3162 38.777 15.3563ZM32.8098 21C32.4053 20.9907 32.0824 20.6625 32.0824 20.2579C32.0824 20.2521 32.0825 20.2464 32.0826 20.2406C32.0919 19.8375 32.4276 19.5 32.8378 19.5C33.2387 19.5094 33.5744 19.8563 33.5744 20.2594C33.5557 20.6625 33.2108 21 32.8098 21ZM11.2443 22.9594C11.6545 22.9594 11.9902 23.2875 11.9995 23.6906Q11.9997 23.6984 11.9997 23.7062C11.9997 24.094 11.6587 24.4501 11.2723 24.4594C10.8527 24.4688 10.5078 24.1219 10.5078 23.6906C10.5078 23.2687 10.8247 22.9594 11.2443 22.9594ZM0 25.2188C0.261047 25.0406 0.503479 24.8063 0.792511 24.7031C2.84372 23.9813 4.91354 23.3531 7.08597 23.1094C7.44025 23.0719 7.79456 23.0156 8.14883 22.9875C8.60571 22.9594 8.95999 23.2406 8.99728 23.6625C9.00058 23.6923 9.0022 23.7217 9.0022 23.7507C9.0022 24.1319 8.72195 24.4346 8.2887 24.4781C5.87387 24.6844 3.56161 25.2938 1.29599 26.1188C0.755219 26.3156 0.335663 26.2594 0 25.7812L0 25.2188ZM14.2465 23.3156C15.1509 23.625 16.0739 23.8969 16.969 24.2437C18.2743 24.7593 19.4584 25.4906 20.5586 26.3718C21.4537 27.0844 22.3767 27.7781 23.2904 28.4812C23.6841 28.7797 23.8772 29.0544 23.8772 29.3233C23.8772 29.4683 23.821 29.6117 23.71 29.7562C23.4116 30.15 22.9641 30.1218 22.3674 29.6625C21.1926 28.7625 20.0365 27.8438 18.843 26.9812C17.4725 25.9875 15.9341 25.3406 14.2838 24.9375C14.1346 24.9 13.9761 24.8625 13.8456 24.7875C13.5872 24.6423 13.4403 24.4285 13.4403 24.1615C13.4403 24.101 13.4478 24.0377 13.4633 23.9719C13.5659 23.5781 13.8363 23.4 14.2465 23.3156ZM36.9495 27.9469C36.1197 27.3937 35.0755 27.5156 34.3016 28.0875C32.5115 29.4094 30.712 30.7219 28.9032 32.0062C28.6515 32.1844 28.3065 32.2687 27.9988 32.325C26.7588 32.5406 25.5187 32.7562 24.2787 32.925C23.9524 32.9719 23.5608 32.9156 23.2625 32.7656C20.5213 31.3969 17.7708 30.0656 14.8432 29.1375C13.8922 28.8375 12.8853 28.6969 11.8969 28.5094C11.4721 28.4276 11.1875 28.1519 11.1875 27.7679C11.1875 27.7558 11.1878 27.7436 11.1884 27.7313C11.207 27.3281 11.524 26.9625 11.9529 27.0281C13.0064 27.1875 14.0693 27.3469 15.0856 27.6562C18.0226 28.5469 20.7823 29.8781 23.5235 31.2281C23.7939 31.3594 24.1482 31.425 24.4465 31.3875C25.5654 31.2375 26.6842 31.0312 27.803 30.8344C27.9895 30.7969 28.1853 30.6937 28.3438 30.5812C30.0594 29.3438 31.7749 28.0969 33.4718 26.85C34.9356 25.7719 36.9588 25.8375 38.3481 27.0281C38.64 27.2826 38.7847 27.5089 38.7847 27.7445C38.7847 27.9603 38.6633 28.1838 38.4226 28.4437C35.9519 31.0969 33.1641 33.3937 30.4137 35.7375C30.2458 35.8781 30.0127 35.9719 29.789 36.0281C27.6539 36.5156 25.5281 36.9938 23.393 37.4719C22.9081 37.5844 22.5165 37.3594 22.4047 36.9375C22.3878 36.8727 22.3797 36.8092 22.3797 36.7477C22.3797 36.3993 22.6416 36.113 23.0853 36.0094C25.0339 35.5687 26.9919 35.1469 28.9405 34.6875C29.2855 34.6031 29.6491 34.4344 29.9102 34.2C32.1292 32.2687 34.4508 30.45 36.4647 28.2938C36.5952 28.1437 36.7724 28.0687 36.9495 27.9469ZM41.4901 48C40.4086 47.6344 39.3364 47.25 38.2455 46.8937C33.332 45.3094 28.4184 43.7156 23.4955 42.1875C23.0469 42.0492 22.5561 42.0421 22.0649 42.0349C21.7905 42.0309 21.5159 42.0269 21.2485 42C20.9129 41.9625 20.5679 41.9156 20.2696 41.775C15.3094 39.4125 10.3492 37.0406 5.38907 34.6688C5.17462 34.5656 4.91354 34.5094 4.68048 34.5094C3.48703 34.4906 2.2843 34.4906 1.09088 34.5094C0.634003 34.5187 0.270386 34.4156 0.00933838 34.0312L0.00933838 33.4688C0.270386 33.0844 0.634003 32.9813 1.09088 32.9906C1.79272 33.006 2.49734 33.0046 3.20169 33.0032L3.20245 33.0032C3.78912 33.002 4.37561 33.0009 4.96017 33.0094C5.23987 33.0094 5.54758 33.0844 5.80862 33.2062C10.7688 35.5687 15.729 37.95 20.6985 40.3125C20.9409 40.425 21.2299 40.4906 21.5003 40.4906C22.6005 40.5094 23.71 40.5094 24.8102 40.4906C25.0806 40.4813 25.3603 40.425 25.612 40.3125C31.3647 37.8563 36.8936 34.95 42.3666 31.9406C42.7395 31.7344 43.1218 31.5281 43.56 31.2938C42.4318 30.4594 41.285 30.2531 40.0356 30.6469C39.9611 30.6656 39.8865 30.7031 39.8212 30.7313C39.1219 31.0125 38.7117 30.9281 38.5159 30.4406C38.4763 30.3411 38.4565 30.2463 38.4565 30.1559C38.4565 29.8204 38.7296 29.5466 39.2804 29.325C41.3689 28.4906 43.7931 29.1094 45.1916 30.8344C45.4148 31.1069 45.529 31.34 45.529 31.5484C45.529 31.8275 45.3243 32.0621 44.9026 32.2875C39.0007 35.4562 33.1642 38.7375 26.9826 41.3531C26.8707 41.4 26.7681 41.4656 26.563 41.5687C31.5232 43.1625 36.3994 44.7375 41.2757 46.3031C41.3058 46.1547 41.3204 46.0078 41.3204 45.8641C41.3204 45.0274 40.8245 44.2954 39.989 43.9594C39.3271 43.6969 38.6371 43.4906 37.9658 43.2562C37.5381 43.1053 37.3097 42.833 37.3097 42.5175C37.3097 42.4409 37.3232 42.3618 37.3505 42.2812C37.4996 41.8312 37.9192 41.6625 38.46 41.8406C39.1685 42.075 39.8771 42.3 40.5671 42.5719C41.9746 43.1254 42.8301 44.4957 42.8301 45.9315C42.8301 46.417 42.7324 46.9099 42.5251 47.3812C42.4225 47.6063 42.2174 47.7938 42.0589 48L41.4901 48ZM45.0145 37.7531C44.1847 36.9187 43.2616 36.5625 42.1801 36.6187C42.0123 36.6281 41.8445 36.6562 41.6673 36.675C41.1638 36.7219 40.8282 36.5062 40.7536 36.0844C40.7454 36.0379 40.7413 35.9921 40.7413 35.9474C40.7413 35.5853 41.0048 35.2865 41.4529 35.2031C43.0099 34.9312 44.4364 35.2593 45.6298 36.3093C46.096 36.7219 46.4876 37.2562 46.8233 37.7812C46.9427 37.9674 47 38.143 47 38.301C47 38.636 46.7421 38.8917 46.2732 39C43.0006 39.7875 39.728 40.5562 36.4461 41.3344C35.5883 41.5406 34.7212 41.7375 33.8634 41.9437C33.3413 42.0656 32.9311 41.8594 32.8285 41.4187C32.8138 41.3568 32.8065 41.296 32.8065 41.2369C32.8065 40.8849 33.0634 40.595 33.5184 40.4906C37.2013 39.6187 40.8841 38.7468 44.567 37.8656C44.6975 37.8469 44.8187 37.8093 45.0145 37.7531Z" fill="#E96E8B" fill-opacity="1.000000" fill-rule="evenodd"/>
</svg>
