<svg width="15.000000" height="15.000000" viewBox="0 0 15 15" fill="none" xmlns="http://www.w3.org/2000/svg" xmlns:xlink="http://www.w3.org/1999/xlink">
	<desc>
			Created with Pixso.
	</desc>
	<defs>
		<clipPath id="clip57_1278">
			<rect id="icon" width="15.000000" height="15.000000" transform="matrix(-1 0 0 1 15 0)" fill="white" fill-opacity="0"/>
		</clipPath>
	</defs>
	<g clip-path="url(#clip57_1278)">
		<path id="Vector" d="M5.75 4.18747C5.8125 4.37497 5.8125 4.56247 5.75 4.75C5.6875 4.9375 5.625 5.125 5.5 5.25L4.3125 6.8125C5.125 8.5 6.5 9.8125 8.1875 10.6875L9.6875 9.56253C9.8125 9.43753 10 9.31253 10.1875 9.25003C10.375 9.18753 10.625 9.18753 10.8125 9.25003L13.25 9.625C13.5625 9.6875 13.8125 9.8125 14 10.0625C14.1875 10.3125 14.3125 10.5625 14.3125 10.875L14.3125 13.25C14.3125 13.5625 14.1875 13.8125 14 14C13.8125 14.1875 13.5 14.3125 13.25 14.3125C9.875 14.3125 6.6875 13 4.3125 10.625C1.9375 8.25 0.625 5.06247 0.625 1.68747C0.625 1.37497 0.75 1.125 0.9375 0.9375C1.125 0.75 1.4375 0.625 1.6875 0.625L4.0625 0.625C4.375 0.625 4.6875 0.75 4.875 0.9375C5.125 1.1875 5.3125 1.43753 5.375 1.75003L5.75 4.18747Z" stroke="#FACCD7" stroke-opacity="1.000000" stroke-width="1.000000" stroke-linejoin="round"/>
	</g>
</svg>
