<svg width="109.078857" height="84.013916" viewBox="0 0 109.079 84.0139" fill="none" xmlns="http://www.w3.org/2000/svg" xmlns:xlink="http://www.w3.org/1999/xlink">
	<desc>
			Created with Pixso.
	</desc>
	<defs/>
	<path id="Vector" d="M108.676 19.292C108.06 14.7654 106.819 10.8308 104.89 7.25171C103.502 4.69238 101.903 2.70679 99.9828 1.18604C98.8618 0.30249 97.8235 -0.0710449 96.7116 0.0109863C96.4819 0.0292969 96.2521 0.0383301 96.0316 0.0566406C95.8295 0.0656738 95.6273 0.074707 95.4343 0.0930176C91.8231 0.375244 88.5427 1.68677 85.6849 3.99097C83.0386 6.12231 80.8792 8.90918 78.8852 12.7527C77.1025 16.1863 75.5771 20.0662 74.0978 24.9478C73.4637 27.0334 72.8481 29.1555 72.2508 31.2139C71.5708 33.5637 70.8633 36.0046 70.1282 38.3816C68.3179 44.2471 66.6088 48.6096 64.5689 52.5349C63.5305 54.5295 62.0695 57.0979 59.9469 59.3293C59.1842 60.1216 58.2286 60.9868 56.8594 61.3237C54.7276 61.8611 52.4396 61.9158 49.6645 61.5151C49.6277 61.5061 49.5726 61.5151 49.545 61.5242C49.0673 61.7793 48.5986 62.0706 48.1024 62.3804L47.9094 62.4988C43.2231 65.4131 38.2887 68.6372 33.8872 72.5901C31.5716 74.6665 30.0003 76.6064 28.9252 78.6738C28.3739 79.7395 28.0982 80.7959 28.0798 81.8979C28.1533 81.9163 28.2177 81.9346 28.2912 81.9526C28.916 82.0984 29.5593 82.2532 30.1841 82.3625C33.7218 82.9546 37.5536 83.3279 42.2583 83.51C47.5051 83.7195 53.0276 83.8745 58.6788 83.9746C63.5857 84.0566 69.292 84.084 74.8053 83.2825C78.3706 82.7632 81.017 82.053 83.3785 80.9873C86.7325 79.4753 89.0021 77.3079 90.3345 74.3843C90.9961 72.918 91.4832 71.2786 91.7588 69.5208C92.2734 66.2966 92.7787 63.0269 93.2657 59.8574C93.6517 57.3801 94.0468 54.821 94.442 52.3071C94.5706 51.4602 94.7452 50.6133 94.9106 49.8027C94.9841 49.4292 95.0576 49.0559 95.1311 48.6733C95.1311 48.6733 95.2322 48.0723 95.2874 47.8718C95.7284 46.0776 96.3165 45.5403 96.3165 45.5403C96.3165 45.5403 96.6197 45.8591 97.1159 48.7097C98.6412 57.5806 99.358 67.1709 99.6337 76.5427L101.591 76.5427C101.646 74.8306 101.71 73.1182 101.775 71.415C101.94 66.8523 102.105 62.1252 102.225 57.4805C102.354 52.626 103.006 48.3545 104.237 44.4109C104.816 42.5437 105.441 40.6494 106.038 38.8279C106.516 37.3799 107.003 35.8862 107.472 34.4106C108.427 31.405 108.924 28.8823 109.043 26.4961C109.144 24.2102 109.034 21.8604 108.676 19.292ZM64.7618 56.3054C67.0223 52.4895 68.9152 48.2087 70.5417 43.2268C71.7362 39.5837 72.8481 35.8406 73.9232 32.2249C74.2632 31.0681 74.6124 29.9114 74.9615 28.7639C76.2388 24.5107 77.5344 20.3577 79.3446 16.3047C81.1273 12.2881 82.9099 9.44653 85.0969 7.07861C87.7984 4.16406 91.134 2.47021 95.0209 2.04199C95.5262 1.9873 96.1051 1.92358 96.5462 2.34253C96.9965 2.76147 96.9597 3.35352 96.9321 3.83618C96.8402 5.48462 96.4635 7.16968 95.7835 8.9729C94.6625 11.9329 93.4679 14.9841 92.1172 18.3083C89.6913 24.2739 87.8076 30.7766 86.5027 37.6348C85.3541 43.6914 84.6374 50.2217 84.3066 57.5715C84.178 60.4314 83.3142 62.7446 81.6786 64.6572C80.2819 66.2876 78.4625 67.1255 76.2755 67.1528C76.1928 67.1528 76.1193 67.1528 76.0366 67.1528C74.0426 67.1528 71.9384 66.8523 69.4206 66.2056C66.5537 65.4678 63.4846 65.1946 59.4691 65.313C58.9085 65.3313 58.348 65.322 57.8058 65.322C57.5762 65.322 55.0492 65.0488 54.4795 65.0125C54.406 65.0034 54.3417 64.9941 54.2773 64.9761L52.4763 64.293L52.3385 63.9924C60.9393 63.801 62.9517 59.3657 64.7618 56.3054ZM107.104 26.4688C106.976 28.8823 106.369 31.1592 105.735 33.2632C105.349 34.5564 104.936 35.8589 104.541 37.1157C103.897 39.1648 103.236 41.2869 102.648 43.3818C102.243 44.8208 101.931 46.3325 101.618 47.7898C101.481 48.4639 101.334 49.165 101.177 49.8572C101.15 50.0029 101.104 50.1306 101.076 50.1851L100.222 57.3074L99.3029 50.085C99.2018 49.584 99.1007 49.074 98.9996 48.5823C98.7607 47.3708 98.5126 46.114 98.2002 44.9026C98.0624 44.3745 97.7867 43.8462 97.5018 43.2815C97.4375 43.1541 97.3732 43.0266 97.2997 42.8899C96.05 42.8445 95.1587 43.3635 94.4879 44.511C93.8539 45.613 93.4128 46.9336 93.1279 48.6824C92.8155 50.5312 92.5306 52.4255 92.2458 54.2563C92.0253 55.7317 91.7864 57.2527 91.5474 58.7463C90.8859 62.854 90.2794 66.5515 89.6086 70.2859C88.7816 74.9124 85.9514 78.1001 81.2007 79.7485C78.8392 80.5774 76.248 81.1511 73.28 81.5156C69.5676 81.9709 65.8094 82.0984 62.0971 82.0984C59.7631 82.0984 57.4383 82.053 55.1411 81.9983L55.0308 81.9983C49.8759 81.8889 45.2263 81.7251 40.8156 81.4883C38.8124 81.3789 36.7817 81.1694 34.8337 80.96C34.0067 80.8689 33.1613 80.7778 32.3251 80.6958C32.1229 80.6775 31.9391 80.6321 31.7646 80.5864C31.7003 80.5684 31.6268 80.55 31.5532 80.541L30.5057 80.3225L30.8916 79.3296C31.443 77.8997 32.3894 76.8342 33.3083 75.8779C36.1661 72.8633 39.4373 70.4587 41.955 68.6919C43.4069 67.6809 44.8863 66.7065 46.329 65.7593C46.9538 65.3494 47.597 64.9214 48.2219 64.5115L48.571 64.2747L48.9846 64.3931C49.0305 64.4021 49.058 64.4114 49.0764 64.4204C49.1775 64.4478 49.444 64.5024 49.6461 64.7573C50.6845 66.0234 52.1731 66.6973 54.4611 66.9341C56.5654 67.1528 58.6512 67.2439 60.6636 67.2073C63.4294 67.1528 66.0942 67.4441 68.8141 68.1091C71.387 68.7375 73.675 69.0471 75.8161 69.0654C79.1608 69.1018 81.7613 67.7993 83.7737 65.1125C85.1796 63.2363 85.979 61.0232 86.1536 58.5459C86.2087 57.781 86.2639 57.0068 86.319 56.2417C86.5303 53.1907 86.7509 50.0393 87.0908 46.9429C88.3038 35.8679 90.8583 25.9771 94.883 16.7053C96.1327 13.8274 97.5294 10.4028 98.4299 6.83276C98.5402 6.3772 98.6412 5.91284 98.7424 5.41187C98.7883 5.17505 98.8434 4.9292 98.8986 4.67407L99.3029 2.79785L100.525 4.28247C100.589 4.3645 100.663 4.44653 100.718 4.51929C100.856 4.69238 100.994 4.8562 101.131 5.0293C103.374 7.99854 104.972 11.5049 106.02 15.7217C106.92 19.3557 107.288 22.9624 107.104 26.4688Z" fill="#FFFFFF" fill-opacity="1.000000" fill-rule="nonzero"/>
	<path id="Vector" d="M28.9342 59.073L2.52057 66.1506C2.42688 66.1758 2.32404 66.1956 2.2323 66.2278C1.86865 66.3408 1.53638 66.2827 1.2691 66.0059C1.00177 65.729 0.967102 65.3977 1.07843 65.0349C1.59271 63.3794 2.09973 61.7261 2.60681 60.0725C3.72565 56.4355 4.84247 52.7915 5.97571 49.1506C6.04932 48.9065 6.04413 48.7144 5.89905 48.4897C5.76312 48.2708 5.67902 48.0146 5.61322 47.769C3.77094 40.9224 1.93396 34.0667 0.10614 27.2163C-0.288757 25.7424 0.442505 24.4937 1.91998 24.0977L34.8198 15.2822C36.3261 14.8787 37.5728 15.582 37.9774 17.0918C39.8196 23.9385 41.6494 30.7961 43.4845 37.6445C43.4955 37.6855 43.5079 37.7268 43.5203 37.7681C43.5671 37.9238 43.6144 38.0808 43.587 38.2288C43.5046 38.7 43.7642 38.9478 44.0641 39.2314C47.9994 42.877 51.9274 46.5242 55.8574 50.1787C55.9716 50.2876 56.102 50.3997 56.1984 50.5288C56.5506 51.0073 56.3432 51.6746 55.7783 51.8726C55.6019 51.9353 55.4199 51.9763 55.2397 52.0247L28.9342 59.073ZM18.8597 21.417L2.53589 25.791C1.79358 25.9897 1.6723 26.2004 1.8717 26.9446L7.29169 47.1721C7.48914 47.9089 7.70856 48.0359 8.45087 47.8372L41.0192 39.1104C41.7759 38.9077 41.9025 38.688 41.6992 37.9294L36.2986 17.7739C36.087 16.9558 35.897 16.8518 35.0754 17.072L18.8597 21.417ZM53.6489 50.5847C53.5328 50.4688 53.4683 50.4009 53.3965 50.335C49.9302 47.1135 46.4659 43.8994 43.0068 40.676C42.8118 40.4961 42.6547 40.5149 42.4384 40.573C30.9433 43.6531 19.4482 46.7332 7.95111 49.8062C7.67725 49.8794 7.54913 50.0066 7.46692 50.2764C6.09149 54.772 4.70172 59.2712 3.31909 63.7686C3.28992 63.8616 3.27521 63.9507 3.24658 64.0745C3.34222 64.0566 3.40179 64.0483 3.45947 64.033C8.73499 62.6194 14.0032 61.2078 19.2807 59.8015C19.5042 59.7415 19.5707 59.6152 19.629 59.4294C20.0433 58.064 20.4812 56.7002 20.8845 55.3223C21.0244 54.8357 21.2951 54.5774 21.7852 54.446C25.4646 53.4756 29.1382 52.4834 32.8118 51.4915C33.2659 51.3696 33.6203 51.4529 33.9698 51.7773C35.0061 52.7617 36.0673 53.7239 37.1107 54.7065C37.3076 54.8938 37.4783 54.9253 37.7378 54.856C40.5106 54.1052 43.2852 53.3618 46.0599 52.6182L53.6489 50.5847ZM28.6778 47.0476L41.0306 43.7375C41.6215 43.5793 42.0521 43.7737 42.225 44.2461C42.3831 44.6914 42.217 45.1387 41.7953 45.3523C41.7003 45.4009 41.5869 45.439 41.4788 45.468L16.7661 52.0898C16.1895 52.2441 15.7426 52.0466 15.5696 51.5742C15.389 51.0728 15.6265 50.5754 16.1396 50.4148C16.5105 50.3 16.88 50.2087 17.2548 50.1084L28.6778 47.0476ZM13.0963 51.2227C12.6836 51.3254 12.2819 51.4407 11.8711 51.5508C11.6621 51.6069 11.4656 51.6519 11.2638 51.7058C11.062 51.76 10.8511 51.8086 10.6512 51.8699C10.1362 52.0234 9.87067 52.4739 10.0004 52.958C10.132 53.4492 10.5786 53.7322 11.0994 53.6003C11.9321 53.3928 12.7537 53.1726 13.5786 52.936C14.0884 52.7917 14.3442 52.3052 14.2092 51.8303C14.0723 51.3481 13.6191 51.0979 13.0963 51.2227ZM35.3085 55.4758C34.5396 54.7683 33.8255 54.0923 33.0936 53.4368C33.0128 53.3655 32.842 53.3337 32.7339 53.3628C29.4096 54.2458 26.08 55.1379 22.7595 56.0354C22.6586 56.0625 22.5189 56.1462 22.4897 56.2393C22.1804 57.1895 21.8893 58.1501 21.572 59.1565L35.3085 55.4758Z" fill="#FFFFFF" fill-opacity="1.000000" fill-rule="evenodd"/>
</svg>
