<svg width="106.778656" height="80.457764" viewBox="0 0 106.779 80.4578" fill="none" xmlns="http://www.w3.org/2000/svg" xmlns:xlink="http://www.w3.org/1999/xlink">
	<desc>
			Created with Pixso.
	</desc>
	<defs/>
	<path id="Vector" d="M71.7162 13.4067L71.7198 13.4204C71.777 13.6492 71.8419 13.8823 71.9237 14.1301C72.1449 14.925 72.2152 15.7815 72.2725 16.6609C72.3152 17.3254 72.3405 18.0203 72.3586 18.7817C71.4413 18.0386 70.529 17.4294 69.5849 16.9385C69.5181 15.6301 69.2549 14.312 68.8084 13.0322C68.5283 12.2341 68.2045 11.4419 67.926 10.7659C67.8212 10.5051 67.6784 10.2937 67.5652 10.1189C67.5229 10.0598 67.4883 10.0051 67.4537 9.95044C66.6512 8.62134 65.9355 7.67383 65.1238 6.86914C63.9339 5.68018 62.583 4.74854 61.1232 4.09814C59.6939 3.46533 58.1161 3.04126 56.4339 2.8457C55.5467 2.74463 54.6511 2.72974 53.8161 2.72363C53.3043 2.71802 52.8023 2.74805 52.3141 2.78076C52.1122 2.79834 51.9147 2.80811 51.7172 2.81812C50.775 2.86768 49.916 3.1001 49.0869 3.32446C48.871 3.38452 48.6612 3.44287 48.4557 3.49341C47.5453 3.72729 46.6487 4.07983 45.7939 4.53662C45.3621 4.77271 44.9397 5.01904 44.5353 5.26025C44.4297 5.32202 44.3301 5.38184 44.2245 5.44336C43.469 5.8855 42.5019 6.49585 41.6306 7.31152C40.6311 8.24658 39.7724 9.31616 39.0183 10.5759C37.9775 12.3147 37.2011 14.2375 36.6617 16.4551C36.3265 17.8042 36.1228 19.1619 36.045 20.4846C36.0072 21.1843 35.9829 21.8867 35.9673 22.5737C35.8405 22.3965 35.712 22.2131 35.5792 22.0376C35.4024 21.7969 35.2224 21.5444 35.0516 21.302C34.3312 20.2915 33.5889 19.2485 32.6267 18.344C31.3582 17.1509 30.3411 16.281 29.3222 15.521C28.1878 14.6709 26.9611 13.9299 25.5732 13.2598C24.8563 12.9116 24.0907 12.5515 23.2522 12.3467C22.5458 12.176 21.8438 12.1138 21.169 12.0566C21.0025 12.0386 20.8316 12.0281 20.6651 12.01C19.624 11.9133 18.6318 12.0154 17.7019 12.1323C17.0201 12.2124 16.3769 12.385 15.756 12.5449C15.6061 12.5864 15.4562 12.6282 15.3047 12.6641C15.0392 12.7314 14.7907 12.8135 14.5559 12.8979C14.4034 12.9534 14.2568 13.0071 14.1129 13.0471C13.2109 13.3108 12.4214 13.7236 11.6559 14.1299L11.51 14.209C10.5582 14.7122 9.63312 15.3108 8.67198 16.0356C7.51996 16.9099 6.47945 17.9529 5.59009 19.1213C4.73004 20.2559 4.0578 21.5315 3.54201 23.021C3.22293 23.9407 2.99707 24.9631 2.84372 26.2231C2.659 27.6724 2.72473 29.116 3.03958 30.6194C3.08313 30.8455 3.12833 31.0776 3.1692 31.3176C3.27722 31.938 3.39021 32.5764 3.62711 33.219C3.92422 34.0317 4.27197 34.8174 4.60707 35.5808L4.69026 35.7637C4.81206 36.0391 4.94086 36.293 5.07233 36.5334C5.15154 36.6787 5.22308 36.8198 5.29465 36.9609C5.9223 38.2422 6.7392 39.3674 7.53548 40.3955C9.02983 42.3306 10.8153 44.1978 13.1462 46.261C15.315 48.1824 17.6181 49.9829 19.9755 51.6072C22.1408 53.0981 23.9332 54.2935 25.6154 55.3713C27.2729 56.4302 29.0304 57.5 30.9737 58.634C32.8693 59.7363 35.108 61.0264 37.3686 62.2332C39.3476 63.2866 41.3805 64.3247 43.3445 65.3242C44.143 65.7334 44.9705 66.1536 45.7766 66.5671C46.2585 66.813 46.754 67.0615 47.2325 67.2957L47.2461 67.2983C48.072 67.7126 48.7211 67.5386 49.2133 66.7769C49.7375 65.9675 50.2377 65.165 50.6177 64.5569C50.9119 64.0823 51.2062 63.6074 51.5021 63.1387C52.2739 61.9192 53.0598 60.6572 53.8123 59.3916C55.0827 57.2476 56.3001 55.0991 57.6476 52.7212C58.3148 51.5437 58.9893 50.2996 59.7059 48.928C60.7964 46.8342 61.6763 45.1208 62.4716 43.5212C63.2009 42.0559 63.8745 40.5996 64.4362 39.3679C64.9092 38.3281 65.3489 37.2847 65.7956 36.2202C66.3346 34.9302 66.7676 33.8628 67.153 32.8796C67.3051 33.1016 67.4572 33.3232 67.6017 33.5408C67.9313 34.0288 68.2555 34.5439 68.567 35.0369C68.6962 35.2458 68.8313 35.4529 68.9588 35.6558C68.6394 36.3887 68.3174 37.1353 68.0068 37.8528C67.3897 39.2805 66.7544 40.7583 66.0921 42.1855C65.3254 43.8416 64.4792 45.5134 63.6633 47.1316L63.0383 48.3682C61.3551 51.7219 59.5061 54.9673 57.9218 57.7009C56.7333 59.7446 55.4026 61.9507 53.856 64.4482C52.8875 66.0059 51.8831 67.5735 50.9031 69.0891C50.4878 69.7329 50.0743 70.3826 49.6591 71.0261C49.5864 71.1365 49.5078 71.2485 49.4368 71.365L49.0791 71.1938C47.9236 70.6394 46.7282 70.0574 45.566 69.479C43.5491 68.4749 41.5765 67.4907 39.6441 66.4888C38.0301 65.656 36.4241 64.7825 35.0752 64.0435C33.3527 63.0991 31.7767 62.2173 30.2569 61.3518C27.4778 59.7676 25.0961 58.311 22.9677 56.9065C22.636 56.6897 22.2984 56.4744 21.9744 56.2617C21.3851 55.8848 20.7727 55.4946 20.2007 55.0869C18.5279 53.9036 16.9217 52.7273 15.4193 51.5994C14.2417 50.7095 13.2385 49.9131 12.3598 49.1462C11.2851 48.2085 10.1674 47.1863 8.95518 46.0098C8.1891 45.2761 7.41772 44.4539 6.65269 43.5845C5.86569 42.6826 5.03741 41.7021 4.36871 40.6453C4.2066 40.3875 4.04451 40.1299 3.87807 39.8799C3.57317 39.4109 3.25562 38.9194 2.96704 38.4395C2.7417 38.0706 2.55334 37.6721 2.33405 37.1855C2.15334 36.7915 1.97964 36.376 1.81093 35.9785C1.67416 35.6494 1.52809 35.3101 1.38367 34.9768C0.910797 33.9038 0.64978 32.7334 0.434387 31.6338C0.380203 31.3462 0.33136 31.0312 0.291183 30.7012L0.277573 30.5825C0.189911 29.8728 0.101593 29.1372 0.0379181 28.4207C-0.0828247 27.1274 0.104172 25.8259 0.326431 24.6047C0.794342 22.0142 1.81604 19.6497 3.36719 17.5627C4.08662 16.5962 4.89861 15.7068 5.85913 14.8406C6.70438 14.071 7.51425 13.4526 8.31976 12.9583C8.55162 12.8164 8.77583 12.6702 8.9957 12.5317C9.35214 12.304 9.68628 12.0886 10.0254 11.8911C10.2203 11.7791 10.4381 11.6797 10.6663 11.571C10.9005 11.4609 11.1347 11.3506 11.3819 11.2175C11.9878 10.8879 12.6553 10.6636 13.3632 10.4216C13.5114 10.374 13.6656 10.3245 13.8122 10.271C14.119 10.1663 14.4154 10.0708 14.7092 9.98926C15.015 9.90405 15.3104 9.82837 15.5989 9.77393C16.5285 9.58618 17.4561 9.4375 18.3637 9.33325C18.9762 9.25952 19.6223 9.26001 20.1676 9.26953C21.3289 9.28784 22.3673 9.39819 23.3281 9.60107C23.9246 9.7251 24.472 9.88184 24.9612 10.0615C27.2946 10.926 29.5316 12.2102 31.6186 13.8838C31.9931 14.1855 32.372 14.4795 32.7603 14.7837C32.9098 14.9031 33.047 14.9551 33.1262 14.9846C33.1399 14.9871 33.1535 14.9897 33.1689 14.9985L34.048 15.3723L34.5142 14.5405C34.5272 14.5176 34.5419 14.5005 34.5549 14.4775C34.6172 14.3765 34.7115 14.228 34.7789 14.0288C35.5117 11.8799 36.399 9.98413 37.4911 8.24414C38.3192 6.92505 39.3318 5.73535 40.5056 4.70679C41.1139 4.17676 41.8348 3.67993 42.7679 3.15625C43.0417 3.00293 43.3182 2.83569 43.5784 2.67969C43.9872 2.43066 44.3736 2.19434 44.7717 2C45.4409 1.66553 46.3346 1.2561 47.2826 1.01807C47.6396 0.931641 47.9934 0.833252 48.3351 0.738037C48.8927 0.583008 49.4144 0.437988 49.946 0.328613C50.6068 0.196289 51.3942 0.0546875 52.1822 0.0544434C52.5822 0.0527344 52.9849 0.0373535 53.3695 0.0268555C53.9397 0.0100098 54.4766 -0.010498 55.0175 0.00634766C55.7865 0.0307617 56.5635 0.130127 57.3148 0.230469C59.2325 0.482666 61.0717 1.03394 62.7916 1.87573C64.3753 2.646 65.826 3.70459 67.1005 5.01172C67.8136 5.74097 68.4967 6.59424 69.1854 7.60718C69.744 8.43091 70.1168 9.07422 70.4136 9.7002C70.7634 10.4465 71.0359 11.2402 71.32 12.0759L71.3785 12.24C71.5075 12.6118 71.6088 12.9976 71.7162 13.4067ZM62.9976 71.8374C62.3032 71.0129 61.5868 70.156 60.9037 69.3025C60.4762 68.7646 60.0438 68.2085 59.606 67.6797C59.3157 67.3096 59.0204 66.9216 58.7209 66.5413C59.0714 65.967 59.435 65.3699 59.7899 64.7881C59.8523 64.687 59.9129 64.5801 59.9812 64.4773C60.2952 64.886 60.6091 65.2947 60.9153 65.699C61.5432 66.5161 62.193 67.366 62.8438 68.196C63.6224 69.1838 64.4337 70.1499 65.223 71.0833C66.2723 72.3242 67.3447 73.5781 68.3813 74.7969L69.2825 75.8538C69.3977 75.989 69.5112 76.1187 69.6231 76.2419C69.718 76.3508 69.8052 76.4556 69.8984 76.5583C70.4337 77.1824 71.1304 77.272 71.804 76.814C71.9346 76.7261 72.0516 76.6357 72.1702 76.551C72.2398 76.4995 72.3154 76.4463 72.385 76.3948C72.7735 76.1191 73.1559 75.8455 73.5444 75.5698C74.3436 75.0061 75.1694 74.4221 75.9817 73.8354C76.4767 73.4788 76.9668 73.1042 77.4362 72.7483C77.6597 72.5764 77.8849 72.4109 78.1085 72.239C78.3913 72.0251 78.6818 71.8157 78.9647 71.6016C79.575 71.1484 80.2 70.6782 80.819 70.2097C81.4216 69.7524 82.0133 69.2786 82.5887 68.8159L82.7736 68.6677C83.6861 67.9309 84.6329 67.178 85.5524 66.4197C86.2087 65.8765 86.9717 65.252 87.7083 64.6028L87.8073 64.5173C89.0859 63.4016 90.3983 62.2441 91.674 61.0713C92.7534 60.0754 93.8169 59.0454 94.8494 58.0432L95.2369 57.6714C95.77 57.1494 96.3254 56.615 96.8282 56.0308C97.4043 55.3616 97.9894 54.6321 98.6682 53.7283C99.9221 52.0591 101.052 50.3149 102.025 48.5435C103.019 46.7275 103.718 45.0132 104.151 43.2954C104.397 42.2996 104.522 41.1953 104.53 39.8083C104.542 38.5039 104.324 37.1863 103.867 35.7742C103.542 34.7695 103.052 33.7979 102.366 32.8167C101.469 31.5203 100.281 30.408 98.8328 29.4971C97.1802 28.4561 95.4177 27.7161 93.5953 27.2957C92.4231 27.0291 91.1908 26.8953 89.9259 26.8994C89.5002 26.9019 89.0726 26.9434 88.6429 27.0244C88.3109 27.0845 87.9738 27.1267 87.6187 27.1741L87.5919 27.1775C86.8208 27.2773 86.025 27.3801 85.2275 27.7039C84.6419 27.9441 84.0423 28.2268 83.4543 28.5515C82.9394 28.8364 82.4556 29.1643 81.9676 29.4995C81.0834 30.1062 80.2632 30.8496 79.4638 31.7612C78.2903 33.0925 77.4036 34.3633 76.7493 35.6338C76.3754 36.3562 76.0397 37.1001 75.7094 37.8167C75.602 37.3376 75.4929 36.8528 75.3719 36.3711L75.3196 36.1604C75.0885 35.2134 74.8474 34.2305 74.3462 33.2878C74.1575 32.9346 73.9911 32.5686 73.8121 32.1807C73.5884 31.7017 73.3615 31.2109 73.0849 30.7275C72.3184 29.3884 71.5058 28.2556 70.588 27.2549C69.8658 26.4702 69.0542 25.6655 67.9996 25.1023C66.1798 24.1335 64.257 23.5605 62.2917 23.3923C61.0208 23.2822 59.8984 23.311 58.8715 23.4744C58.7663 23.4907 58.655 23.5088 58.5438 23.5269C57.392 23.7056 56.2043 23.8943 55.0574 24.4387C54.8412 24.5439 54.6157 24.6389 54.3798 24.7432C54.114 24.8557 53.8422 24.97 53.5694 25.1038C52.527 25.6064 51.5772 26.302 50.665 27.2258C49.2996 28.6104 48.3105 30.1865 47.7194 31.916C47.312 33.0986 47.0474 34.3767 46.9276 35.7109C46.8433 36.6619 46.839 37.668 46.9218 38.7786C46.9841 39.6758 47.1004 40.4421 47.2736 41.1345C47.6175 42.5332 48.0037 43.875 48.4118 45.1333C48.6214 45.7708 48.8936 46.3777 49.1592 46.9607L49.4138 47.5276C49.7136 48.2107 49.9901 48.8101 50.2627 49.3718C50.4427 49.7405 50.6348 50.1057 50.8235 50.459C50.8951 50.6001 50.9726 50.7395 51.0442 50.8806L51.179 51.1331C51.3583 51.4758 51.541 51.8308 51.7281 52.1782C51.2316 52.9475 50.7827 53.6328 50.3718 54.2688C50.2722 54.0967 50.1787 53.9231 50.0809 53.7571C50.0033 53.6177 49.9274 53.4841 49.8516 53.3508C49.7867 53.2336 49.7141 53.1121 49.6492 52.9949C49.4755 52.6953 49.2984 52.384 49.135 52.0752C48.9396 51.698 48.7409 51.3088 48.5515 50.9299L48.4767 50.7769C48.4034 50.6296 48.3226 50.4783 48.2477 50.3252C48.0347 49.908 47.8344 49.5127 47.658 49.1111C47.4833 48.7151 47.3156 48.2981 47.1529 47.8989C46.9935 47.5117 46.8291 47.1067 46.6544 46.7107C45.9087 45.0054 45.4397 43.2034 45.052 41.5078C44.8974 40.8359 44.8387 40.1375 44.7684 39.397L44.7621 39.3279C44.6835 38.4414 44.6425 37.667 44.6377 36.9534C44.6373 36.3481 44.6765 35.6997 44.756 35.0334C44.9631 33.3398 45.3181 31.8755 45.8531 30.5481C46.4945 28.9526 47.4283 27.4563 48.6301 26.1108C49.4268 25.2129 50.289 24.4578 51.1978 23.8699C52.3291 23.1301 53.3845 22.6047 54.429 22.2498C55.6099 21.8503 56.7001 21.5664 57.7682 21.366C58.2612 21.2803 58.7718 21.2349 59.3097 21.1948C59.4875 21.1838 59.6714 21.1714 59.8536 21.1528C60.1443 21.1301 60.4624 21.1123 60.8488 21.1079C63.2361 21.075 65.5257 21.5266 67.6449 22.4573C68.9379 23.0186 69.9662 23.5569 70.8132 24.3259C71.498 24.9536 72.1712 25.655 72.8141 26.4102C73.3264 27.0212 73.8424 27.7151 74.4828 28.6704C74.7245 29.0283 74.9325 29.4277 75.1592 29.8479C75.2543 30.0273 75.3495 30.207 75.4524 30.3909C75.4717 30.4373 75.4976 30.5073 75.5465 30.5903C75.7885 31.0188 76.1072 31.2588 76.5085 31.3081C76.9098 31.3574 77.2785 31.197 77.618 30.8384C77.7663 30.6748 77.9206 30.5095 78.0645 30.3535C78.2904 30.0974 78.5137 29.855 78.7402 29.6245C79.7258 28.616 80.606 27.856 81.5142 27.2427C82.4266 26.6216 83.3347 26.1243 84.2814 25.7192C85.5985 25.1597 87.023 24.9631 88.3643 24.8154L88.757 24.7642C89.0744 24.7209 89.3738 24.6826 89.6576 24.6809C90.4063 24.679 91.179 24.6699 91.91 24.7437C93.1466 24.8699 94.2466 25.0854 95.2723 25.4055C97.0406 25.957 98.7659 26.7717 100.405 27.8357C101.729 28.6914 102.857 29.7043 103.755 30.8457C104.188 31.4016 104.56 32.0195 104.948 32.6716L105.022 32.7991C105.59 33.749 106.021 34.8335 106.307 36.0229C106.563 37.085 106.706 38.063 106.758 39.0146C106.836 40.5967 106.693 42.1953 106.323 43.7668C106.007 45.1169 105.479 46.5391 104.665 48.2341C103.294 51.0825 101.473 53.6631 100.034 55.5962C99.1263 56.8147 98.0374 58.0322 96.5045 59.5344C94.4385 61.5583 92.585 63.2783 90.8383 64.8013C89.5493 65.9263 88.2579 67.0198 87.0029 68.0581C85.8175 69.0447 84.5086 70.0981 83.0054 71.2891C82.3914 71.7756 81.7441 72.2583 81.1251 72.7268C80.8586 72.9297 80.5964 73.125 80.3299 73.3281C80.0677 73.5234 79.8115 73.717 79.551 73.9182C78.9276 74.3943 78.282 74.8831 77.6434 75.3506C76.9111 75.8765 76.1609 76.4072 75.4373 76.9175C75.0755 77.1729 74.7197 77.4263 74.3579 77.6816C74.0451 77.9038 73.7279 78.1338 73.4151 78.356C72.9364 78.7019 72.4337 79.0542 71.943 79.4033C71.4729 79.7336 70.9745 80.0784 70.4212 80.4578C70.1212 80.1226 69.8196 79.7815 69.5197 79.446C68.5885 78.3977 67.6293 77.3184 66.6975 76.2444C65.8885 75.3101 65.0833 74.3425 64.3043 73.3999C64.0536 73.1023 63.8013 72.7991 63.5489 72.4956L62.9976 71.8374Z" fill="#FFFFFF" fill-opacity="1.000000" fill-rule="evenodd"/>
</svg>
