<svg width="131.000000" height="72.000000" viewBox="0 0 131 72" fill="none" xmlns="http://www.w3.org/2000/svg" xmlns:xlink="http://www.w3.org/1999/xlink">
	<desc>
			Created with Pixso.
	</desc>
	<defs/>
	<path id="Vector" d="M0.031311 22.48C-0.141968 24.6736 0.412537 26.7095 1.46948 28.6926C2.1972 30.0618 2.73431 31.6235 2.30115 33.291C2.21454 33.6243 2.1106 34.0632 2.24921 34.3088C2.92493 35.4846 2.89026 36.801 3.15021 38.0647C3.16748 38.1172 3.16748 38.1875 3.20215 38.2227C4.24176 39.4512 4.20715 41.0129 4.44971 42.4873C4.70959 44.1545 5.74921 45.4006 6.77155 46.6292C8.52155 48.7527 10.722 50.2795 12.8879 51.3328C17.4276 53.4211 21.9326 54.123 26.5762 53.9827C28.9847 53.9126 31.3931 53.5791 33.8016 53.3508C34.2347 53.3159 34.46 53.3508 34.6506 53.8071L37.7694 50.7185C32.7793 51.824 27.7371 52.4382 22.591 51.9819C18.5192 51.6135 14.6553 50.5605 11.2245 48.1736C9.90771 47.261 8.7641 46.1904 7.67255 44.7512C21.8806 47.2083 35.1531 45.9448 47.5591 40.9956L51.3364 37.2397C48.5641 38.5559 45.7052 39.6792 42.7769 40.6445C36.7645 42.5925 30.5961 43.7158 24.2717 43.979C18.4499 44.2249 12.6973 43.7861 7.0141 42.5049C6.77155 42.4521 6.40765 42.3118 6.37299 42.1538C6.21704 41.4695 6.14777 40.7849 6.07843 40.2234C7.08337 40.4163 7.9671 40.8025 8.78143 40.6973C10.1849 40.5217 11.4844 40.6797 12.784 41.1184C14.5513 41.6975 16.3187 41.8379 18.138 41.364C18.7791 41.1885 19.5068 41.3464 20.1999 41.3289C21.7767 41.2764 23.4227 41.4695 24.8955 41.0481C27.6678 40.2583 30.4575 39.8899 33.3337 39.8547C34.564 39.8372 35.8461 39.6616 36.9897 39.2405C40.8363 37.8364 44.6483 36.3096 48.4601 34.8179C50.1235 34.1685 51.7696 33.4839 53.4156 32.7644C54.1261 32.4485 54.8018 32.0449 55.4603 31.6411C56.1533 31.22 56.7771 30.6934 57.4875 30.3074C58.0766 29.9739 58.683 29.658 59.2895 29.3596L67 21.7078C66.2549 21.427 65.7871 21.0232 65.5619 20.3738C64.9034 18.4961 64.3143 16.583 63.7079 14.6875C63.6212 14.4243 63.5693 14.1084 63.6039 13.8276C64.0891 10.686 62.8935 8.1062 60.9355 5.80713C58.5791 3.06934 55.4083 1.75293 52.0122 0.945557C47.0394 -0.247803 41.9972 -0.17749 36.9551 0.419189C30.007 1.2439 23.2841 2.91138 16.8558 5.73682C12.3854 7.70264 8.19232 10.1245 4.70959 13.6521C2.26648 16.0916 0.308533 18.8645 0.031311 22.48ZM4.70959 36.7131C5.24677 36.9766 5.69727 37.1345 6.07843 37.3801C7.18738 38.082 8.38293 38.1523 9.64777 38.082C11.623 37.9768 13.5983 38.012 15.5736 37.9944C17.185 37.9768 18.8137 38.1348 20.3732 37.8716C22.3658 37.5381 24.3237 37.5029 26.299 37.7488C27.7718 37.9243 29.2099 37.7488 30.6481 37.2925C33.559 36.3623 36.4526 35.3794 39.4155 34.6948C41.2868 34.2561 43.1581 33.9226 44.7522 32.8171C46.6755 31.5007 48.772 30.676 51.0765 30.4126C52.8959 30.2021 54.4726 29.3948 55.6682 28.0259C57.2449 26.2532 59.2202 25.4634 61.6287 25.3582C61.0569 25.832 60.5197 26.3936 59.8786 26.7622C58.042 27.8503 56.1707 28.8857 54.3167 29.9387C53.7622 30.2546 53.2597 30.6584 52.6879 30.9216C50.4528 31.9219 48.2003 32.9048 45.9304 33.8174C43.6779 34.7124 41.3734 35.4497 39.1382 36.3972C36.8511 37.3625 34.5293 38.0647 32.0169 38.012C29.6431 37.9592 27.304 38.24 25.0515 39.0649C23.3361 39.6792 21.5514 39.644 19.7494 39.416C18.9351 39.3108 18.0687 39.3457 17.2717 39.5388C15.8855 39.8723 14.586 39.6968 13.2691 39.2756C11.779 38.8018 10.2715 38.4331 8.67749 38.7139C8.27893 38.7842 7.81116 38.5386 7.37793 38.3979C6.78882 38.2051 6.19971 37.7837 5.6106 37.7837C4.95221 37.7488 4.83087 37.3977 4.70959 36.7131ZM4.15515 31.0269C5.00415 31.2727 5.7146 31.5183 6.44232 31.6763C11.6404 32.8521 16.8904 32.9927 22.1752 32.5537C28.4302 32.0273 34.5466 30.7285 40.5417 28.8333C45.6012 27.2361 50.5048 25.2529 54.9751 22.3572C57.4355 20.76 59.74 18.9348 62.0792 17.2324C62.3564 17.9519 62.6683 18.8997 63.1014 19.7771C63.396 20.3738 63.3267 20.7424 62.8416 21.1284C62.3911 21.4795 61.8885 21.8306 61.5593 22.2869C61.0396 23.0063 60.3638 23.3926 59.5494 23.5154C57.6261 23.7961 56.1187 24.7966 54.8192 26.2007C53.7275 27.3765 52.428 28.2363 50.7993 28.3943C48.1829 28.6577 45.8784 29.7107 43.6953 31.1497C42.7769 31.7466 41.668 32.1677 40.5764 32.3608C37.6655 32.8872 34.7719 33.4314 32.0688 34.6248C29.8857 35.5901 27.7025 35.8884 25.3287 35.6426C23.7173 35.467 22.0712 35.783 20.4425 35.906C19.3509 35.9761 18.2246 36.3271 17.185 36.134C14.6033 35.6953 12.0735 35.9409 9.52649 36.1516C8.97205 36.2043 8.3656 36.0989 7.84576 35.906C6.82349 35.5549 5.81854 35.0986 4.8136 34.6775C4.27643 34.4668 4.03387 34.1685 4.32843 33.519C4.50171 33.1331 4.48438 32.6416 4.44971 32.2029C4.43237 31.8518 4.27643 31.4656 4.15515 31.0269ZM5.88782 15.2317C9.14532 11.9321 13.0612 9.58032 17.289 7.75513C26.5416 3.73608 36.1754 1.66528 46.2596 2.104C49.4824 2.24438 52.6187 2.85864 54.7325 3.82397C57.9033 5.35083 59.4801 6.63208 60.6583 8.6853C62.2697 11.4583 62.5297 14.4067 59.4801 16.969C55.98 19.8999 52.1161 22.1992 47.9923 24.042C39.7794 27.6924 31.1852 29.8159 22.2791 30.6409C17.1677 31.1147 12.0909 30.9568 7.04877 29.7983C3.15021 28.9033 1.6947 26.6394 2.02393 22.3044C2.24921 19.4263 3.92987 17.2148 5.88782 15.2317Z" fill="#FFFFFF" fill-opacity="1.000000" fill-rule="nonzero"/>
	<path id="Vector" d="M106.242 71.6223C101.219 71.5195 96.825 70.2354 92.6746 68.1292C90.5122 67.0332 88.4719 65.7317 86.3793 64.4988C86.0131 64.2761 85.769 64.2246 85.4028 64.533C82.0023 67.5298 77.8694 69.0708 73.5447 70.2012C66.7786 71.9478 59.8904 72.2217 52.95 71.8621C47.5266 71.571 42.2079 70.6633 37.2031 68.4888C32.9481 66.6392 29.3384 64.0022 26.9668 59.9607C25.9902 58.3169 25.3799 56.5359 25.1009 54.6523C25.066 54.3782 25.066 54.0359 25.2055 53.8303C25.9902 52.7686 25.7112 51.7412 25.3101 50.6282C25.0486 49.9089 24.9091 49.0183 25.066 48.2993C25.6066 46.0046 25.7461 43.6929 25.6589 41.3467C25.6415 41.0898 25.6066 40.833 25.5369 40.5933C24.4557 37.4082 25.2753 34.4971 27.0366 31.8086C28.9373 28.9146 31.7623 27.0652 34.9012 25.6609C42.0336 22.4587 49.6367 21.6196 57.3444 21.6367C61.4774 21.6538 65.6277 22.1333 69.7606 22.51C70.5627 22.5786 71.1556 22.4075 71.6439 21.9451C73.0564 20.5752 74.3992 19.1367 75.7594 17.7153C75.9512 17.5098 76.143 17.27 76.2128 16.9961C77.1196 14.0166 79.3168 12.2527 82.0721 11.071C85.3854 9.6499 88.8207 9.82104 92.2561 10.5574C97.2783 11.6362 101.83 13.8281 106.154 16.4995C112.118 20.1812 117.507 24.5137 122.145 29.7366C125.372 33.3669 128.144 37.2883 129.801 41.8777C130.969 45.0798 131.562 48.3506 130.272 51.6555C129.487 53.6592 128.109 55.2173 126.313 56.5188C125.058 57.4092 123.907 58.5566 123.593 60.2178C123.523 60.543 123.436 60.9883 123.192 61.1423C122.076 61.8787 121.553 63.0774 120.768 64.0706C120.733 64.1221 120.698 64.1733 120.646 64.1904C119.164 64.824 118.536 66.2112 117.681 67.4099C116.722 68.7627 115.257 69.4133 113.81 70.064C111.334 71.1943 108.666 71.6052 106.242 71.6223ZM88.5591 11.9788C85.0192 11.9788 83.0486 12.4412 81.0955 13.7253C78.4449 15.4893 76.9452 17.9551 78.6193 21.5168C80.5375 25.5925 83.066 29.2571 86.0306 32.6306C91.9247 39.3433 98.8303 44.8572 106.573 49.3779C111.002 51.9639 115.693 53.9844 120.768 55.1147C124.691 55.988 126.993 54.6008 128.528 50.6624C129.557 48.0251 128.964 45.3538 128.04 42.8022C126.488 38.4871 123.942 34.771 120.89 31.3633C114.211 23.8972 106.346 17.9722 96.9819 14.0679C94.0348 12.8179 90.9133 12.03 88.5591 11.9788ZM68.9235 47.7341C68.7491 47.4087 68.6794 47.2546 68.6096 47.1006C67.3366 44.9258 66.2903 42.6482 65.6451 40.1995C64.7383 36.7747 64.6686 33.3669 65.8195 30.0105C66.0811 29.2229 66.5519 28.4692 67.0576 27.8186C67.6854 27.0137 68.5225 26.363 69.2025 25.5925C69.8652 24.8562 69.7257 24.5137 68.7491 24.4109C66.6391 24.1882 64.5291 23.9314 62.419 23.7944C56.2284 23.3835 50.0552 23.6233 43.9518 24.8562C39.4526 25.7637 35.1279 27.1335 31.4659 30.0105C28.885 32.0312 27.2109 34.5657 27.176 37.9561C27.1412 40.1995 28.1875 41.7407 30.158 42.7681C33.9421 44.7202 37.9529 46.0217 42.1207 46.8608C50.0378 48.4705 58.0245 48.676 66.0462 48.0938C66.9704 48.0081 67.8772 47.8711 68.9235 47.7341ZM84.1298 63.0774C82.665 61.9473 81.2874 60.8684 79.8574 59.8408C79.6481 59.6868 79.1947 59.7554 78.9157 59.8582C75.0793 61.1765 71.1207 61.8787 67.0925 62.3069C60.9193 62.9575 54.7287 62.9746 48.5555 62.3069C42.0859 61.6047 35.7906 60.1833 29.8441 57.512C29.1292 57.1868 28.3967 56.8442 27.4899 56.4331C27.6469 56.9126 27.7341 57.2039 27.8561 57.4949C29.4779 61.3308 32.4075 63.9849 36.0347 65.9199C39.5399 67.7866 43.324 68.8481 47.2651 69.4133C56.9434 70.8347 66.4996 70.5093 75.8814 67.5981C78.8634 66.6392 81.671 65.2864 84.1298 63.0774ZM113.792 68.0435C92.9885 62.2383 77.6253 50.1316 67.4064 31.5176C66.8658 33.3669 66.7437 35.0964 66.9355 36.8774C67.4936 42.083 69.9698 46.4497 73.2134 50.4568C75.6722 53.5049 78.5321 56.1763 81.5663 58.6594C86.3096 62.5122 91.3144 65.9199 97.1388 68.0605C100.993 69.4819 104.969 70.1838 109.102 69.5503C110.688 69.3105 112.188 68.8481 113.792 68.0435ZM76.143 20.6436C75.5676 21.1572 74.9049 21.8594 74.1376 22.4417C73.6144 22.8354 73.5098 23.1951 73.7888 23.7432C74.0504 24.2568 74.3469 24.7705 74.4515 25.3013C74.6085 26.1575 75.0618 26.7913 75.7594 27.2363C77.3986 28.2981 78.3228 29.8223 78.8983 31.6201C79.3865 33.1272 80.1887 34.4285 81.6012 35.2676C83.8682 36.6204 85.5074 38.5212 86.8676 40.7302C87.4431 41.655 88.2802 42.4941 89.1695 43.1277C91.576 44.823 93.9825 46.5354 95.9182 48.7444C97.4876 50.5254 99.3361 51.707 101.603 52.5117C103.138 53.0427 104.498 54.0359 105.928 54.8235C106.887 55.3545 107.759 56.125 108.788 56.416C111.316 57.1182 113.513 58.4197 115.746 59.6868C116.234 59.9607 116.827 60.1321 117.385 60.2004C118.466 60.3374 119.565 60.3547 120.663 60.4231C121.239 60.4573 121.587 60.3032 121.587 59.6184C121.587 59.2073 121.814 58.7793 122.041 58.4026C122.233 58.0601 122.547 57.7861 122.843 57.4436C121.971 57.3066 121.221 57.2209 120.489 57.0496C115.257 55.8682 110.427 53.7617 105.823 51.1248C100.365 47.991 95.3601 44.2578 90.7215 40.0283C86.8153 36.4663 83.2056 32.6306 80.3806 28.1953C78.8459 25.7295 77.5381 23.1267 76.143 20.6436ZM70.6151 27.2534C70.0745 27.7502 69.5862 28.2639 69.0281 28.6919C68.5748 29.0515 68.5399 29.3599 68.8189 29.8394C70.1268 32.0825 71.33 34.3943 72.7426 36.5862C75.7943 41.3638 79.4912 45.6279 83.6764 49.4978C88.315 53.7791 93.4244 57.3921 99.0571 60.3032C104.236 62.9917 109.66 65.0466 115.379 66.3481C115.624 66.3994 116.007 66.4338 116.112 66.314C116.548 65.783 116.896 65.2007 117.21 64.7385C116.216 64.4817 115.257 64.4473 114.542 64.0022C113.357 63.2659 112.101 62.8376 110.723 62.6665C108.875 62.4268 107.201 61.8103 105.753 60.6116C105.248 60.1833 104.515 60.0293 103.905 59.7039C102.492 58.9846 100.906 58.4539 99.7546 57.4607C97.5748 55.5769 95.2032 54.0701 92.6049 52.8372C91.5062 52.3062 90.4076 51.6042 89.5531 50.748C86.6584 47.8711 83.8508 44.9087 81.0258 41.9631C79.7876 40.679 78.5844 39.3774 77.3986 38.0588C76.8929 37.4768 76.4395 36.843 76.0209 36.2095C75.5676 35.5417 75.2188 34.8225 74.7654 34.1716C73.2308 32.0142 71.2079 30.1475 70.772 27.3733C70.7371 27.3391 70.7023 27.322 70.6151 27.2534ZM71.6265 51.7754C71.4346 51.5015 71.1556 51.1931 70.9638 50.8506C70.4232 49.8918 69.7257 49.3608 68.5225 49.7891C68.0167 49.9773 67.4413 49.9602 66.8832 50.0288C61.146 50.5938 55.3914 50.5425 49.6541 50.0288C43.0798 49.4294 36.6799 48.1108 30.6637 45.3196C29.6523 44.8572 28.6757 44.2922 27.6992 43.7954C27.5597 44.7544 27.4899 45.7134 27.2632 46.6382C27.0889 47.323 27.333 47.6484 27.9259 47.9053C28.449 48.1279 28.9896 48.3677 29.4431 48.7102C30.1406 49.241 30.873 49.4124 31.7275 49.3438C33.3667 49.2239 34.9361 49.4978 36.2789 50.4568C38.2494 51.8611 40.4292 52.2036 42.8008 51.9639C44.5621 51.7925 46.2537 52.1179 47.9277 52.7173C49.6541 53.3508 51.4328 53.5735 53.2987 53.4878C55.8447 53.385 58.3907 53.5906 60.9542 53.6418C62.6283 53.6763 64.3372 53.916 65.9415 53.6077C67.8772 53.2822 69.6908 52.4434 71.6265 51.7754ZM27.9259 52.2549C27.4551 53.7791 27.6295 54.2412 28.6234 54.7378C34.0817 57.4436 39.8886 59.0703 45.9223 59.9607C54.5194 61.2451 63.1166 61.1423 71.6788 59.6868C73.7714 59.3271 75.8117 58.7449 77.9741 58.2483C77.3637 57.6147 76.9452 57.1182 76.4395 56.6899C76.2825 56.5701 75.8989 56.553 75.707 56.6558C73.4575 57.8203 71.0684 58.197 68.5399 58.0771C67.2145 58.0085 65.8718 58.0601 64.5465 58.2141C62.3318 58.4539 60.1346 58.9846 57.9199 59.0532C56.0366 59.1045 54.1183 58.6765 52.235 58.4197C48.0149 57.8545 43.7948 57.3237 39.5922 56.6216C37.9879 56.3477 36.4707 55.5598 34.8838 55.1489C32.4599 54.481 29.879 54.2927 27.9259 52.2549ZM73.039 27.9727C73.3528 28.6406 73.6144 29.3428 74.0155 29.9592C75.2188 31.7058 76.4744 33.4011 77.7125 35.1306C78.0787 35.6443 78.3577 36.2266 78.7762 36.689C80.3806 38.5212 82.0023 40.3364 83.6764 42.1174C85.333 43.864 87.1118 45.5081 88.7335 47.2888C90.4076 49.1211 92.2037 50.7136 94.5056 51.7412C96.6854 52.7002 98.6734 53.9502 100.4 55.6284C101.69 56.8955 103.329 57.6318 105.073 58.1799C105.858 58.4368 106.625 58.8306 107.271 59.3442C108.387 60.2349 109.642 60.6116 111.002 60.8169C112.554 61.0396 114.071 61.3479 115.414 62.2725C115.746 62.5122 116.286 62.4951 116.722 62.5466C117.35 62.6321 118.047 62.5122 118.588 62.752C119.251 63.0432 119.512 62.7864 119.931 62.2383C119.338 62.2383 118.867 62.187 118.396 62.2383C117.088 62.3923 115.972 61.9473 114.839 61.3308C113.095 60.406 111.264 59.584 109.485 58.7278C108.038 58.0256 106.468 57.4778 105.178 56.5703C103.504 55.4229 101.743 54.5667 99.8418 53.9331C98.4118 53.4536 97.1912 52.6831 96.0925 51.6726C93.843 49.6177 91.6283 47.5286 89.2393 45.645C87.7221 44.4634 86.1701 43.3674 85.1935 41.7234C84.0078 39.7371 82.4557 38.1274 80.4677 36.9116C78.8983 35.9526 77.8171 34.5657 77.3114 32.8533C76.6487 30.627 75.1839 29.0859 73.039 27.9727ZM74.591 55.0291C73.9981 53.9331 73.2308 53.5393 72.0973 53.8474C71.1556 54.1042 70.1442 54.207 69.2374 54.5496C66.8135 55.4915 64.3895 55.9023 61.7563 55.6113C59.0534 55.303 56.2982 55.1831 53.5952 55.303C51.3631 55.4058 49.2531 55.1318 47.1953 54.3782C45.6607 53.8132 44.0912 53.5906 42.4869 53.8132C40.1677 54.1213 38.075 53.6418 36.087 52.426C35.1454 51.8611 34.0642 51.4329 32.983 51.2102C31.989 51.0049 30.9253 51.1589 29.879 51.1589C30.5068 51.6726 31.1869 52.135 31.9542 52.3748C33.3143 52.803 34.7443 52.957 36.0696 53.4536C38.2843 54.2756 40.4815 55.0291 42.888 55.012C43.446 55.012 44.0215 55.2517 44.597 55.3545C46.3583 55.6626 48.137 56.0051 49.9157 56.262C51.52 56.5017 53.1418 56.6899 54.7635 56.8098C56.5771 56.947 58.4431 57.2722 60.2043 56.9983C63.3607 56.5188 66.4647 55.8511 69.7083 56.1592C71.3823 56.3132 73.0215 55.8511 74.591 55.0291Z" fill="#FFFFFF" fill-opacity="1.000000" fill-rule="nonzero"/>
	<path id="Vector" d="M68.3527 48.3289C67.3414 48.4727 66.4648 48.6345 65.5715 48.6885C57.8181 49.2996 50.0814 49.0837 42.4459 47.3943C38.4175 46.5137 34.5407 45.1477 30.8831 43.0986C28.9785 42.0203 27.9671 40.4026 28.0008 38.0481C28.0177 34.5073 29.6526 31.8474 32.1304 29.7266C35.67 26.707 39.8502 25.269 44.1989 24.3164C50.0983 23.0225 56.0482 22.7527 62.0488 23.2021C64.0883 23.3459 66.1277 23.6155 68.1672 23.8491C69.1111 23.957 69.246 24.3164 68.6055 25.0894C67.9481 25.8982 67.1559 26.5811 66.5323 27.4258C66.0266 28.1089 65.5884 28.8997 65.3356 29.7266C64.2231 33.2671 64.2905 36.844 65.167 40.4207C65.7906 42.9907 66.802 45.3633 68.0324 47.6638C68.1167 47.8257 68.1841 47.9873 68.3527 48.3289Z" fill="#E86292" fill-opacity="1.000000" fill-rule="nonzero"/>
	<path id="Vector" d="M81 51.9714C79.1244 52.6416 77.3671 53.4834 75.5253 53.8442C73.9707 54.1533 72.2979 53.9128 70.6926 53.8784C68.2256 53.8269 65.7416 53.6035 63.2747 53.7239C61.4497 53.8098 59.743 53.5864 58.0703 52.9507C56.465 52.3323 54.809 52.0059 53.1024 52.1948C50.8043 52.4353 48.6921 52.0918 46.7828 50.6831C45.4817 49.7209 43.9609 49.446 42.3726 49.5664C41.5615 49.6179 40.8349 49.4631 40.159 48.9307C39.7197 48.5872 39.1958 48.3464 38.6889 48.1233C38.1144 47.8655 37.8947 47.5391 38.0468 46.8518C38.2665 45.9241 38.334 44.9622 38.4692 44C39.4155 44.5154 40.3618 45.0652 41.3418 45.5291C47.1714 48.3293 53.3727 49.6523 59.743 50.2534C65.3023 50.769 70.8785 50.8206 76.4377 50.2534C76.9615 50.2019 77.536 50.2019 78.0261 50.0129C79.192 49.5664 79.8679 50.0989 80.3917 51.0781C80.5607 51.4045 80.8141 51.6965 81 51.9714Z" fill="#E86292" fill-opacity="1.000000" fill-rule="nonzero"/>
</svg>
