<svg width="78.448982" height="135.333008" viewBox="0 0 78.449 135.333" fill="none" xmlns="http://www.w3.org/2000/svg" xmlns:xlink="http://www.w3.org/1999/xlink">
	<desc>
			Created with Pixso.
	</desc>
	<defs/>
	<path id="Vector" d="M29.0471 74.6038C29.5394 73.5964 29.9943 72.7327 30.4 71.8481C32.2978 67.7092 34.1628 63.5564 34.8276 58.9563C35.0926 57.2156 34.9489 57.0952 33.282 57.3477C32.8966 57.4041 32.5393 57.6316 32.1644 57.6128C31.7895 57.594 31.2545 57.4478 31.1154 57.1699C30.8566 56.6621 31.2774 56.3218 31.7523 56.1838C32.313 56.0222 32.867 55.8774 33.3814 55.7361C32.5734 54.4387 31.7721 53.1243 30.9179 51.8474C30.8011 51.6584 30.4926 51.5681 30.2593 51.5293C21.6162 50.8083 16.2583 45.6772 13.0704 37.6577C12.9448 37.3457 13.1958 36.8542 13.2551 36.4609C13.6388 36.603 14.1486 36.6191 14.3667 36.8904C16.5068 39.3679 19.0943 41.0979 22.055 42.2683C22.4387 42.4104 22.8359 42.5183 23.233 42.6262C23.2637 42.4998 23.307 42.4382 23.2877 42.3904C21.5757 38.3406 21.4149 34.0894 22.1002 29.7771C22.2466 28.823 22.1206 28.1721 21.5155 27.3789C19.6935 25.0159 18.7836 22.1814 18.0519 19.2827C17.0308 15.2261 16.4279 11.1267 17.0169 6.91309C17.0724 6.57812 17.1608 6.25684 17.2163 5.92163C17.2946 5.23755 17.675 4.99976 18.2907 4.94092C20.4867 4.75269 22.6436 4.90649 24.7941 5.41602C24.932 5.45435 25.0766 5.47559 25.2703 5.51758C25.6382 4.43774 25.983 3.36816 26.3673 2.29541C26.472 1.98096 26.6162 1.66357 26.7537 1.36304C27.4045 -0.095459 27.4151 -0.170654 28.965 0.165039C33.0144 0.998535 37.128 1.61987 41.0487 2.87695C43.237 3.58179 45.1624 3.49829 47.2946 3.08374C50.343 2.47852 53.4129 2.06152 56.4798 1.60352C56.8093 1.54346 57.2237 1.55908 57.512 1.70068C60.0306 3.02319 62.5992 4.26709 65.0341 5.75342C68.7911 8.05688 70.5684 11.7954 71.3305 16.1213C71.4993 17.1487 71.5265 18.196 71.6953 19.2236C71.7322 19.5181 71.9659 19.8955 72.2281 20.0063C76.2054 21.9446 77.7368 25.5793 78.441 29.7612C78.4973 30.1038 78.2463 30.5955 78.0067 30.9126C75.5924 34.2759 72.4004 36.6531 68.7412 38.2754C67.0998 38.9968 66.0082 40.0698 65.156 41.6023C63.8961 43.8792 62.587 46.1353 61.2539 48.5007C61.7897 48.5476 62.3487 48.5845 62.9308 48.6111C65.0982 48.6897 67.2917 48.7991 69.4696 48.8022C70.256 48.7957 71.0382 48.5085 71.8119 48.4368C72.1675 48.4077 72.531 48.6011 72.8954 48.6951C72.7705 49.0605 72.7662 49.5569 72.5208 49.7917C70.6599 51.5559 68.4196 52.6819 66.0566 53.5366C63.8092 54.3408 61.582 55.0935 59.3249 55.8735C55.5564 57.1909 51.7364 57.2312 47.8732 56.5564C47.4954 56.4963 47.0705 56.5559 46.691 56.6946C45.219 57.2285 43.7664 57.8103 42.2974 58.3853C42.1655 58.4292 42.0268 58.4902 41.9343 58.5308C42.5344 59.1428 43.1777 59.6934 43.6786 60.363C43.8639 60.6206 43.8714 61.281 43.6818 61.5198C43.3325 61.9697 42.937 61.6633 42.5782 61.3127C41.952 60.6697 41.2595 60.0984 40.672 59.5515C37.4389 66.6926 34.2866 73.6287 31.1006 80.6501C32.7409 80.8049 34.5048 81.1313 36.2683 81.1189C39.3512 81.106 42.1497 82.0088 44.8053 83.4685C46.8649 84.5972 48.7976 85.9512 50.3743 87.7722C54.176 92.1465 53.2413 97.5288 51.2831 101.045C50.9522 101.642 50.4916 101.647 50.0276 101.272C49.6486 100.972 49.2762 100.656 48.9733 100.309C46.9151 97.8657 44.2129 96.0872 42.4733 93.3208C42.4183 93.218 42.3275 93.0601 42.2388 93.0425C41.0129 92.9033 41.029 91.7947 40.7303 90.9514C40.5795 90.5093 40.5577 89.9822 39.887 89.938C39.7193 89.9268 39.5289 89.4878 39.4458 89.2136C39.2534 88.6345 39.1467 88.0317 38.9774 87.4421C38.2121 84.6289 36.4765 82.9202 33.664 82.4895C32.5633 82.3235 31.3988 81.9314 30.3409 82.1421C29.1808 82.3694 28.9675 83.8333 28.3672 84.7749C22.441 94.0459 16.9469 103.579 11.7864 113.332C8.0973 120.321 4.60491 127.392 1.4693 134.674C1.3251 134.991 0.811874 135.372 0.52272 135.33C-0.101814 135.265 -0.0504456 134.65 0.0887375 134.151C0.747269 131.799 1.28139 129.375 2.11055 127.076C3.80629 122.333 5.41712 117.516 7.48983 112.933C9.3847 108.752 11.7482 104.79 14.0461 100.8C18.6322 92.7961 23.2771 84.8369 27.9057 76.8708C28.2529 76.2803 28.2438 75.8184 27.7643 75.3369C26.7137 74.3157 25.7296 73.2229 24.6492 72.2288C23.5196 71.2139 22.1297 71.0056 20.7339 71.4919C19.5394 71.9038 18.4087 72.542 17.2268 73.019C16.8636 73.1646 16.4366 73.0837 16.0319 73.0923C15.8016 73.0945 15.5423 73.0249 15.3342 73.1165C14.816 73.3159 14.3132 73.6216 13.795 73.821C13.5474 73.9158 13.0994 73.9856 12.9788 73.855C12.5262 73.3052 11.9685 73.5081 11.4288 73.5193C10.4218 73.5522 9.36012 73.821 8.43469 73.5498C6.1375 72.8787 3.76828 73.3125 1.49335 72.7305C0.659531 72.5178 0.422119 72.1985 0.768143 71.3684C1.92057 68.5881 3.534 66.1418 5.98663 64.4282C8.33334 62.7896 10.9299 62.3123 13.6857 62.8384C17.4102 63.5745 20.776 65.0752 23.5487 67.8396C24.0542 68.3521 24.6156 68.8679 24.916 69.5127C25.8761 71.4917 27.6651 72.7253 29.0471 74.6038ZM64.1854 26.3516C64.7706 27.5349 65.3009 28.6155 65.8504 29.7439C67.1153 28.4253 68.1591 26.7944 68.9773 25.0083C71.1067 20.3296 70.3299 15.7983 68.2493 11.374C67.5094 9.80664 66.4286 8.47363 65.0052 7.57397C62.8847 6.26025 60.6573 5.12036 58.5233 3.84082C57.3613 3.15112 56.1912 3.01562 54.8992 3.28687C53.1592 3.62769 51.3977 3.78052 49.651 4.13843C47.1132 4.66064 44.5746 5.28198 42.0427 5.88623C40.6679 6.22217 39.9713 7.2627 39.6933 8.59961C39.1461 11.3965 39.9728 13.9568 40.8882 16.5344C41.0816 16.2375 41.1699 15.9163 41.2746 15.6021C42.0613 13.2649 43.309 11.2617 45.1064 9.61035C45.6436 9.11987 46.1177 9.08105 46.6329 9.61743C46.9262 9.94043 47.2859 10.1919 47.6091 10.4878C48.6923 9.63037 49.8763 9.29346 51.0783 9.54224C52.3853 9.81519 53.6638 10.355 54.9498 10.7783C57.4727 11.6047 59.9888 12.448 62.5251 13.24C63.5325 13.5459 63.7573 13.8 63.4028 14.8457C63.1464 15.594 62.831 16.2974 62.5485 17.0149C64.2593 18.1555 65.3615 19.6768 66.3838 21.3037C66.8153 22.0039 66.8169 22.5823 66.3541 23.2234C65.5978 24.3184 64.8483 25.3965 64.1854 26.3516ZM31.0626 12.1665C31.0184 12.3271 30.9213 12.5251 30.9032 12.7168C30.6949 14.3621 30.4538 15.9932 30.3342 17.656C30.1417 20.5229 29.6764 23.3545 28.5518 25.9673C28.0346 27.1831 28.235 27.9849 28.8846 28.9565C31.9087 33.4604 33.3302 38.782 35.7032 43.6287C35.768 43.7556 35.7498 43.947 35.8377 44.064C36.1205 44.4622 36.3494 44.9971 36.7361 45.1802C39.0395 46.2725 41.3631 47.3132 43.7069 48.303C44.7395 48.739 45.8692 48.9768 47.0539 49.3179C46.8893 45.9016 46.0861 42.8931 44.3718 40.2568C43.336 38.6641 42.022 37.2925 40.8735 35.7915C36.9921 30.7463 34.304 25.0493 32.551 18.8708C31.9184 16.6914 31.5497 14.4241 31.0626 12.1665ZM36.4185 52.636C37.6688 53.0046 39.0233 53.4968 40.422 53.8284C45.5115 54.9814 50.4528 54.6177 55.0794 51.8499C58.5021 49.8088 60.8414 46.7329 62.6358 43.1479C63.1445 42.1475 63.7187 41.1748 64.3102 40.1099C61.6472 40.6587 59.1296 41.1296 56.6275 41.7065C53.8683 42.3542 51.2732 43.4099 48.7837 44.8289C48.2116 45.165 48.0115 45.479 48.1501 46.1948C48.3739 47.3252 48.4427 48.5098 48.5085 49.6531C48.5588 50.6902 48.2969 50.9185 47.3109 50.8008C47.1268 50.783 46.9659 50.7546 46.7818 50.7368C43.4969 50.1465 40.4858 48.7158 37.4746 47.2849C37.1699 47.1365 36.8653 46.9878 36.6261 46.8669C36.5704 48.7559 36.4923 50.5557 36.4185 52.636ZM38.0562 28.2871C37.9898 28.3586 37.9167 28.4473 37.8503 28.5188C39.0839 30.4343 40.281 32.394 41.5975 34.2446C42.8426 35.9856 44.336 37.5325 45.5281 39.3108C46.4181 40.6428 47.0067 42.2061 47.7214 43.6433C53.2279 41.0679 58.4429 37.9709 62.7562 33.3777C53.8534 34.9175 45.7847 32.4468 38.0562 28.2871ZM23.5468 29.8899C22.8905 34.2742 23 38.3645 24.8747 42.2437C27.0276 46.6787 30.7089 49.3687 34.7917 51.6702C34.8859 51.4312 34.9628 51.2842 35.0002 51.1406C35.0625 50.7886 35.1151 50.4124 35.1282 50.0393C35.197 45.1082 33.6783 40.7617 30.4326 37.1599C28.2558 34.7268 25.953 32.4199 23.5468 29.8899ZM41.2876 4.55151C41.1044 4.43433 41.0359 4.36548 40.9703 4.33789C36.9643 3.44312 32.9679 2.57251 28.9686 1.66064C28.3873 1.53467 28.1419 1.76978 27.9863 2.26196C27.2786 4.59253 26.4755 6.92285 25.8893 9.28491C25.0583 12.5596 24.6051 15.8943 25.1186 19.2983C25.439 21.4456 26.0628 23.502 27.0132 25.457C27.1422 25.3721 27.2116 25.3416 27.225 25.3074C27.3221 25.1094 27.3961 24.9216 27.4769 24.7166C28.454 22.0415 28.7709 19.2468 28.9432 16.4312C29.1526 13.1331 29.8709 9.9502 31.213 6.93115C31.4946 6.31299 31.8393 6.02026 32.5382 6.23584C33.188 6.43042 33.8617 6.51562 34.5114 6.71021C35.7781 7.08569 37.0313 7.49536 38.3077 7.89502C38.8476 6.33008 39.7165 5.14307 41.2876 4.55151ZM71.5714 21.3826C71.0725 24.2993 69.9584 26.8369 68.2907 29.0811C67.3689 30.3054 66.1528 31.3059 65.2898 32.575C63.6936 34.929 61.6284 36.7263 59.4456 38.4343C58.8958 38.8594 58.3297 39.2778 57.7635 39.696C60.8652 39.3923 63.8578 38.7832 66.7205 37.5815C70.5013 35.9907 73.8824 33.8127 76.5231 30.5054C76.8956 30.0449 77.0839 29.5669 76.8684 28.9978C76.2924 27.4995 75.7992 25.9365 75.0778 24.5164C74.34 23.0894 73.1545 22.0708 71.5714 21.3826ZM30.108 34.7322C30.214 34.6572 30.3266 34.5654 30.4325 34.4907C29.5539 32.9841 28.7283 31.4402 27.7736 29.9814C23.8323 23.8748 22.4152 17.2803 24.2181 10.0334C24.4569 9.03882 24.6399 8.04028 24.8776 6.80591C22.6946 6.62134 20.663 6.44067 18.6246 6.27734C18.5325 6.65674 18.4951 6.80029 18.4577 6.94385C18.0059 9.74121 18.1891 12.5278 18.6951 15.2712C19.5501 19.8955 20.567 24.4482 23.9119 27.9922C26.0315 30.1821 28.0481 32.4878 30.108 34.7322ZM32.7364 7.67407C32.6724 8.22461 32.611 8.47778 32.6152 8.7583C32.6025 9.46997 32.5734 10.175 32.6069 10.8665C32.8394 15.5662 34.2627 19.9124 35.923 24.239C36.7339 26.3542 38.6558 26.6677 40.2422 27.7361C40.3112 27.3667 40.3621 27.189 40.3802 26.9976C40.9149 23.3586 40.2838 19.865 39.1949 16.417C38.5383 14.3469 38.0301 12.24 38.0161 10.0427C38.0082 9.82031 37.7909 9.44971 37.5875 9.38379C36.0363 8.80835 34.4486 8.27734 32.7364 7.67407ZM36.5795 58.0029C36.1623 59.8386 35.8375 61.6338 35.3191 63.3872C33.6446 69.0945 31.0263 74.3835 28.1331 79.4968C23.8799 87.0437 19.4204 94.4836 15.0428 101.958C11.754 107.542 8.58969 113.198 6.28642 119.337C5.78104 120.717 5.21008 122.07 4.66518 123.453C4.74712 123.488 4.82908 123.522 4.89464 123.55C4.95139 123.455 5.01488 123.342 5.07163 123.246C7.93839 117.763 10.6808 112.208 13.6652 106.815C17.2008 100.459 20.7527 94.1099 24.6384 87.9814C30.1883 79.229 34.7423 69.9963 38.4843 60.3013C38.6928 59.7717 38.9014 59.2422 39.1436 58.6274C38.2047 58.3904 37.3805 58.2017 36.5795 58.0029ZM17.5658 65.7517C12.3829 62.0693 3.96661 65.189 2.43162 71.5129C4.15564 71.5039 5.83049 71.4741 7.48515 71.4954C7.86678 71.4973 8.2572 71.6223 8.63124 71.7402C8.93972 71.8308 9.24355 72.0786 9.52977 72.0798C10.5696 72.0608 11.6418 71.7166 12.6038 71.9436C13.9793 72.2854 14.9364 71.554 16.049 71.1074C16.2802 71.0059 16.6433 70.8604 16.7938 70.9636C17.3695 71.3462 17.797 70.9888 18.2757 70.7925C19.0184 70.5085 19.7649 70.1665 20.5395 69.9954C21.3931 69.8181 22.298 69.8018 23.1739 69.7134C23.2076 69.6279 23.2412 69.5425 23.2748 69.457C22.623 69.1221 21.9914 68.7358 21.3126 68.4692C17.2798 66.866 13.1905 66.4741 9.04452 68.0701C8.54939 68.2595 8.0753 68.2983 7.87323 67.6951C7.64511 67.0608 8.09779 66.8337 8.57653 66.6375C10.4549 65.8967 12.3925 65.5396 14.3893 65.5659C15.432 65.5879 16.4642 65.6851 17.5658 65.7517ZM38.1531 82.6917C38.7565 83.6836 39.2691 84.5176 39.7683 85.3857C40.3389 86.3638 40.2382 87.7356 41.4107 88.3501C41.4927 88.3848 41.5208 88.5559 41.5527 88.6692C41.9405 89.8687 42.1567 91.1155 43.291 91.9729C44.0819 92.5857 44.5697 93.6284 45.2172 94.4595C45.3668 94.6621 45.629 94.7729 45.8383 94.9209C46.1884 95.1484 46.5981 95.3215 46.8654 95.6135C47.9991 96.9092 49.0799 98.2419 50.2977 99.7124C51.6464 96.6763 51.9267 93.926 50.7768 91.0698C49.6879 88.3989 45.6998 85.4202 43.5451 84.6299C43.8615 84.9426 44.0998 85.1628 44.3313 85.4001C46.1971 87.2634 47.7452 89.3516 48.7203 91.8748C48.9328 92.4028 49.158 92.9958 48.4385 93.2698C47.8046 93.52 47.5756 92.9851 47.3727 92.4812C45.559 88.01 42.2484 85.0583 38.1531 82.6917ZM59.6701 24.2258C59.333 24.4023 59.0682 24.5894 58.7744 24.7043C56.7649 25.3896 54.7613 26.1572 52.7005 26.6816C50.4683 27.2529 48.1857 27.5642 45.9148 28.0396C44.9523 28.2507 44.015 28.592 43.0651 28.8682C43.0575 28.9846 43.0432 29.1179 43.0356 29.2344C45.2799 29.9429 47.5413 30.5591 49.7452 31.3701C52.2344 32.2817 54.4049 31.6245 56.6721 30.4304C58.9856 29.2158 59.6983 27.0667 59.6701 24.2258ZM56.0541 23.1174C58.5241 20.5349 60.681 18.0193 61.8129 14.9512C58.7895 13.7942 55.8905 12.7095 52.9983 11.6079C52.5818 11.4519 52.172 11.2788 51.7354 11.1741C50.7734 10.9473 49.8 10.8948 48.629 11.6355C50.2162 12.6045 51.6501 13.429 53.0407 14.3149C53.4824 14.6011 54.006 14.9219 54.2523 15.3645C55.5153 17.6907 56.2109 20.1956 56.0541 23.1174ZM51.6188 20.886C52.4384 20.4553 53.2118 20.0447 53.9755 19.6104C54.0978 19.5422 54.2189 19.2349 54.1609 19.0908C53.6244 17.5894 53.4953 15.782 51.5683 15.2869C51.2762 15.2036 50.9753 14.9968 50.7236 14.8108C49.2528 13.6917 47.7819 12.5728 46.341 11.4263C46.0371 11.1785 45.8316 10.9722 45.463 11.3743C43.4541 13.5142 42.4152 16.1035 41.9318 19.1265C42.7889 18.5522 43.4976 18.0146 44.2613 17.5803C47.6302 15.676 50.6065 16.9526 51.4343 20.5293C51.444 20.5532 51.4797 20.6082 51.6188 20.886ZM41.9495 27.3811C45.5452 26.6484 49.2102 25.8853 52.8849 25.1458C53.1749 25.0891 53.4813 25.0391 53.7356 24.9272C53.9436 24.8359 54.2017 24.666 54.2362 24.4814C54.4297 23.4077 54.5509 22.3232 54.7116 21.2358C52.5243 22.3242 50.4366 22.9167 48.2478 22.6501C46.1149 22.387 44.0106 21.8569 41.9874 21.4609C41.9904 23.3945 41.9561 25.4717 41.9495 27.3811ZM51.1252 55.2402C51.1311 55.3223 51.1533 55.4114 51.1525 55.5105C52.6403 55.4216 54.1496 55.521 55.5966 55.1958C60.0796 54.2002 64.3836 52.5911 68.5976 50.7251C68.7132 50.6743 68.7931 50.5686 68.9356 50.4495C66.0319 50.2991 63.2466 50.1389 60.4576 50.0371C60.0432 50.0215 59.5346 50.2449 59.2295 50.5344C57.0701 52.571 54.626 54.0688 51.8448 54.9663C51.5972 55.061 51.366 55.1626 51.1252 55.2402ZM16.3641 41.0405C19.0624 46.3235 25.1422 49.7671 29.0769 49.7751C28.2125 48.9121 27.1825 48.1785 26.5068 47.176C25.2173 45.2568 23.5287 44.2053 21.3828 43.5383C19.6177 42.9722 18.0052 41.873 16.3641 41.0405ZM61.8552 18.4353C60.5744 20.0857 59.3368 21.6748 57.9693 23.448C58.7129 23.0647 59.2648 22.7798 59.8002 22.488C60.8183 21.9417 61.257 22.1868 61.2304 23.3708C61.1961 24.6711 61.0501 25.9641 60.9658 27.3428C62.5631 26.0054 63.8826 24.4509 64.9639 22.6763C65.0639 22.5193 65.1455 22.2151 65.0644 22.0813C64.2379 20.6367 63.2689 19.311 61.8552 18.4353ZM63.1508 27.6677C60.913 29.2727 58.8407 30.7483 56.7685 32.2241C58.6968 32.1816 60.6558 32.0127 62.5896 31.7139C64.2796 31.4512 64.5873 30.864 63.9967 29.1604C63.7908 28.6152 63.4231 28.1414 63.1508 27.6677ZM33.2209 52.6006C35.634 57.0061 39.8774 58.22 44.572 55.9592C40.4818 55.6665 36.7002 54.6873 33.2209 52.6006ZM49.9422 21.1145C49.8104 19.6045 49.0722 18.6155 47.8643 18.2849C46.5909 17.9265 44.3523 18.8538 43.4729 20.116C45.5649 20.9197 47.6999 21.323 49.9422 21.1145Z" fill="#FFFFFF" fill-opacity="1.000000" fill-rule="nonzero"/>
</svg>
