<?xml version="1.0" encoding="utf-8"?><svg viewBox="0 0 147.109 206.707" xmlns="http://www.w3.org/2000/svg" xmlns:xlink="http://www.w3.org/1999/xlink"><style>:root>svg{display:none}:root>svg:target{display:block}</style><svg viewBox="0 0 24 24" id="arrow" xmlns="http://www.w3.org/2000/svg"><defs><clipPath id="aa"><path fill-opacity="0" d="M0 0h24v24H0z"/></clipPath></defs><g clip-path="url(#aa)"><path d="M16 10l-4 5-4-5"/></g></svg><svg viewBox="0 0 25 38" id="arrowLink" xmlns="http://www.w3.org/2000/svg"><path d="M1 1l22.5 18L1 37"/></svg><svg viewBox="0 0 50 46" id="customisedColor" xmlns="http://www.w3.org/2000/svg"><path d="M13.45 9.839c-1.39 1.699-2.265 4.173-2.265 6.183 0 .693.104 1.33.327 1.862.22-.12.44-.23.65-.35 1.349-.822 2.708-1.644 4.047-2.485.49-.3.999-.371 1.529-.23.65.16 1.179.52 1.309 1.222.03.174.048.344.048.51 0 .582-.205 1.108-.718 1.513-1.02.802-2.098 1.553-3.058 2.415-.42.38-.64.992-.929 1.503a.1.1 0 00-.015.058.23.23 0 00.035.122c.91 1.052.99 2.455 1.549 3.657.09.19.21.37.33.55.17.241.36.271.62.07.749-.57 1.178-1.352 1.478-2.213.5-1.413.7-2.886.71-4.378 0-.411.04-.792.47-.962.41-.16.719.04 1.029.32.85.772 1.709 1.543 2.588 2.285 2.118 1.803 5.256 1.713 7.225-.26a117.41 117.41 0 004.847-5.13c.58-.652.94-1.523 1.329-2.315.23-.46.3-.992.48-1.473.104-.295.182-.57.182-.849 0-.277-.078-.558-.282-.864a1.451 1.451 0 01-.23-.813c0-.61.307-1.253.76-1.571.739-.521 1.938-.38 2.558.31a715.197 715.197 0 013.647 4.128c.17.19.28.451.35.701.39 1.463.76 2.936 1.109 4.409a2.611 2.611 0 01.02 1.072c-.33 1.753-.68 3.496-1.05 5.24-.06.3-.21.6-.389.841a1879.795 1879.795 0 01-6.745 8.827c-.367.473-.56.966-.56 1.544 0 .132.01.268.03.41.46 3.105.87 6.21 1.29 9.317.007.056.011.111.011.165 0 .407-.231.707-.611.787-.42.08-.78-.18-.85-.692-.27-1.843-.52-3.697-.78-5.55-.18-1.273-.33-2.545-.52-3.817a4.182 4.182 0 01-.051-.65c0-.878.296-1.67.851-2.396 2.069-2.695 4.128-5.41 6.216-8.095a4.32 4.32 0 00.89-1.974c.24-1.312.53-2.615.769-3.927a2.607 2.607 0 00-.01-.992c-.29-1.262-.62-2.525-.95-3.777-.07-.25-.17-.521-.34-.711-1.098-1.273-2.228-2.525-3.347-3.788-.04-.05-.09-.13-.14-.14a4.39 4.39 0 01-.09-.017c-.16-.032-.351-.07-.41-.003a.667.667 0 00-.116.377c0 .063.01.119.037.154.74 1.052 1.509 2.074 2.278 3.106.07.09.21.16.32.18 1.057.155 1.7.852 1.7 1.822 0 .157-.016.322-.051.493-.3 1.472-.72 2.925-.92 4.408-.29 2.114-1.359 3.877-2.278 5.72-.22.431-.63.552-1.01.361a.7.7 0 01-.397-.634.91.91 0 01.098-.398c.3-.63.61-1.262.95-1.873.509-.932.879-1.894 1.069-2.936.3-1.653.689-3.296 1.029-4.939a.306.306 0 00.005-.06c0-.084-.03-.178-.058-.27a1.508 1.508 0 01-.047-.17c-.12.13-.29.24-.34.4-.63 1.823-1.23 3.667-1.869 5.49-.12.33-.33.661-.59.892a614.292 614.292 0 01-6.625 5.951c-1.208 1.063-1.779 2.382-1.779 3.976v.041c.01 4.359.01 8.717.01 13.075l.002.173.001.178c0 .117-.003.235-.013.35-.03.411-.29.642-.68.672-.399.03-.659-.2-.768-.582a1.362 1.362 0 01-.032-.33 8.003 8.003 0 01.002-.17l-.003-4.49-.002-4.495c0-1.497.001-2.995.005-4.49 0-1.995.759-3.668 2.238-5 .44-.4 1.09-.731 1.28-1.222a.856.856 0 00.054-.32c0-.245-.074-.52-.148-.794a5.18 5.18 0 01-.127-.54c-.05-.37-.09-.75-.13-1.162-4.007 3.066-7.584 2.235-10.852-1.152-.31 1.242-.53 2.415-.89 3.547-.36 1.142-.979 2.154-2.048 2.955.69.602 1.289 1.233 1.998 1.704 2.299 1.543 3.918 3.656 5.067 6.131.28.601.33 1.322.38 1.994.21 2.494.39 4.99.57 7.494l.003.109c0 .488-.253.795-.663.832-.43.04-.76-.27-.81-.831-.12-1.393-.22-2.795-.33-4.198-.11-1.383-.2-2.765-.32-4.148-.02-.28-.11-.56-.23-.811-1.128-2.224-2.577-4.138-4.726-5.5-.8-.511-1.409-1.323-2.168-1.924-1.21-.952-2.05-2.104-2.379-3.627-.1-.47-.32-.912-.47-1.372-.09-.29-.24-.431-.62-.28.07.38.13.78.21 1.181.2 1.052.39 2.094.62 3.136.09.4.24.792.43 1.162.53 1.022 1.1 2.024 1.639 3.036.11.21.165.4.165.566 0 .255-.127.457-.375.596-.41.23-.79.07-1.09-.46-.649-1.183-1.328-2.355-1.928-3.567-.22-.451-.28-.992-.38-1.493-.23-1.142-.44-2.294-.68-3.436a2.152 2.152 0 01-.049-.449c0-.66.35-1.156.91-1.585.21-.16.449-.371.539-.611.46-1.213 1.25-2.125 2.328-2.846.75-.49 1.42-1.102 2.139-1.653.138-.106.237-.211.237-.346a.419.419 0 00-.087-.235c-.18-.26-.36-.16-.55-.04-1.639.992-3.278 1.984-4.906 2.995-.17.1-.29.321-.38.511-.6 1.353-1.21 2.706-1.75 4.088a1.903 1.903 0 00-.123.699c0 .193.025.385.074.554q.884 3.02 1.889 6.01c.15.452.47.892.81 1.223 1.838 1.743 3.717 3.447 5.595 5.15.294.267.437.542.437.91 0 .045-.003.093-.007.142-.19 2.214-.35 4.428-.53 6.642-.04.501-.38.822-.79.801-.41-.028-.682-.337-.682-.829 0-.033 0-.067.003-.102.15-2.014.3-4.028.48-6.041.004-.042.006-.082.006-.12 0-.275-.096-.469-.316-.662-1.739-1.583-3.467-3.186-5.196-4.769a4.463 4.463 0 01-1.3-2.044 542.787 542.787 0 00-1.798-5.72 3.753 3.753 0 01-.19-1.154c0-.495.11-.983.33-1.471.52-1.152 1-2.325 1.509-3.487a.985.985 0 00.097-.408c0-.133-.032-.268-.097-.423a7.032 7.032 0 01-.512-2.696c0-.703.09-1.412.242-2.123.34-1.603.99-3.076 1.879-4.439 1.908-2.915 3.767-5.86 5.296-9.007.22-.45.64-.6 1.04-.41a.703.703 0 01.402.636.884.884 0 01-.123.436 296.62 296.62 0 01-3.537 6.271c-.172.292-.261.548-.261.83 0 .145.023.296.07.463.43 1.523.81 3.056 1.2 4.598.033.136.06.296.06.444 0 .124-.02.24-.07.328-.12.2-.43.38-.67.4-.39.03-.62-.27-.71-.65-.299-1.183-.609-2.355-.909-3.537-.09-.13-.14-.28-.19-.461zm25.783-5.11c.2-.811.36-1.553.59-2.284.08-.25.26-.54.47-.641.19-.09.569-.05.729.09.149.132.267.425.267.644 0 .03-.002.06-.007.087-.2.982-.46 1.944-.72 2.906a.985.985 0 00-.04.26c0 .21.101.363.32.531.23.18.46.531.46.802-.01.611-.68.821-1.25.43-1.489-1.011-2.558-2.384-3.247-4.037-.33-.791-.53-1.643-.74-2.485a1.183 1.183 0 01-.04-.296c0-.384.223-.649.57-.705.49-.09.81.16.91.751a8.938 8.938 0 001.438 3.587c.06.11.15.2.29.36zM28.221 2.605a2.975 2.975 0 00-.027.402c0 .612.176 1.249.446 1.873.31.731.59 1.482.85 2.244.08.237.117.474.117.704 0 .869-.541 1.64-1.426 1.94-.49.171-.98.332-1.47.482-.43.13-.809-.05-.939-.421a.865.865 0 01-.048-.28c0-.302.177-.568.508-.692.5-.19 1-.35 1.509-.51.274-.087.412-.216.412-.427a.81.81 0 00-.062-.285c-.35-.882-.65-1.783-1.01-2.665-.295-.71-.37-1.435-.37-2.166 0-.364.02-.728.037-1.093.009-.166.017-.332.023-.498.02-.4.34-.601.74-.591.44.02.66.3.7.711.016.156.02.313.02.475 0 .117-.002.236-.005.361-.002.138-.005.282-.005.436zm1.498 11.562c-.59-.28-1.049-.551-1.538-.711-.18-.06-.48.1-.67.24-.51.36-.99.451-1.479.01-.22-.19-.43-.17-.68-.02-.26.16-.54.29-.779.541.22.01.45.02.67.04.3.038.512.164.512.478 0 .02 0 .041-.003.063-.03.34-.26.451-.56.421-.949-.07-1.888-.13-2.837-.23-.17-.02-.43-.23-.44-.371a.311.311 0 01-.002-.034c0-.18.141-.442.292-.517a65.656 65.656 0 013.277-1.573c.18-.08.5.01.68.14.4.28.75.36 1.16.02.479-.41.928-.36 1.498-.06.92.491 1.919.842 2.888 1.232l.064.026c.244.097.476.19.476.507v.018c-.01.401-.34.461-.63.511-.67.11-1.349.21-2.018.3l-.087.012c-.32.042-.67.087-.743-.372a.817.817 0 01-.009-.116c0-.388.331-.457.679-.485.02.014.05.004.133-.023a3.96 3.96 0 01.146-.047zm3.478 9.788c.1-.06.18-.1.23-.15 1.22-1.092 2.438-2.174 3.638-3.276.17-.16.3-.4.37-.631a544.711 544.711 0 001.848-5.54.847.847 0 00.038-.239.342.342 0 00-.038-.172c-.24-.371-.52-.722-.78-1.072-.07.05-.11.07-.12.09-.07.19-.13.38-.18.57a9.272 9.272 0 01-2.478 4.269 90.687 90.687 0 00-2.338 2.464c-.12.13-.28.281-.31.441a8.58 8.58 0 00-.126 1.427c0 .6.074 1.205.246 1.82zm-6.326-6.221c-1.039-.06-2.028-.21-2.938-.722-.19-.11-.42-.22-.5-.39a.92.92 0 01-.078-.376.58.58 0 01.059-.276c.06-.11.47-.16.59-.07 1.209.962 2.618.892 4.007.712.59-.08 1.139-.481 1.719-.692.19-.07.54-.06.64.06.048.054.071.17.071.288 0 .147-.035.3-.102.344-.47.32-.98.65-1.519.811-.62.19-1.289.21-1.948.31zm15.42 11.651c.11.03.29.07.46.14 2.188.872 4.387 1.744 6.575 2.606.34.14.63.31.67.721a.818.818 0 01.004.083c0 .541-.554.857-1.154.618A804.115 804.115 0 0144.45 31.8c-.83-.33-1.67-.661-2.499-1.002-.304-.124-.473-.356-.473-.647 0-.062.008-.127.023-.195.08-.35.33-.56.79-.57zM.809 33.453c-.46-.03-.75-.24-.8-.651A.94.94 0 010 32.669c0-.347.214-.581.58-.689.969-.28 1.948-.55 2.917-.821 1.31-.36 2.619-.742 3.938-1.072.23-.06.58.04.75.2.105.107.181.333.181.517a.391.391 0 01-.042.195c-.13.24-.43.46-.7.54-1.958.572-3.927 1.103-5.895 1.654-.31.09-.63.18-.92.26z" fill-rule="evenodd"/></svg><svg viewBox="0 0 49 49" id="efficient" xmlns="http://www.w3.org/2000/svg"><defs><clipPath id="da"><path fill-opacity="0" d="M0 0h49v49H0z"/></clipPath></defs><path d="M0 0h49v49H0z"/><g clip-path="url(#da)"><path d="M49 25.175c-.082.434-.145.868-.246 1.293-1.288 5.604-4.606 9.49-9.917 11.661-1.858.757-3.811 1.056-5.818 1.066-.125 0-.275.077-.376.164-1.457 1.254-3.092 2.185-4.964 2.662-1.283.323-2.58.41-3.897.241-.092-.01-.218.02-.276.078-.955.945-1.9 1.895-2.846 2.845-.019.024-.033.053-.072.11.343.324.685.647 1.008.956-.94.94-1.852 1.852-2.759 2.754l-1.399-1.413c.42-.415.854-.844 1.26-1.25-4.323-4.32-8.63-8.633-12.948-12.944l-4.35 4.35-1.405-1.403 5.808-5.807c.458.463.96.97 1.462 1.48.087-.062.135-.091.173-.125.796-.786 1.587-1.572 2.388-2.353a.912.912 0 00.294-.608c.078-.993.17-1.982.237-2.976.12-1.77.198-3.55.733-5.257.304-.979.738-1.914 1.047-2.893.714-2.262 1.394-4.539 2.074-6.81.333-1.114 1.085-1.77 2.21-1.958 1.167-.193 2.117.207 2.802 1.191.695.998 1.254 2.064 1.404 3.29.067.568.062 1.152.024 1.726-.102 1.538-.29 3.067-.666 4.567-.178.714-.395 1.423-.579 2.136a.522.522 0 00.053.372 16.48 16.48 0 012.45 6.607c.126.864.14 1.741.218 2.614.01.12.048.26.12.352 2.224 2.687 5.022 4.437 8.466 5.055 6.343 1.133 12.532-2.19 15.157-8.088a13.562 13.562 0 001.138-6.67c-.473-6.082-4.795-11.175-10.733-12.472-5.161-1.129-9.638.26-13.338 4.07-.034.034-.067.073-.101.102-.01.01-.029.014-.058.028-.482-.434-.974-.872-1.486-1.335a16.202 16.202 0 013.126-2.696c-.395-.4-.786-.796-1.186-1.196l-1.25 1.263c-.487-.501-.94-.97-1.37-1.408l4.009-4.008c.415.42.883.887 1.365 1.375l-1.298 1.282c.536.536 1.047 1.047 1.563 1.549.039.038.155.048.208.019a15.842 15.842 0 013.849-1.196c.063-.01.164-.097.164-.15.014-.405.01-.815.01-1.249h-2.026c-.01-.096-.024-.164-.024-.231V.149c0-.048.01-.096.014-.144h10.226c.005.048.015.096.015.144v5.788c0 .067-.014.14-.024.236H36.65v1.539a16.62 16.62 0 013.739 1.345c.058.03.183-.02.24-.072.266-.246.517-.507.773-.762.333-.333.67-.666 1.027-1.028-.458-.448-.897-.882-1.307-1.282l1.384-1.375c1.337 1.336 2.692 2.691 4.014 4.008-.434.444-.888.916-1.375 1.413l-1.259-1.273-1.558 1.543c.063.048.14.106.212.164 3.276 2.45 5.364 5.657 6.218 9.665.092.42.164.849.241 1.268v3.849zM19.242 36.687c.03-.096.049-.173.078-.25.771-2.301.998-4.66.636-7.056-.366-2.44-1.191-4.707-2.72-6.68a.38.38 0 01-.068-.396c.217-.69.43-1.379.632-2.069.439-1.533.69-3.1.81-4.687.044-.584.082-1.177.024-1.751-.091-.883-.54-1.635-1.022-2.363-.212-.319-.473-.463-.854-.4-.357.057-.516.284-.617.617-.753 2.464-1.5 4.938-2.272 7.398-.246.781-.618 1.52-.85 2.3-.482 1.611-.53 3.29-.641 4.954-.068.983-.15 1.967-.246 2.951-.067.637-.313 1.201-.8 1.654-.536.502-1.043 1.028-1.559 1.549-.328.332-.641.675-.926.979 3.43 3.433 6.884 6.882 10.366 10.369.044-.053.092-.135.16-.203 1.08-1.07 2.165-2.127 3.232-3.212.265-.27.516-.313.873-.241 2.247.453 4.331-.024 6.285-1.182.043-.029.101-.038.15-.058-3.112-.747-5.746-2.204-7.98-4.364-.25.955-.496 1.886-.747 2.836a150.03 150.03 0 00-1.944-.695zM36.637 4.104V2.06h-6.16v2.045h6.16zm-4.105 3.227h2.055V6.159h-2.055V7.33z"/><path d="M32.556 11.348h2.016v.28c0 2.233.005 4.466-.005 6.704 0 .236.053.342.294.42 1.674.544 2.798 2.121 2.798 3.896a4.064 4.064 0 01-2.797 3.868c-.222.072-.295.164-.295.4.015.883 0 1.77.01 2.653.005.202-.063.26-.26.255a38.51 38.51 0 00-1.52 0c-.183.005-.25-.048-.246-.246.01-.906 0-1.818.01-2.724 0-.188-.058-.26-.237-.319-1.852-.598-3.048-2.363-2.836-4.287.188-1.707 1.129-2.884 2.745-3.482.255-.097.328-.208.328-.473-.015-2.228-.005-4.451-.005-6.68v-.265zm.979 9.217c-1.158.028-2.074.974-2.05 2.117.024 1.152.984 2.05 2.166 2.02 1.104-.024 2.02-1.003 1.992-2.126-.034-1.124-.994-2.04-2.108-2.011zM4.086 37.748c.458-.453.921-.916 1.375-1.365.66.666 1.33 1.341 1.987 1.997-.439.444-.912.912-1.365 1.37-.661-.656-1.327-1.327-1.997-2.002z"/></g></svg><svg viewBox="0 0 48.501 49.52" id="expertise" xmlns="http://www.w3.org/2000/svg"><path d="M26.533 29.613a8.144 8.144 0 01-1.622 3.804 8.067 8.067 0 01-1.806 1.722.36.36 0 00-.18.353c.011.336.006.672.006 1.04.555.112 1.104.224 1.648.33 2.27.46 4.549.891 6.806 1.393 2.383.528 4.217 2.534 4.598 4.907a20.5 20.5 0 01.266 3.452c-.005.88 0 1.755 0 2.656H.272c-.006-.069-.022-.138-.022-.208.01-1.323-.005-2.65.054-3.974.05-1.152.17-2.31.67-3.382.908-1.958 2.459-3.131 4.608-3.558 2.606-.517 5.217-1.04 7.823-1.563.06-.01.12-.032.212-.059 0-.373.01-.757-.005-1.136-.006-.074-.098-.16-.169-.213-1.78-1.264-2.91-2.945-3.373-5.052-.038-.165-.065-.33-.103-.523-.746-.02-1.388-.282-1.845-.89-.299-.4-.44-.854-.413-1.35.054-1.104.816-1.814 2.176-2.038.022-.117.043-.24.07-.357.207-.768.85-1.238 1.736-1.34 2.786-.308 5.397-1.12 7.71-2.725.478-.33.93-.71 1.36-1.104.973-.886 2.132-.63 2.66.57.326.747.701 1.478 1.104 2.193.174.31.43.613.724.822.701.49 1.202 1.093 1.343 1.936 1.497.213 2.28.96 2.28 2.155-.022 1.195-.81 1.926-2.34 2.14zm-1.225-2.326c0-.496.006-.997 0-1.493-.005-.502-.195-.918-.625-1.206-.484-.325-.87-.747-1.203-1.216-.56-.795-.946-1.675-1.316-2.56-.13-.315-.229-.331-.49-.102-.332.288-.652.587-1.006.854-2.606 1.99-5.615 2.965-8.857 3.344-.484.059-.631.203-.631.683 0 .918-.011 1.83.005 2.747.011.459.033.928.12 1.377.729 3.696 4.118 6.091 7.932 5.606 2.796-.357 5.196-2.48 5.865-5.17.234-.949.212-1.904.206-2.864zM10.99 38.372c-.12.022-.206.038-.299.053-1.665.331-3.34.64-5 1.003-2.013.438-3.318 1.66-3.808 3.628-.397 1.6-.359 3.243-.32 4.88 0 .017.015.028.032.049h9.4c-.005-3.206-.005-6.396-.005-9.613zm23.922 9.613c.01-.038.027-.064.027-.085.01-1.467.027-2.934-.218-4.385-.348-2.086-1.773-3.623-3.819-4.065-1.273-.278-2.551-.518-3.83-.774-.495-.101-.99-.197-1.501-.298v9.612c3.128-.005 6.234-.005 9.34-.005zm-13.84 0h3.155V38.1c-.43-.085-.849-.165-1.306-.256v5.75c-.636-.447-1.224-.864-1.85-1.301v5.692zM12.321 38.1v9.885h3.145v-5.692l-1.877 1.318v-5.762c-.44.086-.849.166-1.268.251zm9.298-2.118c-2.247.907-4.467.918-6.708.016 0 .208-.016.385.005.555.011.08.066.187.136.23 1.007.645 2.019 1.29 3.03 1.92.066.043.213.037.284-.005a397.31 397.31 0 003.106-1.905c.06-.037.13-.112.136-.176.022-.197.01-.395.01-.635zm-4.793 6.887c-.016.064-.033.096-.033.128 0 .63-.01 1.264.006 1.894 0 .09.087.208.168.272.85.656 1.703 1.302 2.557 1.947.06.043.126.08.223.139 0-.715.006-1.382-.005-2.043 0-.08-.076-.176-.147-.23-.38-.298-.773-.592-1.159-.885-.533-.406-1.06-.806-1.61-1.222zm2.916.592c0-.72 0-1.365-.005-2.01 0-.06-.055-.134-.104-.172-.451-.325-.908-.645-1.37-.97-.463.325-.915.645-1.383.976.963.736 1.883 1.435 2.862 2.176zm1.86-5.233c-.734.454-1.436.88-2.165 1.334.73.517 1.431 1.008 2.166 1.526v-2.86zm-6.675.01v2.855c.724-.507 1.41-.998 2.127-1.505-.723-.458-1.409-.896-2.127-1.35zm11.703-9.959c.506.043.908-.314.919-.794.005-.496-.386-.864-.92-.838v1.633zm-8.08 19.706l-1.74-1.323v1.323h1.74zM9.864 26.637c-.522.02-.892.405-.865.874.027.448.408.79.865.763v-1.637z"/><path d="M24.911 33.417a8.067 8.067 0 01-1.806 1.722.36.36 0 00-.18.353c.011.336.006.672.006 1.04.555.112 1.104.224 1.648.33 2.27.46 4.549.891 6.806 1.393 2.383.528 4.217 2.534 4.598 4.907a20.5 20.5 0 01.266 3.452c-.005.88 0 1.755 0 2.656H.272c-.006-.069-.022-.138-.022-.208.01-1.323-.005-2.65.054-3.974.05-1.152.17-2.31.67-3.382.908-1.958 2.459-3.131 4.608-3.558 2.606-.517 5.217-1.04 7.823-1.563.06-.01.12-.032.212-.059 0-.373.01-.757-.005-1.136-.006-.074-.098-.16-.169-.213-1.78-1.264-2.91-2.945-3.373-5.052-.038-.165-.065-.33-.103-.523-.746-.02-1.388-.282-1.845-.89-.299-.4-.44-.854-.413-1.35.054-1.104.816-1.814 2.176-2.038.022-.117.043-.24.07-.357.207-.768.85-1.238 1.736-1.34 2.786-.308 5.397-1.12 7.71-2.725.478-.33.93-.71 1.36-1.104.973-.886 2.132-.63 2.66.57.326.747.701 1.478 1.104 2.193.174.31.43.613.724.822.701.49 1.202 1.093 1.343 1.936 1.497.213 2.28.96 2.28 2.155-.022 1.195-.81 1.926-2.34 2.14a8.144 8.144 0 01-1.62 3.803zm.397-7.623c-.005-.502-.195-.918-.625-1.206-.484-.325-.87-.747-1.203-1.216-.56-.795-.946-1.675-1.316-2.56-.13-.315-.229-.331-.49-.102-.332.288-.652.587-1.006.854-2.606 1.99-5.615 2.965-8.857 3.344-.484.059-.631.203-.631.683 0 .918-.011 1.83.005 2.747.011.459.033.928.12 1.377.729 3.696 4.118 6.091 7.932 5.606 2.796-.357 5.196-2.48 5.865-5.17.234-.949.212-1.904.206-2.864 0-.496.006-.997 0-1.493zM10.69 38.425c-1.665.331-3.34.64-5 1.003-2.013.438-3.318 1.66-3.808 3.628-.397 1.6-.359 3.243-.32 4.88 0 .017.015.028.032.049h9.4c-.005-3.206-.005-6.396-.005-9.613-.12.022-.206.038-.299.053zM34.938 47.9c.01-1.467.027-2.934-.218-4.385-.348-2.086-1.773-3.623-3.819-4.065-1.273-.278-2.551-.518-3.83-.774-.495-.101-.99-.197-1.501-.298v9.612c3.128-.005 6.234-.005 9.34-.005.012-.038.028-.064.028-.085zm-10.712.085V38.1c-.43-.085-.849-.165-1.306-.256v5.75c-.636-.447-1.224-.864-1.85-1.301v5.692h3.156zm-11.904 0h3.145v-5.692l-1.877 1.318v-5.762c-.44.086-.849.166-1.268.251v9.885zm2.59-11.987c0 .208-.016.384.005.555.011.08.066.187.136.23 1.007.645 2.019 1.29 3.03 1.92.066.043.213.037.284-.005a397.31 397.31 0 003.106-1.905c.06-.037.13-.112.136-.176.022-.197.01-.395.01-.635-2.246.907-4.466.918-6.707.016zm1.882 7c0 .629-.01 1.263.006 1.893 0 .09.087.208.168.272.85.656 1.703 1.302 2.557 1.947.06.043.126.08.223.139 0-.715.006-1.382-.005-2.043 0-.08-.076-.176-.147-.23-.38-.298-.773-.592-1.159-.885-.533-.406-1.06-.806-1.61-1.222-.016.064-.033.096-.033.128zm2.944-1.548c0-.059-.055-.133-.104-.17-.451-.326-.908-.646-1.37-.971-.463.325-.915.645-1.383.976.963.736 1.883 1.435 2.862 2.176 0-.72 0-1.365-.005-2.01zm-.3-1.888c.73.517 1.431 1.008 2.166 1.526v-2.86c-.735.454-1.437.88-2.166 1.334zm-4.51 1.53c.724-.506 1.41-.997 2.127-1.504-.723-.458-1.409-.896-2.127-1.35v2.855zM27.55 27.486c.005-.496-.386-.864-.92-.838v1.633c.507.042.91-.315.92-.795zM16.81 46.662v1.323h1.742c-.61-.464-1.16-.88-1.741-1.323zm-7.812-19.15a.812.812 0 00.865.762v-1.637c-.522.02-.892.405-.865.874z"/><path d="M8.565 23.955H7.313c-.483-4.317 1.826-9.24 6.862-11.101a10.591 10.591 0 0113.47 5.826c.44.055.857.07 1.258.163 2.493.579 4.152 2.683 4.168 5.274.006 1.217-.005 2.435.006 3.652.01 1.672 1.154 2.96 2.808 3.176 1.675.221 3.328-1.06 3.48-2.743.065-.742.01-1.488.01-2.272H35.94v-1.915h-.656v-1.288h.64v-.66h-.635v-1.304h.602c0-.573.044-1.125-.005-1.666-.2-2.056-1.003-3.857-2.304-5.47-3.773-4.684-1.339-11.712 4.526-13.13 4.63-1.119 9.34 2.019 10.04 6.71.357 2.396-.207 4.57-1.74 6.458-1.643 2.024-2.391 4.328-2.32 6.914 0 .054.005.103.015.184h.716v1.288h-.716v.665h.71v1.293h-.715v1.92h-3.404c0 .515-.006.99 0 1.467.016.735-.054 1.455-.347 2.142-.791 1.877-2.737 2.97-4.781 2.689-1.951-.27-3.561-1.905-3.773-3.885-.065-.6-.027-1.206-.032-1.812-.011-.985.021-1.97-.044-2.948-.119-1.737-1.615-3.279-3.339-3.522-.081-.01-.157-.01-.282-.022.347 1.288.396 2.586.353 3.912h-1.29v-.958c0-1.114-.125-2.218-.526-3.262-1.36-3.565-3.925-5.707-7.73-6.162-4.917-.579-9.242 2.656-10.175 7.504-.119.633-.119 1.287-.162 1.936-.017.303 0 .612 0 .947zm33.201-5.177c.32 0 .607-.006.895.005.162.006.216-.06.238-.216a11.077 11.077 0 012.445-5.648c1.312-1.607 1.81-3.452 1.517-5.507-.541-3.787-4.325-6.465-8.098-5.735-5.215 1.012-7.448 7.065-4.114 11.199 1.084 1.347 1.864 2.84 2.266 4.522.108.45.178.91.27 1.364h1.08v-1.234h1.306v1.228h.905v-1.223h1.296c-.006.412-.006.806-.006 1.245zm-4.505 1.953h5.513v-.639h-5.513v.639zm0 1.963h5.513v-.627h-5.513v.628zm5.513 1.331h-5.518v.585h5.518v-.585z"/><path d="M7.313 23.955c-.483-4.317 1.826-9.24 6.862-11.101a10.591 10.591 0 0113.47 5.826c.44.055.857.07 1.258.163 2.493.579 4.152 2.683 4.168 5.274.006 1.217-.005 2.435.006 3.652.01 1.672 1.154 2.96 2.808 3.176 1.675.221 3.328-1.06 3.48-2.743.065-.742.01-1.488.01-2.272H35.94v-1.915h-.656v-1.288h.64v-.66h-.635v-1.304h.602c0-.573.044-1.125-.005-1.666-.2-2.056-1.003-3.857-2.304-5.47-3.773-4.684-1.339-11.712 4.526-13.13 4.63-1.119 9.34 2.019 10.04 6.71.357 2.396-.207 4.57-1.74 6.458-1.643 2.024-2.391 4.328-2.32 6.914 0 .054.005.103.015.184h.716v1.288h-.716v.665h.71v1.293h-.715v1.92h-3.404c0 .515-.006.99 0 1.467.016.735-.054 1.455-.347 2.142-.791 1.877-2.737 2.97-4.781 2.689-1.951-.27-3.561-1.905-3.773-3.885-.065-.6-.027-1.206-.032-1.812-.011-.985.021-1.97-.044-2.948-.119-1.737-1.615-3.279-3.339-3.522-.081-.01-.157-.01-.282-.022.347 1.288.396 2.586.353 3.912h-1.29v-.958c0-1.114-.125-2.218-.526-3.262-1.36-3.565-3.925-5.707-7.73-6.162-4.917-.579-9.242 2.656-10.175 7.504-.119.633-.119 1.287-.162 1.936-.017.303 0 .612 0 .947H7.313zm35.348-5.172c.162.006.216-.06.238-.216a11.077 11.077 0 012.445-5.648c1.312-1.607 1.81-3.452 1.517-5.507-.541-3.787-4.325-6.465-8.098-5.735-5.215 1.012-7.448 7.065-4.114 11.199 1.084 1.347 1.864 2.84 2.266 4.522.108.45.178.91.27 1.364h1.08v-1.234h1.306v1.228h.905v-1.223h1.296c-.006.412-.006.806-.006 1.245.32 0 .607-.006.895.005zm.113 1.948v-.639h-5.513v.639h5.513zm0 1.963v-.627h-5.513v.628h5.513zm-5.518 1.331v.585h5.518v-.585h-5.518zM12.25 10.38c-.278.28-.598.594-.888.89L6.25 6.148c.29-.285.61-.593.9-.878l5.1 5.11z"/><path d="M11.362 11.27L6.25 6.148c.29-.285.61-.593.9-.878l5.1 5.11c-.278.28-.598.594-.888.89zM24.999 11.27c-.237-.283-.503-.596-.749-.897l4.256-5.103c.246.302.507.614.744.898-1.41 1.697-2.826 3.4-4.251 5.102z"/><path d="M24.25 10.373l4.256-5.103c.246.302.507.614.744.898-1.41 1.697-2.826 3.4-4.251 5.102-.237-.283-.503-.596-.749-.897zM19.25 9.27h-2v-7h2v7z"/><path d="M17.25 9.27v-7h2v7h-2zM37.164 13.27c.124-.757.234-1.45.348-2.147.073-.436.156-.872.208-1.313a.466.466 0 00-.125-.316c-.764-.79-1.534-1.575-2.345-2.403.359-.06.67-.115.988-.164.754-.114 1.508-.234 2.262-.338.156-.022.24-.092.307-.24.437-.937.879-1.869 1.32-2.806.037-.082.079-.158.136-.273.068.137.125.24.177.35.426.904.853 1.803 1.269 2.708.078.163.171.234.348.261.993.136 1.987.295 2.985.447.068.011.13.033.208.05-.172.19-.328.364-.494.539-.598.615-1.201 1.237-1.804 1.842a.429.429 0 00-.136.425c.188 1.079.36 2.163.536 3.242.005.027-.005.055-.005.115l-.806-.442c-.692-.381-1.378-.757-2.065-1.144a.366.366 0 00-.405 0c-.947.534-1.898 1.052-2.907 1.607zm5.366-5.29c-.416-.065-.858-.136-1.305-.196-.161-.022-.26-.082-.333-.24-.192-.436-.4-.861-.624-1.33-.145.305-.301.562-.39.84-.171.539-.483.828-1.05.811-.281-.01-.562.082-.812.126.323.36.645.708.947 1.068.068.082.11.218.099.321-.063.485-.146.96-.23 1.494.448-.246.859-.464 1.254-.692.135-.082.245-.077.38 0 .4.228.806.446 1.253.692-.083-.523-.15-.998-.24-1.466-.03-.164.006-.262.115-.376.317-.338.62-.698.936-1.052z"/></svg><svg viewBox="0 0 8.188 14" id="facebook" xmlns="http://www.w3.org/2000/svg"><path d="M4.824 13.5H2.462V8.058H.5V5.85h1.962v-.803C2.462 2.068 3.64.5 6.128.5c.763 0 .954.13 1.372.235v2.183c-.468-.086-.6-.134-1.086-.134-.577 0-.885.173-1.167.514-.282.342-.423.933-.423 1.78v.778H7.5l-.718 2.207H4.824v-.005V13.5z"/></svg><svg viewBox="0 0 15 17" id="floce" xmlns="http://www.w3.org/2000/svg"><defs><clipPath id="ga"><path fill-opacity="0" d="M0 0h15v17H0z"/></clipPath></defs><g clip-path="url(#ga)"><path d="M8.02 4.152c0 .918.014 1.84-.005 2.758-.008.4-.303 1.009-.769 1.215-.422.186-.77.07-1.116-.158-.061-.04-.1-.113-.147-.173L3.97 5.253c-.516-.651-1.037-1.297-1.543-1.957a2.699 2.699 0 01-.376-.653c-.209-.537.094-1.011.531-1.23.215-.108.453-.171.679-.252.83-.296 1.662-.59 2.492-.884C5.97.2 6.188.116 6.41.044c.286-.09.56-.017.832.07.316.101.477.347.602.628.115.26.178.529.176.817-.003.863 0 1.728 0 2.593zm-.776.117c-.011-.876-.023-1.755-.03-2.631a1.284 1.284 0 00-.098-.494.564.564 0 00-.322-.334c-.077-.031-.152-.041-.225.02-.023.02-.063.02-.095.027-.05.01-.102.01-.15.025-1.037.36-2.074.721-3.111 1.084-.173.06-.357.09-.499.227-.059.058-.067.104-.023.161.09.124.18.247.275.368.738.951 1.476 1.903 2.216 2.854l1.341 1.726c.219.28.572.238.702-.087a.726.726 0 00.056-.277c-.008-.89-.023-1.78-.037-2.669zm2.504 5.87c.203-.03.381.061.565.117a566.2 566.2 0 013.21.959c.302.09.607.177.9.287.253.096.468.253.55.532.061.207 0 .403-.065.6-.104.309-.31.555-.497.812-.452.627-.91 1.25-1.359 1.878-.406.565-1.205.638-1.734.142a2 2 0 01-.298-.372c-.726-1.123-1.455-2.245-2.168-3.375a1.156 1.156 0 01-.124-1.013c.092-.277.324-.394.563-.49.142-.058.301-.07.453-.104 0 .01.002.017.004.027zm-.018.745c-.069 0-.134-.007-.195.002-.075.014-.155.053-.15.137.01.125.016.267.079.367a392.984 392.984 0 002.158 3.396c.064.098.163.177.26.248a.264.264 0 00.18.035.496.496 0 00.329-.193c.516-.67 1.031-1.343 1.555-2.008a1.17 1.17 0 00.236-.513c.01-.06-.002-.092-.06-.106-.086-.019-.174-.03-.26-.056-.292-.084-.58-.172-.871-.259-.636-.19-1.275-.38-1.911-.573-.454-.136-.909-.27-1.363-.407a.193.193 0 00.013-.07zm5.21-3.417c.012.19-.078.34-.205.467-.264.263-.592.411-.948.51-1.034.285-2.065.58-3.098.87-.248.07-.493.169-.746.202-.362.046-.728.069-1.068-.144-.49-.311-.494-.973-.256-1.323.65-.953 1.295-1.906 1.943-2.861.158-.233.309-.471.47-.7.16-.229.366-.407.652-.448.347-.05.642.086.89.314.152.14.27.32.411.474.581.629 1.168 1.253 1.748 1.882a.324.324 0 01.066.134c.055.206.109.411.16.617-.001.002-.01.004-.018.006zm-5.4 1.268v.008c.077-.006.156 0 .229-.019.533-.14 1.064-.287 1.595-.429.682-.182 1.364-.363 2.047-.547.222-.062.452-.1.644-.25.113-.089.165-.183.119-.321a.436.436 0 00-.073-.142c-.073-.089-.155-.172-.232-.254-.562-.604-1.121-1.21-1.681-1.813-.02-.019-.04-.044-.042-.069-.02-.132-.219-.236-.345-.184-.125.052-.165.169-.23.269-.64.965-1.281 1.928-1.921 2.89-.125.187-.251.372-.37.56-.104.163-.033.295.157.303.035-.002.069-.002.104-.002zM7.91 13.83c-.012.645-.026 1.286-.037 1.93-.002.102.013.204.013.306.002.413-.203.703-.586.848-.365.136-.721.093-1.083-.018-.763-.234-1.528-.463-2.293-.692-.247-.075-.498-.138-.694-.323a.78.78 0 01-.132-.15c-.236-.396-.294-.796-.065-1.224.11-.21.264-.373.423-.536.855-.88 1.712-1.759 2.567-2.637a1.4 1.4 0 01.999-.456.716.716 0 01.477.16c.291.223.456.511.447.886-.016.632-.025 1.27-.037 1.907zm-.668.081h.027c0-.448-.002-.895 0-1.343.002-.227.008-.454.013-.683.004-.152-.074-.274-.184-.27a.594.594 0 00-.425.167c-.905.93-1.81 1.858-2.713 2.79a1.95 1.95 0 00-.243.293c-.1.152-.004.372.169.43.768.262 1.533.527 2.304.784.236.08.462.198.726.18.246-.014.27-.026.294-.276l.001-.058c.012-.67.022-1.343.031-2.014zM0 10.613c.025-.305.048-.603.07-.9l.09-1.109c.024-.303.045-.605.076-.907.019-.19.136-.332.26-.468.395-.427.821-.468 1.339-.233 1.26.569 2.501 1.188 3.755 1.776.262.123.496.267.667.507.276.383.19 1.232-.41 1.51-.267.122-.552.16-.834.222-.499.108-.999.204-1.497.305-.71.144-1.417.289-2.126.431-.14.029-.278.063-.42.08-.343.045-.615-.096-.813-.367-.067-.092-.09-.224-.11-.341-.024-.17-.032-.343-.047-.506zm.673-.063c.025.115.061.298.11.478.007.03.064.068.095.062.125-.02.245-.054.368-.08.537-.109 1.074-.216 1.61-.326.727-.148 1.453-.294 2.178-.452.213-.045.452-.02.621-.203a.29.29 0 00.079-.121c.03-.146-.01-.273-.138-.362-.081-.055-.163-.115-.252-.157-1.148-.544-2.298-1.084-3.446-1.628-.232-.11-.468-.202-.729-.202a.29.29 0 00-.283.265c-.035.444-.071.886-.108 1.33-.032.442-.065.883-.105 1.396z"/></g></svg><svg viewBox="0 0 15.38 15.38" id="inst" xmlns="http://www.w3.org/2000/svg"><path d="M2.904 14.88A2.41 2.41 0 01.5 12.477V2.904A2.41 2.41 0 012.904.5h9.573a2.41 2.41 0 012.403 2.404v9.573a2.402 2.402 0 01-2.403 2.403H2.904zm2.179-4.577a3.667 3.667 0 01-1.081-2.61 3.67 3.67 0 011.08-2.61 3.668 3.668 0 012.611-1.081 3.67 3.67 0 012.61 1.08 3.669 3.669 0 011.081 2.61 3.67 3.67 0 01-1.08 2.611 3.678 3.678 0 01-2.611 1.081 3.668 3.668 0 01-2.61-1.08zm7.02-6.422a.709.709 0 110-1.418.709.709 0 010 1.418z"/></svg><svg viewBox="0 0 147.109 206.707" id="lines" xmlns="http://www.w3.org/2000/svg"><path d="M.11 103.207h146.999m-146.353.147l103-103M1.285 103.19l126.148-72.832M1.285 102.224l126.148 72.832M.129 102.84l140.701 37.7M.13 103.574l140.7-37.7M1.463 103.354l103 103"/></svg><svg viewBox="0 0 41 55" id="local" xmlns="http://www.w3.org/2000/svg"><path d="M20.5 1.5c-10.45 0-19 8.51-19 18.91 0 14.18 19 33.09 19 33.09s19-18.91 19-33.09c0-10.4-8.55-18.91-19-18.91zm0 26a7 7 0 110-14 7 7 0 010 14z"/></svg><svg viewBox="0 0 50 50" id="luxuryExperience" xmlns="http://www.w3.org/2000/svg"><defs><clipPath id="ka"><path fill-opacity="0" d="M0 0h50v50H0z"/></clipPath></defs><g clip-path="url(#ka)" stroke-width="1.5" stroke-linejoin="round"><path d="M7.083 6.875a4.859 4.859 0 014.375-2.708h27.084a4.859 4.859 0 014.375 2.708l3.541 6.875c.834 1.667.625 3.75-.625 5.208L25 45.833 3.958 19.167c-1.041-1.459-1.25-3.542-.416-5.417l3.541-6.875z"/><path d="M2.917 16.667h44.166M25 45.833L14.583 16.667l6.25-12.5M25 45.833l10.417-29.166-6.25-12.5"/></g></svg><svg viewBox="0 0 25.148 37" id="mouse" xmlns="http://www.w3.org/2000/svg"><path d="M1 13.727v9.546C1 30.273 6.208 36 12.574 36s11.574-5.727 11.574-12.727v-9.546C24.148 6.727 18.94 1 12.574 1S1 6.727 1 13.727zM13.037 9v5"/></svg><svg viewBox="0 0 64.946 43.942" id="nomess" xmlns="http://www.w3.org/2000/svg"><path d="M9.735 34.28H5.656c-.417-.01-.667-.211-.667-.541.01-.322.241-.514.649-.514.538-.01 1.084 0 1.687 0a24.45 24.45 0 00-.14-.798l-.583-3.11c-.102-.568.083-.788.667-.798.473 0 .946 0 1.428-.009.018 0 .037-.018.102-.037-.195-2.21-.39-4.43-.593-6.677-.306 0-.584.027-.853-.01-.807-.11-1.437-.513-1.845-1.21-1.02-1.752-1.27-3.641-.9-5.614.103-.522.372-.678.882-.495 1.872.66 3.374 1.789 4.403 3.495.649 1.073.454 2.339-.454 3.21-.102.092-.195.266-.186.395.195 2.274.399 4.55.603 6.815 0 .037.018.064.027.119h.78c.064-.605.138-1.202.203-1.807.13-1.183.269-2.366.39-3.559a.757.757 0 00-.121-.468c-.482-.734-.52-1.486-.065-2.238.75-1.238 1.854-2.054 3.217-2.54.482-.175.75-.01.843.495.269 1.366.093 2.669-.547 3.907-.445.853-1.15 1.266-2.123 1.165h-.185c-.185 1.679-.37 3.339-.565 5.063h1.51c.585 0 .78.23.668.79l-.64 3.411c-.027.147-.046.294-.083.505h1.02c.278 0 .556-.01.834.009.306.018.5.23.51.505 0 .275-.195.486-.492.522-.102.01-.204.01-.315.01H10.81c-.009.128-.027.22-.027.32 0 1.12-.01 2.248.009 3.367a.72.72 0 00.204.477 547.61 547.61 0 004.023 3.99c.102.1.269.202.408.202 1.733.009 3.476.009 5.21.009.046 0 .092-.01.157-.028v-2.064h-.927c-.426-.009-.63-.192-.63-.605v-9.255c0-.413.204-.605.63-.605.714-.01 1.437-.019 2.15.009.334.009.409-.11.4-.413-.02-.725-.01-1.44-.01-2.165.01-1.229.908-2.137 2.15-2.146 3.152-.01 6.295 0 9.447 0 .62 0 1.14.248 1.603.679.074-.055.14-.092.195-.147a2.144 2.144 0 011.465-.541h9.371c1.289 0 2.179.899 2.188 2.174 0 .743.01 1.495 0 2.238 0 .248.083.312.324.312.733-.01 1.456-.01 2.188 0 .491 0 .667.174.667.66v9.145c0 .468-.185.642-.648.651h-.9v2.073h5.229c.009-.12.018-.238.018-.358 0-9.346 0-18.684.01-28.03 0-.312-.093-.386-.39-.377-1.196.019-2.382.01-3.578.01-.705 0-.88-.22-.714-.88l1.474-5.835c.13-.513.26-.614.797-.614h5.868c.547 0 .677.092.807.605.5 1.982 1 3.963 1.501 5.935.13.532-.074.789-.62.789h-4.042v28.783h7.072c.112 0 .232-.01.343.009.288.046.464.23.464.513 0 .276-.158.45-.427.514-.11.028-.231.019-.343.019H1.04c-.102 0-.213.009-.315-.01-.297-.046-.491-.256-.473-.54.019-.294.195-.46.482-.496.102-.019.204-.01.315-.01 1.317 0 2.642.01 3.959-.008a.795.795 0 00.51-.212 405.138 405.138 0 004.004-3.962.813.813 0 00.222-.532c.019-1.091.01-2.174.01-3.265-.019-.101-.019-.22-.019-.376zm10.577 5.21h30.609c.01-.065.028-.101.028-.147 0-2.66 0-5.32.009-7.98 0-.22-.111-.239-.287-.239-.482.01-.974.019-1.456-.009-.306-.018-.389.074-.389.385.018 1.734.01 3.458.01 5.192 0 .55-.158.706-.733.706H23.139c-.556 0-.723-.165-.723-.715 0-1.734-.009-3.458.01-5.192 0-.275-.065-.385-.362-.376-.454.028-.9.028-1.353 0-.316-.018-.408.083-.408.404.009 2.531.009 5.063.009 7.604v.367zm8.945-6.265h5.516c.25 0 .343-.064.343-.321-.01-1.78 0-3.55-.01-5.33 0-.733-.426-1.146-1.167-1.155H24.64c-.742 0-1.168.413-1.168 1.146 0 1.761.01 3.532-.01 5.293 0 .293.093.367.38.367h5.414zm18.503-.019c.01-.119.019-.22.019-.32v-5.293c0-.761-.408-1.165-1.187-1.165h-9.233c-.788 0-1.196.404-1.196 1.183v5.265c0 .11.01.22.019.33H47.76zm-25.844 9.411h27.42v-2.036h-27.42v2.036zM60.283 12.79c-.018-.11-.018-.165-.027-.22a888.363 888.363 0 01-1.187-4.733c-.056-.239-.195-.266-.399-.266-1.622.009-3.235.009-4.857 0-.26 0-.361.082-.417.33-.352 1.449-.723 2.89-1.094 4.338-.046.175-.074.349-.12.56 2.716-.01 5.395-.01 8.101-.01zM35.088 36.353v-2.046H23.51v2.046h11.578zm1.094-.01H47.76v-2.036H36.182v2.036zM7.779 29.574c-.01.055-.028.073-.018.092.204 1.119.417 2.229.611 3.348.038.21.177.202.334.202h2.29c.361 0 .834.11 1.038-.065.223-.192.213-.67.278-1.027.167-.844.315-1.688.473-2.559-1.687.01-3.337.01-5.006.01zM5.582 15.65c-.26 1.349.12 3.312.844 4.403.102.147.232.294.37.404a1.52 1.52 0 001.892-.046 1.475 1.475 0 00.315-1.899c-.77-1.302-1.891-2.201-3.263-2.825-.037-.018-.084-.018-.158-.037zm8.603 3.413c-1.002.486-1.762 1.11-2.253 2.008-.24.431-.083.945.325 1.202.389.248.954.202 1.214-.183.62-.881.778-1.89.714-3.027zM6.88 42.627h2.818v-2.789c-.945.926-1.863 1.834-2.818 2.788zm6.674-.01a739.573 739.573 0 01-2.725-2.706v2.706h2.725z"/><path d="M35.654 18.567h-9.27c-.64 0-.779-.137-.779-.761V4.148c0-.605.148-.761.75-.761h18.578c.602 0 .75.156.75.761v13.658c0 .605-.148.752-.75.752-3.106.01-6.193.01-9.28.01zm-8.974-6.549c.12-.11.214-.183.288-.257.593-.577 1.177-1.164 1.77-1.752.464-.458.658-.458 1.122.01 2.447 2.421 4.894 4.843 7.332 7.273a.747.747 0 00.575.239c2.15-.01 4.301 0 6.452-.01.12 0 .24-.009.361-.018V4.46c-.11-.009-.194-.018-.268-.018-5.776 0-11.55 0-17.316-.01-.279 0-.353.083-.353.35.01 2.301.01 4.604.01 6.906 0 .092.009.183.027.33zm9.113 5.485c-2.188-2.164-4.366-4.32-6.573-6.512-.797.798-1.631 1.623-2.456 2.458a.453.453 0 00-.111.303c-.01 1.192 0 2.385 0 3.577 0 .055.018.11.037.174h9.103zM12.905 6.23V.965c0-.55.167-.715.724-.715h9.13c.538 0 .714.165.714.697v10.658c0 .514-.176.68-.686.68h-9.168c-.547 0-.714-.166-.714-.725V6.23zm6.73-4.916c.974 1.963.955 3.87-.333 5.641-1.298 1.789-3.124 2.422-5.321 2.11v2.155h8.408V1.314h-2.754zm-5.673 3.33c0 1.018.01 2.036-.01 3.054 0 .22.075.294.288.34a4.25 4.25 0 004.33-1.844c.926-1.422.898-3.32-.084-4.66a.66.66 0 00-.445-.23c-1.252-.018-2.494 0-3.745-.018-.26 0-.343.065-.334.33.01 1.01 0 2.019 0 3.028zM20.312 39.49v-.367c0-2.532.01-5.064-.01-7.604 0-.321.093-.422.409-.404.454.028.899.028 1.353 0 .297-.018.361.101.361.376-.009 1.734-.009 3.458-.009 5.192 0 .56.158.715.723.715h24.964c.565 0 .723-.156.732-.706 0-1.734.01-3.458-.009-5.192 0-.302.083-.394.39-.385.481.028.973.01 1.455.01.166 0 .287.018.287.238-.01 2.66 0 5.32-.01 7.98 0 .046-.018.082-.027.146H20.312zm1.604 3.127v-2.036h27.42v2.036h-27.42zM7.78 29.574h5.005c-.158.872-.306 1.715-.473 2.56-.065.357-.055.834-.278 1.027-.204.183-.686.064-1.038.064h-2.29c-.157 0-.296.009-.333-.202-.195-1.119-.408-2.229-.612-3.348-.01-.018 0-.046.018-.1zM5.582 15.65c.065.01.12.019.158.028 1.372.624 2.493 1.523 3.263 2.825.38.651.24 1.431-.315 1.899a1.52 1.52 0 01-1.891.046 1.728 1.728 0 01-.371-.404C5.703 18.962 5.323 17 5.582 15.65zm8.603 3.413c.064 1.137-.093 2.146-.714 3.036-.269.385-.825.43-1.214.183a.905.905 0 01-.325-1.201c.491-.909 1.252-1.541 2.253-2.018zM6.88 42.627l2.818-2.789v2.788H6.88zm6.674-.01H10.83v-2.706c.89.89 1.817 1.807 2.725 2.706z"/><path d="M35.116 10.193c0-2.018 1.65-3.66 3.69-3.66 2.048 0 3.707 1.651 3.698 3.687-.01 2.018-1.669 3.651-3.708 3.642-2.04-.01-3.69-1.651-3.68-3.67zm1.047.009c0 1.45 1.196 2.623 2.66 2.614 1.447-.009 2.624-1.192 2.615-2.623 0-1.431-1.187-2.605-2.633-2.605a2.621 2.621 0 00-2.642 2.614z"/><path d="M6.454 34.28h-.798c-.417-.01-.667-.211-.667-.541.01-.322.241-.514.649-.514.538-.01 1.084 0 1.687 0a24.45 24.45 0 00-.14-.798l-.583-3.11c-.102-.568.083-.788.667-.798.473 0 .946 0 1.428-.009.018 0 .037-.018.102-.037-.195-2.21-.39-4.43-.593-6.677-.306 0-.584.027-.853-.01-.807-.11-1.437-.513-1.845-1.21-1.02-1.752-1.27-3.641-.9-5.614.103-.522.372-.678.882-.495 1.872.66 3.374 1.789 4.403 3.495.649 1.073.454 2.339-.454 3.21-.102.092-.195.266-.186.395.195 2.274.399 4.55.603 6.815 0 .037.018.064.027.119h.78c.064-.605.138-1.202.203-1.807.13-1.183.269-2.366.39-3.559a.757.757 0 00-.121-.468c-.482-.734-.52-1.486-.065-2.238.75-1.238 1.854-2.054 3.217-2.54.482-.175.75-.01.843.495.269 1.366.093 2.669-.547 3.907-.445.853-1.15 1.266-2.123 1.165h-.185c-.185 1.679-.37 3.339-.565 5.063h1.51c.585 0 .78.23.668.79l-.64 3.411c-.027.147-.046.294-.083.505h1.02c.278 0 .556-.01.834.009.306.018.5.23.51.505 0 .275-.195.486-.492.522-.102.01-.204.01-.315.01H10.81c-.009.128-.027.22-.027.32 0 1.12-.01 2.248.009 3.367a.72.72 0 00.204.477 547.61 547.61 0 004.023 3.99c.102.1.269.202.408.202 1.733.009 3.476.009 5.21.009.046 0 .092-.01.157-.028v-2.064h-.927c-.426-.009-.63-.192-.63-.605v-9.255c0-.413.204-.605.63-.605.714-.01 1.437-.019 2.15.009.334.009.409-.11.4-.413-.02-.725-.01-1.44-.01-2.165.01-1.229.908-2.137 2.15-2.146 3.152-.01 6.295 0 9.447 0 .62 0 1.14.248 1.603.679.074-.055.14-.092.195-.147a2.144 2.144 0 011.465-.541h9.371c1.289 0 2.179.899 2.188 2.174 0 .743.01 1.495 0 2.238 0 .248.083.312.324.312.733-.01 1.456-.01 2.188 0 .491 0 .667.174.667.66v9.145c0 .468-.185.642-.648.651h-.9v2.073h5.229c.009-.12.018-.238.018-.358 0-9.346 0-18.684.01-28.03 0-.312-.093-.386-.39-.377-1.196.019-2.382.01-3.578.01-.705 0-.88-.22-.714-.88l1.474-5.835c.13-.513.26-.614.797-.614h5.868c.547 0 .677.092.807.605.5 1.982 1 3.963 1.501 5.935.13.532-.074.789-.62.789h-4.042v28.783h7.072c.112 0 .232-.01.343.009.288.046.464.23.464.513 0 .276-.158.45-.427.514-.11.028-.231.019-.343.019H1.04c-.102 0-.213.009-.315-.01-.297-.046-.491-.256-.473-.54.019-.294.195-.46.482-.496.102-.019.204-.01.315-.01 1.317 0 2.642.01 3.959-.008a.795.795 0 00.51-.212 405.138 405.138 0 004.004-3.962.813.813 0 00.222-.532c.019-1.091.01-2.174.01-3.265-.019-.101-.019-.22-.019-.376H6.454zm15.971-2.789c0-.275-.064-.394-.361-.376-.454.028-.9.028-1.353 0-.316-.018-.408.083-.408.404.009 2.531.009 5.063.009 7.604v.367h30.609c.01-.065.028-.101.028-.147 0-2.66 0-5.32.009-7.98 0-.22-.111-.239-.287-.239-.482 0-.974.019-1.456-.009m1.456.01c-.482.009-.974.018-1.456-.01-.306-.018-.389.074-.389.385.018 1.734.01 3.458.01 5.192 0 .55-.158.706-.733.706H23.139c-.556 0-.723-.165-.723-.715 0-1.734-.009-3.458.01-5.192m-.01 5.192c0-1.734 0-3.458.01-5.192 0-.275-.065-.385-.362-.376m12.709 2.11c.25 0 .343-.064.343-.321-.01-1.78 0-3.55-.01-5.33 0-.733-.426-1.146-1.167-1.155H24.64c-.742 0-1.168.413-1.168 1.146 0 1.761.01 3.532-.01 5.293 0 .293.093.367.38.367h10.93zm13.005-.34v-5.292c0-.761-.407-1.165-1.186-1.165h-9.233c-.788 0-1.196.404-1.196 1.183v5.265c0 .11.01.22.019.33H47.76c.01-.119.019-.22.019-.32zm1.558 9.732v-2.036h-27.42v2.036h27.42zm10.92-30.048a888.363 888.363 0 01-1.187-4.733c-.056-.239-.195-.266-.399-.266-1.622.009-3.235.009-4.857 0-.26 0-.361.082-.417.33-.352 1.449-.723 2.89-1.094 4.338-.046.175-.074.349-.12.56 2.716-.01 5.395-.01 8.101-.01-.018-.11-.018-.164-.027-.22zM35.088 34.306H23.51v2.046h11.578v-2.046zm12.672 2.036v-2.036H36.182v2.036H47.76zM7.78 29.574c-.01.055-.029.073-.02.092.205 1.119.418 2.229.612 3.348.038.21.177.202.334.202h2.29c.361 0 .834.11 1.038-.065.223-.192.213-.67.278-1.027.167-.844.315-1.688.473-2.559-1.687.01-3.337.01-5.006.01-.018.054-.028.082-.018.1.204 1.12.417 2.229.612 3.348.037.211.176.202.333.202h2.29c.352 0 .834.12 1.038-.064.223-.193.213-.67.278-1.028.167-.844.315-1.687.473-2.559H7.779M5.582 15.65c-.26 1.349.12 3.312.844 4.394.102.156.232.294.37.404a1.52 1.52 0 001.892-.046 1.473 1.473 0 00.315-1.899c-.77-1.302-1.891-2.201-3.263-2.825a1.756 1.756 0 00-.158-.028c-.26 1.349.12 3.312.844 4.403.102.147.232.294.37.404a1.52 1.52 0 001.892-.046 1.475 1.475 0 00.315-1.899c-.77-1.302-1.891-2.201-3.263-2.825-.037-.018-.084-.018-.158-.037m8.603 3.413c-1.002.486-1.762 1.11-2.253 2.008-.24.431-.083.945.325 1.202.389.248.954.202 1.214-.183.62-.881.778-1.89.714-3.027-1.002.477-1.762 1.11-2.253 2.018a.905.905 0 00.325 1.201c.389.248.945.202 1.214-.183.62-.89.778-1.899.714-3.036M9.698 42.627v-2.789c-.945.926-1.863 1.834-2.818 2.788h2.818zm1.131-2.716v2.706h2.725a739.573 739.573 0 01-2.725-2.706zm15.555-21.344c-.64 0-.779-.137-.779-.761V4.148c0-.605.148-.761.75-.761h18.578c.602 0 .75.156.75.761v13.658c0 .605-.148.752-.75.752-3.106.01-6.193.01-9.28.01h-9.27zm.584-6.806c.593-.577 1.177-1.164 1.77-1.752.464-.458.658-.458 1.122.01 2.447 2.421 4.894 4.843 7.332 7.273a.747.747 0 00.575.239c2.15-.01 4.301 0 6.452-.01.12 0 .24-.009.361-.018V4.46c-.11-.009-.194-.018-.268-.018-5.776 0-11.55 0-17.316-.01-.279 0-.353.083-.353.35.01 2.301.01 4.604.01 6.906 0 .092.009.183.027.33.12-.11.214-.183.288-.257zm2.252-.77c-.797.798-1.631 1.623-2.456 2.458a.453.453 0 00-.111.303c-.01 1.192 0 2.385 0 3.577 0 .055.018.11.037.174h9.103c-2.188-2.164-4.366-4.32-6.573-6.512zM12.905.965c0-.55.167-.715.724-.715h9.13c.538 0 .714.165.714.697v10.658c0 .514-.176.68-.686.68h-9.168c-.547 0-.714-.166-.714-.725V.965zm6.397 5.99c-1.298 1.789-3.124 2.422-5.321 2.11v2.155h8.408V1.314h-2.754c.974 1.963.955 3.87-.333 5.641zm-5.35.743c0 .22.075.294.288.34a4.25 4.25 0 004.33-1.844c.926-1.422.898-3.32-.084-4.66a.66.66 0 00-.445-.23c-1.252-.018-2.494 0-3.745-.018-.26 0-.343.065-.334.33.01 1.01 0 2.019 0 3.028 0 1.018.01 2.036-.01 3.054zm6.36 31.791v-.366m0 0c0-2.532.01-5.064-.01-7.604m2.114 5.164c0 .56.158.715.723.715m24.964 0c.565 0 .723-.156.732-.706m-.009-5.192c0-.302.083-.394.39-.385m1.455.01c.166 0 .287.018.287.238m0 0c-.01 2.66 0 5.32-.01 7.98M6.88 42.626l2.818-2.788m0 0v2.788m1.131-.009v-2.706M38.805 6.533c2.049 0 3.708 1.651 3.699 3.687-.01 2.018-1.669 3.651-3.708 3.642-2.04-.01-3.69-1.651-3.68-3.67 0-2.017 1.65-3.659 3.69-3.659zm.019 6.283c1.446-.009 2.623-1.192 2.614-2.623 0-1.431-1.187-2.605-2.633-2.605a2.621 2.621 0 00-2.642 2.614c0 1.45 1.196 2.623 2.66 2.614z"/></svg><svg viewBox="0 0 47 48" id="organicExpressSolution" xmlns="http://www.w3.org/2000/svg"><path d="M33.099 0c.615.722 1.25 1.425 1.827 2.166 1.995 2.54 3.879 5.156 5.361 8.043.616 1.191 1.194 2.41 1.38 3.76.058.427.087.846.087 1.258 0 2.178-.803 4.125-2.324 5.773-2.508 2.738-5.65 3.666-9.194 2.587-3.505-1.068-5.538-3.58-6.256-7.18a6.574 6.574 0 01-.125-1.281c0-1.401.439-2.725 1.048-4.017.196-.412.606-.543.98-.365.274.13.422.368.422.656 0 .104-.02.214-.059.328-.27.778-.643 1.538-.783 2.344a7.082 7.082 0 00-.102 1.183c0 1.774.702 3.356 1.92 4.742a7.363 7.363 0 008.167 2.025c2.826-1.1 4.796-3.83 4.796-6.833a6.84 6.84 0 00-.003-.208c-.028-.918-.308-1.884-.672-2.747-1.64-3.806-4.158-7.04-6.731-10.303-.14.16-.252.282-.355.413-1.044 1.378-2.07 2.775-3.123 4.143-.168.216-.438.441-.69.479-.196.037-.494-.15-.662-.32a.547.547 0 01-.152-.378c0-.162.068-.33.18-.484.774-1.059 1.52-2.128 2.322-3.168.708-.9 1.454-1.744 2.181-2.616h.56zM27.01 9.506c-.42 0-.737-.3-.746-.731v-.018c0-.413.313-.723.727-.732.41-.01.746.328.746.731v.018a.729.729 0 01-.727.732zm11.766 5.85c-.13 1.735-.923 3.29-2.434 4.463-.419.319-.83.29-1.109-.056a.737.737 0 01-.173-.46c0-.236.13-.472.387-.675 1.147-.89 1.763-2.072 1.846-3.515.038-.62.327-.966.784-.947.451.026.701.357.701 1.073 0 .038 0 .077-.002.117zM32.81 21a.742.742 0 01-.728-.742v-.017a.763.763 0 01.756-.741c.4.01.736.356.736.76a.784.784 0 01-.764.74zm-21.566 1.96c.41 0 .746.328.755.73v.016c0 .388-.34.744-.727.753a.758.758 0 01-.764-.768c0-.422.317-.732.736-.732zM0 25.218c.261-.178.503-.413.793-.516 2.05-.722 4.12-1.35 6.293-1.594.354-.037.709-.093 1.063-.122.457-.028.811.254.848.676a.8.8 0 01.005.088c0 .38-.28.684-.713.727-2.415.206-4.727.816-6.993 1.64-.54.198-.96.141-1.296-.337v-.562zm14.246-1.903c.905.309 1.828.58 2.723.928 1.305.515 2.49 1.247 3.59 2.128.895.712 1.818 1.406 2.731 2.11.394.298.587.572.587.841a.709.709 0 01-.167.433c-.298.394-.746.366-1.343-.093-1.174-.9-2.33-1.82-3.524-2.682-1.37-.994-2.909-1.64-4.56-2.044-.148-.037-.307-.075-.437-.15-.259-.145-.406-.358-.406-.625 0-.061.008-.124.023-.19.103-.394.373-.572.784-.656zm22.704 4.63c-.83-.552-1.875-.43-2.648.141a358.175 358.175 0 01-5.399 3.92c-.252.177-.596.262-.904.318-1.24.216-2.48.431-3.72.6a1.81 1.81 0 01-1.017-.16c-2.74-1.368-5.491-2.7-8.419-3.628-.95-.3-1.958-.44-2.946-.628-.425-.081-.71-.357-.71-.741l.001-.037c.019-.403.336-.769.765-.703 1.053.16 2.116.319 3.133.628 2.937.89 5.696 2.222 8.437 3.572.27.131.625.197.924.16 1.118-.15 2.237-.357 3.356-.554.186-.037.382-.14.54-.253a717.522 717.522 0 005.129-3.731 3.922 3.922 0 014.876.178c.292.255.437.48.437.716 0 .216-.122.44-.362.7-2.471 2.653-5.259 4.95-8.01 7.293-.167.141-.4.235-.624.291-2.135.488-4.26.966-6.396 1.444-.485.112-.877-.113-.988-.535a.751.751 0 01-.025-.19c0-.348.262-.634.705-.738 1.949-.44 3.907-.862 5.855-1.322.345-.084.71-.253.97-.487 2.22-1.931 4.54-3.75 6.555-5.906.13-.15.307-.225.484-.347zM41.49 48c-1.081-.366-2.154-.75-3.245-1.106-4.913-1.585-9.827-3.178-14.75-4.706-.448-.139-.939-.146-1.43-.153-.274-.004-.55-.008-.817-.035-.335-.038-.68-.084-.978-.225-4.96-2.362-9.92-4.734-14.88-7.106a1.698 1.698 0 00-.71-.16 114.238 114.238 0 00-3.59 0c-.456.01-.82-.093-1.08-.478v-.562c.26-.385.624-.488 1.08-.478a87.41 87.41 0 002.112.012c.587-.001 1.174-.002 1.758.006.28 0 .588.075.849.197 4.96 2.363 9.92 4.744 14.89 7.106.242.113.53.179.801.179 1.1.018 2.21.018 3.31 0 .27-.01.55-.066.802-.178 5.753-2.457 11.282-5.363 16.755-8.372.373-.207.755-.413 1.193-.647-1.128-.835-2.275-1.04-3.524-.647-.075.019-.15.056-.215.084-.7.281-1.11.197-1.305-.29a.77.77 0 01-.06-.285c0-.336.274-.61.824-.831 2.089-.834 4.513-.216 5.912 1.51.223.272.337.505.337.713 0 .28-.205.514-.626.74-5.902 3.168-11.739 6.45-17.92 9.065-.112.047-.215.113-.42.216 4.96 1.593 9.836 3.168 14.713 4.734.03-.148.044-.295.044-.439 0-.837-.495-1.569-1.331-1.905-.662-.262-1.352-.468-2.023-.703-.428-.15-.656-.423-.656-.739 0-.076.013-.155.04-.236.15-.45.57-.618 1.11-.44.709.234 1.417.459 2.107.73 1.408.554 2.263 1.925 2.263 3.36 0 .486-.098.979-.305 1.45-.102.225-.308.413-.466.619h-.569zm3.524-10.247c-.83-.834-1.752-1.19-2.834-1.134-.168.01-.336.037-.513.056-.503.047-.839-.169-.913-.59a.79.79 0 01-.013-.138c0-.362.264-.66.712-.744 1.557-.272 2.983.056 4.177 1.106.466.413.858.947 1.193 1.472.12.186.177.362.177.52 0 .335-.258.59-.727.699-3.272.788-6.545 1.556-9.827 2.334-.858.207-1.725.403-2.583.61-.522.122-.932-.085-1.035-.525a.786.786 0 01-.022-.182c0-.352.257-.642.712-.746a4750.97 4750.97 0 0011.049-2.625c.13-.02.252-.057.447-.113z" fill-rule="evenodd"/></svg><svg viewBox="0 0 15 15" id="phone" xmlns="http://www.w3.org/2000/svg"><defs><clipPath id="oa"><path transform="matrix(-1 0 0 1 15 0)" fill-opacity="0" d="M0 0h15v15H0z"/></clipPath></defs><g clip-path="url(#oa)"><path d="M5.75 4.187a.867.867 0 010 .563c-.063.188-.125.375-.25.5L4.312 6.813c.813 1.687 2.188 3 3.875 3.875l1.5-1.125a1.36 1.36 0 01.5-.313c.188-.062.438-.062.626 0l2.437.375c.313.063.563.188.75.438.188.25.313.5.313.812v2.375c0 .313-.126.563-.313.75-.188.188-.5.313-.75.313a12.575 12.575 0 01-8.938-3.688A12.575 12.575 0 01.626 1.687c0-.312.125-.562.313-.75.187-.187.5-.312.75-.312h2.375c.312 0 .625.125.812.313.25.25.438.5.5.812l.375 2.437z"/></g></svg><svg viewBox="0 0 109.079 84.014" id="pricingFour" xmlns="http://www.w3.org/2000/svg"><path d="M108.676 19.292c-.616-4.527-1.857-8.461-3.786-12.04-1.388-2.56-2.987-4.545-4.907-6.066-1.121-.884-2.16-1.257-3.271-1.175-.23.018-.46.027-.68.046-.203.009-.405.018-.598.036-3.61.282-6.891 1.594-9.75 3.898-2.645 2.131-4.805 4.918-6.799 8.762-1.782 3.433-3.308 7.313-4.787 12.195a505.511 505.511 0 00-1.847 6.266c-.68 2.35-1.388 4.79-2.123 7.168-1.81 5.865-3.52 10.228-5.56 14.153-1.037 1.995-2.498 4.563-4.621 6.794-.763.793-1.718 1.658-3.088 1.995-2.131.537-4.42.592-7.195.191a.258.258 0 00-.119.01c-.478.254-.946.546-1.443.855l-.193.119c-4.686 2.914-9.62 6.138-14.022 10.091-2.315 2.076-3.887 4.016-4.962 6.084-.551 1.066-.827 2.122-.845 3.224l.211.055c.625.145 1.268.3 1.893.41 3.538.592 7.37.965 12.074 1.147 5.247.21 10.77.364 16.42.465 4.908.082 10.614.109 16.127-.692 3.566-.52 6.212-1.23 8.573-2.296 3.355-1.512 5.624-3.68 6.957-6.603a18.997 18.997 0 001.424-4.863c.514-3.224 1.02-6.494 1.507-9.664.386-2.477.78-5.036 1.176-7.55.129-.847.303-1.694.469-2.504.073-.374.147-.747.22-1.13 0 0 .101-.6.156-.801.441-1.794 1.03-2.332 1.03-2.332s.303.32.799 3.17c1.525 8.87 2.242 18.46 2.518 27.833h1.957c.055-1.712.119-3.425.184-5.128.165-4.563.33-9.29.45-13.935.129-4.854.781-9.125 2.012-13.07.579-1.866 1.204-3.76 1.801-5.582a420.88 420.88 0 001.434-4.417c.955-3.006 1.452-5.529 1.571-7.915.101-2.286-.009-4.636-.367-7.204zM64.762 56.305c2.26-3.816 4.153-8.096 5.78-13.078 1.194-3.643 2.306-7.386 3.381-11.002.34-1.157.69-2.314 1.038-3.461 1.278-4.253 2.573-8.406 4.384-12.46 1.782-4.016 3.565-6.857 5.752-9.225 2.701-2.915 6.037-4.609 9.924-5.037.505-.055 1.084-.118 1.525.3.45.42.414 1.012.386 1.494-.092 1.649-.469 3.334-1.148 5.137a415.253 415.253 0 01-3.667 9.335c-2.426 5.966-4.31 12.469-5.614 19.327-1.149 6.056-1.866 12.587-2.196 19.937-.129 2.86-.993 5.173-2.628 7.085-1.397 1.63-3.216 2.469-5.404 2.496h-.238c-1.994 0-4.099-.3-6.616-.947-2.867-.738-5.936-1.011-9.952-.893-.56.018-1.121.009-1.663.009-.23 0-2.757-.273-3.326-.31a1.358 1.358 0 01-.203-.036l-1.8-.683-.138-.3c8.6-.192 10.613-4.627 12.423-7.688zm42.342-29.836c-.128 2.413-.735 4.69-1.369 6.794-.386 1.293-.799 2.596-1.194 3.853-.644 2.049-1.305 4.17-1.893 6.266-.405 1.439-.717 2.95-1.03 4.408a94.368 94.368 0 01-.441 2.067 1.366 1.366 0 01-.101.328l-.854 7.122-.92-7.222c-.1-.501-.201-1.011-.302-1.503-.24-1.211-.487-2.468-.8-3.68-.138-.528-.413-1.056-.698-1.62a16.71 16.71 0 00-.202-.392c-1.25-.046-2.141.474-2.812 1.621-.634 1.102-1.075 2.423-1.36 4.171-.313 1.85-.597 3.743-.882 5.574-.22 1.476-.46 2.997-.699 4.49-.661 4.108-1.268 7.806-1.938 11.54-.827 4.626-3.658 7.814-8.408 9.463-2.362.828-4.953 1.402-7.921 1.767-3.712.455-7.47.582-11.183.582-2.334 0-4.659-.045-6.956-.1h-.11a437.31 437.31 0 01-14.215-.51c-2.004-.11-4.034-.319-5.982-.528a211.81 211.81 0 00-2.509-.264 3.38 3.38 0 01-.56-.11 1.45 1.45 0 00-.212-.045l-1.047-.218.386-.993c.551-1.43 1.497-2.496 2.416-3.452 2.858-3.015 6.13-5.42 8.647-7.186a193.114 193.114 0 014.374-2.933c.625-.41 1.268-.838 1.893-1.248l.349-.236.414.118a.375.375 0 01.091.027c.102.028.368.082.57.337 1.038 1.266 2.527 1.94 4.815 2.177 2.104.219 4.19.31 6.203.273a31.28 31.28 0 018.15.902c2.573.629 4.861.938 7.002.956 3.345.037 5.945-1.266 7.958-3.953 1.406-1.876 2.205-4.089 2.38-6.566l.165-2.304c.211-3.051.432-6.203.772-9.3 1.213-11.074 3.767-20.965 7.792-30.237 1.25-2.878 2.646-6.302 3.547-9.872.11-.456.211-.92.312-1.421.046-.237.101-.483.157-.738l.404-1.876 1.222 1.484c.064.082.138.165.193.237.138.173.276.337.413.51 2.243 2.97 3.841 6.476 4.889 10.693.9 3.634 1.268 7.24 1.084 10.747z"/><path d="M28.934 59.073L2.521 66.151c-.094.025-.197.045-.289.077-.363.113-.696.055-.963-.222s-.302-.608-.19-.971c.514-1.656 1.02-3.309 1.528-4.962 1.119-3.638 2.235-7.282 3.369-10.922.073-.245.068-.437-.077-.661a2.684 2.684 0 01-.286-.721A10366.48 10366.48 0 01.106 27.216c-.395-1.474.337-2.722 1.814-3.118l32.9-8.816c1.506-.403 2.753.3 3.157 1.81 1.843 6.847 3.672 13.704 5.508 20.553.01.04.023.082.035.123.047.156.094.313.067.46-.082.472.177.72.477 1.003C48 42.877 51.927 46.524 55.857 50.18c.115.109.245.22.341.35a.869.869 0 01-.42 1.344c-.176.062-.358.103-.538.152l-26.306 7.048zM18.86 21.417L2.536 25.791c-.742.199-.864.41-.664 1.154l5.42 20.227c.197.737.417.864 1.159.665l32.568-8.727c.757-.202.884-.422.68-1.18l-5.4-20.156c-.212-.818-.402-.922-1.224-.702L18.86 21.417zm34.789 29.168c-.116-.116-.18-.184-.252-.25-3.467-3.221-6.931-6.436-10.39-9.659-.195-.18-.352-.161-.569-.103-11.495 3.08-22.99 6.16-34.487 9.233-.274.073-.402.2-.484.47-1.376 4.496-2.765 8.995-4.148 13.493-.03.093-.044.182-.072.306.095-.018.155-.027.212-.042 5.276-1.414 10.544-2.825 15.822-4.232.223-.06.29-.186.348-.372.414-1.365.852-2.729 1.255-4.107.14-.486.411-.745.901-.876 3.68-.97 7.353-1.963 11.027-2.954.454-.122.808-.04 1.158.285 1.036.985 2.097 1.947 3.14 2.93.198.187.368.218.628.149 2.773-.75 5.547-1.494 8.322-2.238l7.589-2.033zm-24.971-3.537l12.353-3.31c.59-.159 1.021.036 1.194.508.158.445-.008.893-.43 1.106a1.657 1.657 0 01-.316.116L16.766 52.09c-.576.154-1.023-.043-1.196-.516-.181-.501.056-.999.57-1.16.37-.114.74-.205 1.115-.306l11.423-3.06zm-15.582 4.175c-.412.102-.814.218-1.225.328-.209.056-.405.1-.607.155-.202.054-.413.103-.613.164-.515.153-.78.604-.65 1.088.131.491.578.774 1.098.642a72.893 72.893 0 002.48-.664.882.882 0 00.63-1.106c-.137-.482-.59-.732-1.113-.607zm22.213 4.253c-.77-.708-1.483-1.384-2.215-2.04a.452.452 0 00-.36-.073 2371.26 2371.26 0 00-9.975 2.672c-.1.028-.24.111-.27.204-.309.95-.6 1.911-.917 2.918l13.737-3.681z" fill-rule="evenodd"/></svg><svg viewBox="0 0 78.449 135.333" id="pricingOne" xmlns="http://www.w3.org/2000/svg"><path d="M29.047 74.604c.492-1.008.947-1.871 1.353-2.756 1.898-4.139 3.763-8.292 4.428-12.892.265-1.74.12-1.86-1.546-1.608-.385.056-.743.284-1.118.265-.375-.019-.91-.165-1.049-.443-.258-.508.162-.848.637-.986.561-.162 1.115-.307 1.63-.448-.809-1.297-1.61-2.612-2.464-3.889-.117-.189-.425-.279-.659-.318-8.643-.72-14-5.852-17.189-13.871-.125-.312.126-.804.185-1.197.384.142.894.158 1.112.43 2.14 2.477 4.727 4.207 7.688 5.377.384.142.78.25 1.178.358.03-.126.074-.188.055-.236-1.712-4.05-1.873-8.3-1.188-12.613.147-.954.02-1.605-.585-2.398-1.822-2.363-2.731-5.198-3.463-8.096-1.021-4.057-1.624-8.156-1.035-12.37.055-.335.144-.656.2-.991.078-.684.458-.922 1.074-.981a20.401 20.401 0 016.503.475c.138.038.283.06.476.102.368-1.08.713-2.15 1.097-3.223.105-.314.25-.631.387-.932.65-1.458.661-1.534 2.211-1.198 4.05.834 8.163 1.455 12.084 2.712 2.188.705 4.113.621 6.246.207 3.048-.605 6.118-1.022 9.185-1.48.33-.06.744-.045 1.032.097 2.519 1.322 5.087 2.566 7.522 4.052 3.757 2.304 5.534 6.042 6.296 10.368.17 1.028.197 2.075.365 3.103.037.294.27.671.533.782 3.977 1.939 5.509 5.573 6.213 9.755.056.343-.195.835-.434 1.152-2.415 3.363-5.607 5.74-9.266 7.362-1.641.722-2.733 1.795-3.585 3.327-1.26 2.277-2.569 4.533-3.902 6.899.536.047 1.095.084 1.677.11 2.167.079 4.36.188 6.539.191.786-.006 1.568-.294 2.342-.365.356-.03.719.164 1.083.258-.124.365-.129.862-.374 1.097-1.861 1.764-4.101 2.89-6.464 3.745-2.248.804-4.475 1.556-6.732 2.337-3.769 1.317-7.589 1.357-11.452.682-.378-.06-.802 0-1.182.139-1.472.533-2.925 1.115-4.394 1.69-.131.044-.27.105-.363.146.6.612 1.244 1.162 1.745 1.832.185.258.192.918.003 1.157-.35.45-.745.143-1.104-.207-.626-.643-1.319-1.215-1.906-1.762-3.233 7.142-6.385 14.078-9.571 21.1 1.64.154 3.404.48 5.167.468 3.083-.013 5.882.89 8.537 2.35 2.06 1.128 3.993 2.482 5.57 4.303 3.801 4.374 2.866 9.757.908 13.273-.33.597-.791.602-1.255.227-.38-.3-.752-.616-1.055-.963-2.058-2.443-4.76-4.222-6.5-6.988-.055-.103-.145-.26-.234-.278-1.226-.14-1.21-1.248-1.509-2.092-.15-.442-.172-.969-.843-1.013-.168-.011-.358-.45-.441-.724-.193-.58-.3-1.182-.469-1.772-.765-2.813-2.5-4.522-5.313-4.952-1.1-.166-2.265-.559-3.323-.348-1.16.227-1.373 1.691-1.974 2.633-5.926 9.27-11.42 18.804-16.58 28.557-3.69 6.989-7.182 14.06-10.318 21.342-.144.317-.657.698-.946.656-.625-.065-.573-.68-.434-1.179.658-2.352 1.192-4.776 2.022-7.075 1.695-4.743 3.306-9.56 5.379-14.143 1.895-4.181 4.258-8.143 6.556-12.133 4.586-8.004 9.231-15.963 13.86-23.93.347-.59.338-1.052-.142-1.533-1.05-1.021-2.034-2.114-3.115-3.108-1.13-1.015-2.52-1.223-3.915-.737-1.195.412-2.325 1.05-3.507 1.527-.363.146-.79.065-1.195.073-.23.002-.49-.067-.698.025-.518.199-1.02.505-1.539.704-.248.095-.696.165-.816.034-.453-.55-1.01-.347-1.55-.336-1.007.033-2.069.302-2.994.03-2.298-.67-4.667-.237-6.942-.819-.833-.212-1.07-.532-.725-1.362 1.153-2.78 2.766-5.226 5.219-6.94 2.346-1.638 4.943-2.116 7.699-1.59 3.724.736 7.09 2.237 9.863 5.002.505.512 1.067 1.028 1.367 1.673.96 1.979 2.75 3.212 4.131 5.09zm35.138-48.252a605.605 605.605 0 011.665 3.392c1.265-1.319 2.31-2.95 3.127-4.736 2.13-4.678 1.353-9.21-.728-13.634-.74-1.567-1.82-2.9-3.244-3.8-2.12-1.314-4.348-2.454-6.482-3.733-1.162-.69-2.332-.825-3.624-.554-1.74.34-3.501.494-5.248.851-2.538.523-5.076 1.144-7.608 1.748-1.375.336-2.072 1.377-2.35 2.714-.547 2.796.28 5.357 1.195 7.934.194-.296.282-.618.387-.932.786-2.337 2.034-4.34 3.831-5.992.538-.49 1.012-.529 1.527.007.293.323.653.575.976.87 1.083-.857 2.267-1.194 3.47-.945 1.306.273 2.585.813 3.87 1.236 2.524.827 5.04 1.67 7.576 2.462 1.008.306 1.232.56.878 1.606-.257.748-.572 1.451-.855 2.169 1.711 1.14 2.814 2.662 3.836 4.289.431.7.433 1.278-.03 1.92-.756 1.094-1.506 2.172-2.169 3.128zM31.063 12.166c-.045.161-.142.36-.16.55-.208 1.646-.45 3.277-.569 4.94-.192 2.867-.658 5.699-1.782 8.311-.517 1.216-.317 2.018.333 2.99 3.024 4.503 4.445 9.825 6.818 14.672.065.127.047.318.135.435.282.398.511.933.898 1.116a176.725 176.725 0 006.97 3.123c1.033.436 2.163.674 3.348 1.015-.165-3.416-.968-6.425-2.682-9.061-1.036-1.593-2.35-2.965-3.498-4.465-3.882-5.046-6.57-10.743-8.323-16.921-.633-2.18-1.001-4.447-1.488-6.704zm5.356 40.47c1.25.369 2.604.86 4.003 1.192 5.09 1.153 10.03.79 14.657-1.978 3.423-2.041 5.762-5.117 7.557-8.702.508-1 1.083-1.973 1.674-3.038-2.663.549-5.18 1.02-7.683 1.596-2.759.648-5.354 1.704-7.843 3.123-.572.336-.773.65-.634 1.366.224 1.13.293 2.315.358 3.458.05 1.037-.211 1.266-1.197 1.148-.184-.018-.345-.046-.53-.064-3.284-.59-6.295-2.021-9.306-3.452-.305-.148-.61-.297-.849-.418-.056 1.889-.134 3.689-.207 5.769zm1.637-24.349c-.066.072-.14.16-.206.232 1.234 1.915 2.431 3.875 3.747 5.726 1.246 1.74 2.739 3.288 3.931 5.066.89 1.332 1.479 2.895 2.193 4.332 5.507-2.575 10.722-5.672 15.035-10.265-8.903 1.54-16.971-.931-24.7-5.09zm-14.51 1.603c-.655 4.384-.546 8.474 1.329 12.354 2.153 4.435 5.834 7.125 9.917 9.426.094-.239.17-.386.208-.53.063-.351.115-.728.128-1.1.069-4.932-1.45-9.278-4.695-12.88-2.177-2.433-4.48-4.74-6.886-7.27zM41.289 4.552c-.184-.118-.252-.187-.318-.214-4.006-.895-8.002-1.765-12.001-2.677-.582-.126-.827.109-.983.601-.707 2.33-1.51 4.66-2.097 7.023-.83 3.275-1.284 6.61-.77 10.013.32 2.148.944 4.204 1.894 6.159.13-.085.199-.115.212-.15a7.86 7.86 0 00.252-.59c.977-2.675 1.294-5.47 1.466-8.286.21-3.298.928-6.48 2.27-9.5.282-.618.626-.91 1.325-.695.65.194 1.324.28 1.973.474 1.267.376 2.52.785 3.797 1.185.54-1.565 1.409-2.752 2.98-3.343zm30.283 16.83c-.498 2.917-1.613 5.455-3.28 7.7-.922 1.223-2.138 2.224-3.001 3.493-1.596 2.354-3.662 4.151-5.844 5.86-.55.424-1.116.843-1.682 1.261 3.101-.304 6.094-.913 8.956-2.114 3.781-1.591 7.162-3.77 9.803-7.077.373-.46.56-.938.345-1.507-.576-1.498-1.069-3.062-1.79-4.482-.738-1.427-1.924-2.445-3.507-3.133zm-41.463 13.35c.106-.075.219-.167.325-.241-.88-1.507-1.705-3.05-2.66-4.51-3.94-6.106-5.358-12.7-3.555-19.948.239-.994.422-1.993.66-3.227-2.183-.185-4.215-.365-6.253-.529-.093.38-.13.523-.167.667-.452 2.797-.269 5.584.237 8.327.855 4.624 1.872 9.177 5.217 12.721 2.12 2.19 4.136 4.496 6.196 6.74zm2.628-27.058c-.064.55-.125.804-.12 1.084-.014.712-.043 1.417-.01 2.109.233 4.7 1.657 9.045 3.317 13.372.81 2.115 2.733 2.429 4.32 3.497.068-.37.12-.547.137-.738.535-3.64-.096-7.133-1.185-10.581-.657-2.07-1.165-4.177-1.179-6.374-.008-.223-.225-.593-.428-.66-1.552-.575-3.14-1.106-4.852-1.709zm3.844 50.329c-.418 1.836-.742 3.63-1.26 5.384-1.675 5.707-4.294 10.996-7.187 16.11-4.253 7.547-8.713 14.987-13.09 22.461-3.289 5.584-6.453 11.24-8.757 17.379-.505 1.38-1.076 2.733-1.62 4.116l.229.097.177-.304c2.866-5.483 5.609-11.038 8.593-16.431 3.536-6.356 7.088-12.705 10.973-18.834 5.55-8.752 10.104-17.985 13.846-27.68l.66-1.674c-.94-.237-1.764-.425-2.564-.624zm-19.014 7.749c-5.183-3.683-13.6-.563-15.134 5.76 1.724-.008 3.398-.038 5.053-.017.382.002.772.127 1.146.245.309.09.613.339.899.34 1.04-.02 2.112-.363 3.074-.136 1.375.341 2.332-.39 3.445-.837.231-.101.594-.247.745-.143.575.382 1.003.025 1.482-.171.742-.285 1.489-.627 2.264-.798.853-.177 1.758-.193 2.634-.282l.1-.256c-.651-.335-1.283-.721-1.961-.988-4.033-1.603-8.122-1.995-12.268-.399-.496.19-.97.228-1.172-.375-.228-.634.225-.861.704-1.057a15.155 15.155 0 015.812-1.072c1.043.022 2.075.12 3.177.186zm20.587 16.94c.604.992 1.116 1.826 1.615 2.694.57.978.47 2.35 1.643 2.964.082.035.11.206.142.32.388 1.199.604 2.445 1.738 3.303.79.613 1.279 1.655 1.926 2.487.15.202.412.313.621.46.35.228.76.401 1.027.694 1.134 1.295 2.215 2.628 3.433 4.098 1.348-3.036 1.629-5.786.479-8.642-1.09-2.671-5.077-5.65-7.232-6.44.316.313.555.533.786.77 1.866 1.863 3.414 3.952 4.39 6.475.212.528.437 1.12-.282 1.395-.634.25-.863-.285-1.066-.789-1.814-4.471-5.125-7.423-9.22-9.79zM59.67 24.226c-.337.176-.602.363-.896.478-2.01.686-4.013 1.453-6.074 1.978-2.232.57-4.514.882-6.785 1.358-.963.21-1.9.552-2.85.828-.008.117-.022.25-.03.366 2.245.709 4.506 1.325 6.71 2.136 2.49.912 4.66.255 6.927-.94 2.314-1.214 3.026-3.363 2.998-6.204zm-3.616-1.109c2.47-2.582 4.627-5.098 5.759-8.166-3.024-1.157-5.922-2.242-8.815-3.343-.416-.156-.826-.33-1.263-.434-.962-.227-1.935-.28-3.106.462 1.587.969 3.021 1.793 4.412 2.679.441.286.965.607 1.211 1.05 1.263 2.326 1.959 4.83 1.802 7.752zm-4.435-2.231c.82-.43 1.593-.841 2.356-1.276.123-.068.244-.375.186-.52-.537-1.5-.666-3.308-2.593-3.803-.292-.083-.593-.29-.844-.476-1.471-1.12-2.942-2.238-4.383-3.385-.304-.248-.51-.454-.878-.052-2.009 2.14-3.048 4.73-3.531 7.752.857-.574 1.566-1.111 2.33-1.546 3.368-1.904 6.344-.627 7.172 2.95.01.023.046.078.185.356zm-9.67 6.495c3.596-.733 7.261-1.496 10.936-2.235.29-.057.596-.107.85-.219.209-.091.467-.261.501-.446.194-1.073.315-2.158.476-3.245-2.188 1.088-4.275 1.68-6.464 1.414-2.133-.263-4.237-.793-6.26-1.19.002 1.934-.032 4.012-.038 5.921zm9.176 27.86c.006.081.028.17.028.27 1.487-.09 2.997.01 4.444-.315 4.483-.996 8.787-2.605 13-4.47.116-.052.196-.157.339-.276-2.904-.15-5.69-.311-8.478-.413-.415-.015-.923.208-1.228.497-2.16 2.037-4.604 3.535-7.385 4.432-.248.095-.479.197-.72.274zm-34.76-14.2c2.697 5.283 8.777 8.726 12.712 8.734-.865-.863-1.895-1.596-2.57-2.599-1.29-1.92-2.978-2.97-5.124-3.638-1.765-.566-3.378-1.665-5.019-2.497zm45.49-22.606c-1.28 1.65-2.518 3.24-3.886 5.013a90.44 90.44 0 001.831-.96c1.018-.546 1.457-.301 1.43.883-.034 1.3-.18 2.593-.264 3.972a18.738 18.738 0 003.998-4.667c.1-.157.181-.46.1-.595-.826-1.444-1.795-2.77-3.209-3.646zm1.296 9.233c-2.238 1.605-4.31 3.08-6.383 4.556a44.71 44.71 0 005.822-.51c1.69-.263 1.997-.85 1.407-2.554-.206-.545-.574-1.019-.846-1.492zM33.22 52.6c2.413 4.405 6.656 5.619 11.351 3.358-4.09-.293-7.872-1.272-11.351-3.358zm16.721-31.486c-.132-1.51-.87-2.5-2.078-2.83-1.273-.358-3.512.569-4.391 1.831 2.092.804 4.227 1.207 6.47.998z"/></svg><svg viewBox="0 0 131 72" id="pricingThree" xmlns="http://www.w3.org/2000/svg"><path d="M.031 22.48c-.173 2.194.382 4.23 1.438 6.213.728 1.369 1.265 2.93.832 4.598-.086.333-.19.772-.052 1.018.676 1.176.641 2.492.901 3.756.017.052.017.123.052.158 1.04 1.228 1.005 2.79 1.248 4.264.26 1.667 1.3 2.914 2.322 4.142 1.75 2.124 3.95 3.65 6.116 4.704 4.54 2.088 9.045 2.79 13.688 2.65 2.409-.07 4.817-.404 7.226-.632.433-.035.658 0 .849.456l3.118-3.089c-4.99 1.106-10.032 1.72-15.178 1.264-4.072-.368-7.936-1.422-11.367-3.808-1.316-.913-2.46-1.984-3.551-3.423 14.208 2.457 27.48 1.194 39.886-3.755l3.777-3.756a73.789 73.789 0 01-8.56 3.404 69.104 69.104 0 01-18.504 3.335c-5.822.246-11.575-.193-17.258-1.474-.242-.053-.606-.193-.641-.351-.156-.685-.225-1.37-.295-1.93 1.005.192 1.89.579 2.703.473 1.404-.175 2.703-.017 4.003.421 1.767.58 3.535.72 5.354.246.641-.175 1.369-.018 2.062-.035 1.577-.053 3.223.14 4.695-.28 2.773-.79 5.563-1.16 8.439-1.194 1.23-.018 2.512-.193 3.656-.614 3.846-1.405 7.658-2.931 11.47-4.423 1.663-.65 3.31-1.334 4.956-2.054.71-.316 1.386-.72 2.044-1.123.693-.421 1.317-.948 2.027-1.334a35.29 35.29 0 011.802-.947L67 21.708c-.745-.281-1.213-.685-1.438-1.334-.659-1.878-1.248-3.791-1.854-5.686a2.064 2.064 0 01-.104-.86c.485-3.142-.71-5.722-2.669-8.02-2.356-2.739-5.527-4.055-8.923-4.862C47.04-.248 41.997-.177 36.955.419c-6.948.825-13.67 2.492-20.1 5.318-4.47 1.966-8.663 4.387-12.145 7.915C2.266 16.092.309 18.865.03 22.48zM4.71 36.713c.537.264.987.422 1.368.667 1.11.702 2.305.772 3.57.702 1.975-.105 3.95-.07 5.926-.088 1.611-.017 3.24.14 4.8-.122a20.336 20.336 0 015.925-.123c1.473.175 2.91 0 4.35-.457 2.91-.93 5.804-1.913 8.767-2.597 1.87-.439 3.742-.772 5.336-1.878 1.923-1.316 4.02-2.141 6.325-2.404 1.819-.21 3.396-1.018 4.591-2.387 1.577-1.773 3.552-2.563 5.96-2.668-.571.474-1.108 1.036-1.75 1.404-1.836 1.088-3.707 2.124-5.561 3.177-.555.316-1.057.72-1.63.983-2.234 1-4.487 1.983-6.757 2.895-2.252.895-4.557 1.633-6.792 2.58-2.287.965-4.609 1.668-7.121 1.615-2.374-.053-4.713.228-6.966 1.053-1.715.614-3.5.579-5.302.351a6.922 6.922 0 00-2.477.123c-1.386.333-2.686.158-4.003-.263-1.49-.474-2.998-.843-4.592-.562-.398.07-.866-.175-1.3-.316-.588-.193-1.177-.614-1.766-.614-.659-.035-.78-.386-.901-1.07zm-.555-5.686c.85.246 1.56.491 2.287.65 5.198 1.175 10.448 1.316 15.733.877 6.255-.527 12.372-1.826 18.367-3.72 5.06-1.598 9.963-3.581 14.433-6.477 2.46-1.597 4.765-3.422 7.104-5.125.277.72.59 1.668 1.022 2.545.295.597.226.965-.26 1.351-.45.352-.953.703-1.282 1.159a2.914 2.914 0 01-2.01 1.228c-1.923.281-3.43 1.282-4.73 2.686-1.092 1.175-2.391 2.035-4.02 2.193-2.616.264-4.92 1.317-7.104 2.756a8.58 8.58 0 01-3.119 1.21c-2.91.527-5.804 1.071-8.507 2.265-2.183.965-4.367 1.263-6.74 1.018-1.612-.176-3.258.14-4.887.263-1.091.07-2.217.421-3.257.228-2.582-.439-5.111-.193-7.659.018-.554.052-1.16-.053-1.68-.246-1.023-.351-2.027-.807-3.032-1.228-.538-.211-.78-.51-.486-1.159.174-.386.156-.877.122-1.316-.018-.351-.174-.737-.295-1.176zm1.733-15.795c3.257-3.3 7.173-5.652 11.401-7.477 9.253-4.019 18.886-6.09 28.97-5.651 3.223.14 6.36.755 8.474 1.72 3.17 1.527 4.747 2.808 5.925 4.861 1.612 2.773 1.872 5.722-1.178 8.284-3.5 2.93-7.364 5.23-11.488 7.073-8.213 3.65-16.807 5.774-25.713 6.599-5.111.474-10.188.316-15.23-.843-3.899-.895-5.354-3.159-5.025-7.494.225-2.878 1.906-5.09 3.864-7.072z"/><path d="M106.242 71.622c-5.023-.103-9.417-1.387-13.567-3.493-2.163-1.096-4.203-2.397-6.296-3.63-.366-.223-.61-.274-.976.034-3.4 2.997-7.534 4.538-11.858 5.668-6.766 1.747-13.655 2.02-20.595 1.661-5.423-.291-10.742-1.199-15.747-3.373-4.255-1.85-7.865-4.487-10.236-8.528a14.445 14.445 0 01-1.866-5.309c-.035-.274-.035-.616.105-.822.784-1.061.505-2.089.104-3.202-.261-.72-.4-1.61-.244-2.329.54-2.294.68-4.606.593-6.952a3.58 3.58 0 00-.122-.754c-1.081-3.185-.262-6.096 1.5-8.784 1.9-2.894 4.725-4.744 7.864-6.148 7.133-3.202 14.736-4.041 22.443-4.024 4.133.017 8.284.496 12.417.873.802.069 1.395-.103 1.883-.565 1.412-1.37 2.755-2.808 4.115-4.23.192-.205.384-.445.454-.719.907-2.98 3.104-4.743 5.86-5.925 3.312-1.421 6.748-1.25 10.183-.514 5.022 1.08 9.574 3.271 13.898 5.943 5.964 3.681 11.353 8.014 15.991 13.237 3.227 3.63 5.999 7.551 7.656 12.14 1.168 3.203 1.761 6.474.471 9.779-.785 2.003-2.163 3.561-3.959 4.863-1.255.89-2.406 2.038-2.72 3.699-.07.325-.157.77-.401.924-1.116.737-1.639 1.935-2.424 2.929-.035.051-.07.102-.122.12-1.482.633-2.11 2.02-2.965 3.219-.959 1.353-2.424 2.003-3.871 2.654-2.476 1.13-5.144 1.541-7.568 1.558zM88.559 11.98c-3.54 0-5.51.462-7.463 1.746-2.651 1.764-4.15 4.23-2.477 7.792 1.918 4.076 4.447 7.74 7.412 11.114 5.894 6.712 12.8 12.226 20.542 16.747 4.429 2.586 9.12 4.606 14.195 5.737 3.923.873 6.225-.514 7.76-4.453 1.029-2.637.436-5.308-.488-7.86-1.552-4.315-4.098-8.031-7.15-11.439-6.679-7.466-14.544-13.39-23.908-17.295-2.947-1.25-6.069-2.038-8.423-2.09zM68.924 47.734a8.578 8.578 0 01-.314-.633c-1.273-2.175-2.32-4.453-2.965-6.901-.907-3.425-.976-6.833.175-10.19.261-.787.732-1.54 1.238-2.191.627-.805 1.464-1.456 2.144-2.226.663-.737.524-1.08-.453-1.182-2.11-.223-4.22-.48-6.33-.617-6.19-.41-12.364-.17-18.467 1.062-4.5.908-8.824 2.277-12.486 5.154-2.581 2.021-4.255 4.556-4.29 7.946-.035 2.243 1.012 3.785 2.982 4.812 3.784 1.952 7.795 3.254 11.963 4.093 7.917 1.61 15.904 1.815 23.925 1.233.924-.086 1.831-.223 2.877-.36zM84.13 63.077c-1.465-1.13-2.843-2.209-4.273-3.236-.209-.154-.662-.086-.941.017-3.837 1.319-7.795 2.02-11.823 2.449-6.174.65-12.364.668-18.538 0-6.47-.702-12.764-2.124-18.71-4.795-.716-.325-1.448-.668-2.355-1.079.157.48.244.77.366 1.062 1.622 3.836 4.551 6.49 8.179 8.425 3.505 1.867 7.289 2.928 11.23 3.493 9.678 1.422 19.235 1.096 28.616-1.815 2.982-.959 5.79-2.312 8.249-4.52zm29.662 4.966c-20.803-5.805-36.167-17.911-46.386-36.525a13.467 13.467 0 00-.47 5.36c.558 5.205 3.034 9.572 6.277 13.579 2.46 3.048 5.32 5.72 8.353 8.202 4.744 3.853 9.748 7.26 15.573 9.402 3.854 1.42 7.83 2.123 11.963 1.49 1.586-.24 3.086-.703 4.69-1.508zm-37.649-47.4c-.575.514-1.238 1.216-2.005 1.799-.524.393-.628.753-.35 1.301.262.514.559 1.027.663 1.558.158.857.61 1.49 1.308 1.935 1.64 1.062 2.564 2.586 3.14 4.384.487 1.507 1.29 2.808 2.702 3.648 2.267 1.352 3.906 3.253 5.267 5.462.575.925 1.412 1.764 2.302 2.398 2.406 1.695 4.813 3.407 6.748 5.616 1.57 1.781 3.418 2.963 5.685 3.768 1.535.53 2.895 1.524 4.325 2.312.959.53 1.831 1.301 2.86 1.592 2.528.702 4.725 2.004 6.958 3.27.488.275 1.081.446 1.639.514 1.081.137 2.18.155 3.278.223.576.034.924-.12.924-.805 0-.41.227-.839.454-1.215.192-.343.506-.617.802-.96-.872-.136-1.622-.222-2.354-.393-5.232-1.182-10.062-3.288-14.666-5.925-5.458-3.134-10.463-6.867-15.101-11.097-3.907-3.562-7.516-7.397-10.341-11.833-1.535-2.465-2.843-5.068-4.238-7.551zm-5.528 6.61c-.54.497-1.029 1.01-1.587 1.439-.453.36-.488.668-.21 1.147 1.309 2.244 2.512 4.555 3.925 6.747 3.051 4.778 6.748 9.042 10.933 12.912 4.639 4.281 9.748 7.894 15.381 10.805 5.179 2.689 10.603 4.744 16.322 6.045.245.051.628.086.733-.034.436-.531.784-1.113 1.098-1.575-.994-.257-1.953-.292-2.668-.737a9.248 9.248 0 00-3.819-1.335c-1.848-.24-3.522-.857-4.97-2.055-.505-.429-1.238-.583-1.848-.908-1.413-.72-2.999-1.25-4.15-2.243-2.18-1.884-4.552-3.39-7.15-4.624-1.099-.53-2.197-1.233-3.052-2.089-2.895-2.877-5.702-5.84-8.527-8.785a153.018 153.018 0 01-3.627-3.904 17.637 17.637 0 01-1.378-1.85c-.453-.667-.802-1.387-1.256-2.037-1.534-2.158-3.557-4.024-3.993-6.799-.035-.034-.07-.051-.157-.12zm1.011 24.522c-.191-.273-.47-.582-.662-.924-.54-.96-1.238-1.49-2.442-1.062-.505.188-1.08.171-1.639.24-5.737.565-11.492.513-17.229 0-6.574-.6-12.974-1.918-18.99-4.71-1.012-.462-1.988-1.027-2.965-1.524-.14.96-.21 1.918-.436 2.843-.174.685.07 1.01.663 1.267.523.223 1.064.463 1.517.805.698.531 1.43.702 2.284.634 1.64-.12 3.21.154 4.552 1.113 1.97 1.404 4.15 1.747 6.522 1.507 1.761-.172 3.453.154 5.127.753 1.726.634 3.505.857 5.37.77 2.547-.102 5.093.104 7.656.155 1.674.034 3.383.274 4.988-.034 1.935-.326 3.749-1.165 5.684-1.833zm-43.7.48c-.47 1.524-.296 1.986.697 2.483 5.459 2.706 11.266 4.332 17.3 5.223 8.596 1.284 17.194 1.181 25.756-.274 2.092-.36 4.133-.942 6.295-1.439-.61-.633-1.029-1.13-1.535-1.558-.156-.12-.54-.137-.732-.034-2.25 1.164-4.639 1.541-7.167 1.421a23.964 23.964 0 00-3.994.137c-2.214.24-4.411.77-6.626.84-1.883.05-3.802-.378-5.685-.634-4.22-.566-8.44-1.096-12.643-1.798-1.604-.274-3.121-1.062-4.708-1.473-2.424-.668-5.005-.856-6.958-2.894zm45.113-24.282c.314.668.575 1.37.977 1.986 1.203 1.747 2.458 3.442 3.697 5.172.366.513.645 1.096 1.063 1.558a207.19 207.19 0 004.9 5.428c1.657 1.747 3.436 3.391 5.058 5.172 1.674 1.832 3.47 3.425 5.772 4.452 2.18.96 4.167 2.21 5.894 3.887 1.29 1.267 2.929 2.004 4.673 2.552a7.12 7.12 0 012.198 1.164c1.116.89 2.371 1.268 3.731 1.473 1.552.223 3.069.53 4.412 1.456.332.24.872.222 1.308.274.628.085 1.325-.035 1.866.205.663.291.924.034 1.343-.514-.593 0-1.064-.051-1.535 0-1.308.154-2.424-.29-3.557-.907-1.744-.925-3.575-1.747-5.354-2.603-1.447-.702-3.017-1.25-4.307-2.158a21.146 21.146 0 00-5.336-2.637c-1.43-.48-2.65-1.25-3.75-2.26-2.249-2.055-4.464-4.144-6.853-6.028-1.517-1.182-3.069-2.278-4.046-3.922-1.185-1.986-2.737-3.596-4.725-4.811-1.57-.96-2.65-2.346-3.157-4.059-.662-2.226-2.127-3.767-4.272-4.88zm1.552 27.056c-.593-1.096-1.36-1.49-2.494-1.182-.941.257-1.953.36-2.86.703-2.423.942-4.847 1.352-7.48 1.061-2.704-.308-5.459-.428-8.162-.308-2.232.103-4.342-.171-6.4-.925-1.534-.565-3.104-.787-4.708-.565-2.32.308-4.412-.171-6.4-1.387a10.093 10.093 0 00-3.104-1.216c-.994-.205-2.058-.051-3.104-.051.628.514 1.308.976 2.075 1.216 1.36.428 2.79.582 4.116 1.079 2.214.822 4.411 1.575 6.818 1.558.558 0 1.134.24 1.709.343 1.761.308 3.54.65 5.319.907 1.604.24 3.226.428 4.848.548 1.813.137 3.68.462 5.44.188 3.157-.48 6.26-1.147 9.504-.839 1.674.154 3.314-.308 4.883-1.13z"/><path d="M68.353 48.329c-1.012.144-1.888.306-2.781.36-7.754.61-15.49.395-23.126-1.295-4.029-.88-7.905-2.246-11.563-4.295-1.904-1.079-2.916-2.696-2.882-5.05.017-3.542 1.652-6.202 4.13-8.322 3.539-3.02 7.72-4.458 12.068-5.41 5.9-1.294 11.85-1.564 17.85-1.115 2.04.144 4.079.413 6.118.647.944.108 1.079.467.439 1.24-.658.81-1.45 1.492-2.074 2.337-.505.683-.944 1.474-1.196 2.3-1.113 3.541-1.046 7.118-.169 10.695.624 2.57 1.635 4.942 2.865 7.243.085.162.152.323.32.665z"/><path d="M81 51.971c-1.876.67-3.633 1.512-5.475 1.873-1.554.31-3.227.069-4.832.034-2.467-.051-4.951-.275-7.418-.154-1.825.086-3.532-.138-5.205-.773-1.605-.619-3.261-.945-4.968-.756-2.298.24-4.41-.103-6.32-1.512-1.3-.962-2.821-1.237-4.41-1.117-.81.052-1.537-.103-2.213-.635-.44-.344-.963-.585-1.47-.808-.575-.258-.794-.584-.642-1.271.22-.928.287-1.89.422-2.852.947.515 1.893 1.065 2.873 1.53 5.83 2.8 12.03 4.122 18.401 4.723 5.56.516 11.136.568 16.695 0 .523-.051 1.098-.051 1.588-.24 1.166-.447 1.842.086 2.366 1.065.169.326.422.618.608.893z"/></svg><svg viewBox="0 0 106.779 80.458" id="pricingTwo" xmlns="http://www.w3.org/2000/svg"><path d="M71.716 13.407l.004.013c.057.23.122.462.204.71.22.795.291 1.651.348 2.53.043.665.069 1.36.087 2.122a16.47 16.47 0 00-2.774-1.843 14.058 14.058 0 00-.777-3.907c-.28-.798-.604-1.59-.882-2.266-.105-.26-.248-.472-.36-.647a2.888 2.888 0 01-.112-.169c-.803-1.329-1.518-2.276-2.33-3.08a13.346 13.346 0 00-4-2.772 16.186 16.186 0 00-4.69-1.252c-.887-.101-1.783-.116-2.618-.122a19.222 19.222 0 00-1.502.057c-.202.017-.4.027-.597.037-.942.05-1.801.282-2.63.506-.216.06-.426.119-.631.17a12 12 0 00-2.662 1.043c-.432.236-.854.482-1.259.723l-.31.183c-.756.443-1.723 1.053-2.594 1.869a14.84 14.84 0 00-2.613 3.264c-1.04 1.739-1.817 3.662-2.356 5.88a22.16 22.16 0 00-.617 4.029c-.038.7-.062 1.402-.078 2.089-.127-.178-.255-.36-.388-.536a43.54 43.54 0 01-.527-.736c-.72-1.01-1.463-2.053-2.425-2.958-1.269-1.193-2.286-2.063-3.305-2.823a22.457 22.457 0 00-3.749-2.261c-.717-.348-1.482-.708-2.32-.913-.707-.171-1.41-.233-2.084-.29-.166-.018-.337-.029-.504-.047-1.041-.097-2.033.005-2.963.122-.682.08-1.325.253-1.946.413-.15.041-.3.083-.451.12a7.881 7.881 0 00-.75.233c-.152.055-.298.11-.442.15-.902.263-1.692.676-2.457 1.082l-.146.079a20.962 20.962 0 00-2.838 1.827A16.178 16.178 0 005.59 19.12c-.86 1.135-1.532 2.41-2.048 3.9-.32.92-.545 1.942-.698 3.202-.185 1.45-.12 2.893.196 4.396.043.227.088.459.13.699.107.62.22 1.258.457 1.901.297.813.645 1.598.98 2.362l.083.183c.122.275.25.529.382.77.08.145.151.286.223.427.627 1.281 1.444 2.406 2.24 3.434 1.495 1.936 3.28 3.803 5.611 5.866a71.664 71.664 0 006.83 5.346 202.224 202.224 0 005.64 3.764 155.102 155.102 0 005.358 3.263c1.895 1.102 4.134 2.392 6.395 3.6a368.163 368.163 0 005.975 3.09c.799.41 1.627.83 2.433 1.243.481.246.977.495 1.456.729l.013.002c.826.415 1.475.24 1.967-.521.524-.81 1.025-1.612 1.405-2.22.294-.475.588-.95.884-1.418a158.93 158.93 0 002.31-3.747c1.27-2.144 2.488-4.293 3.836-6.67a126.17 126.17 0 002.058-3.794c1.09-2.094 1.97-3.807 2.766-5.407a136.696 136.696 0 001.964-4.153c.473-1.04.913-2.083 1.36-3.148.539-1.29.972-2.357 1.357-3.34.152.222.304.443.449.66.33.489.653 1.004.965 1.497.13.209.264.416.392.619-.32.733-.642 1.48-.952 2.197-.617 1.428-1.253 2.905-1.915 4.332-.767 1.657-1.613 3.328-2.429 4.947l-.625 1.236c-1.683 3.354-3.532 6.6-5.116 9.333a284.471 284.471 0 01-4.066 6.747 312.23 312.23 0 01-2.953 4.641c-.415.644-.829 1.294-1.244 1.937-.073.11-.151.223-.222.339l-.358-.171a406.085 406.085 0 01-9.435-4.705 210.82 210.82 0 01-4.569-2.446 338.443 338.443 0 01-4.818-2.691 131.174 131.174 0 01-7.29-4.445c-.331-.217-.669-.433-.993-.645-.589-.377-1.201-.767-1.773-1.175a209.68 209.68 0 01-4.782-3.488 56.139 56.139 0 01-3.06-2.453 86.482 86.482 0 01-3.404-3.136 39.576 39.576 0 01-2.302-2.425c-.787-.902-1.616-1.883-2.284-2.94a35.078 35.078 0 00-.49-.765c-.306-.47-.623-.96-.912-1.44-.225-.37-.414-.768-.633-1.255-.18-.394-.354-.809-.523-1.207a81.076 81.076 0 00-.427-1.001c-.473-1.073-.734-2.244-.95-3.343a14.622 14.622 0 01-.143-.933l-.013-.119a64.133 64.133 0 01-.24-2.161c-.12-1.294.066-2.595.288-3.816a16.648 16.648 0 013.041-7.042A18.528 18.528 0 015.86 14.84c.845-.77 1.655-1.388 2.46-1.883.233-.142.457-.288.677-.426.356-.228.69-.443 1.03-.64.194-.113.412-.212.64-.321.234-.11.469-.22.716-.354.606-.33 1.273-.553 1.981-.795.148-.048.303-.098.45-.151.306-.105.602-.2.896-.282.306-.085.601-.16.89-.215a32.88 32.88 0 012.765-.44c.612-.074 1.258-.074 1.804-.064 1.16.018 2.2.128 3.16.331.597.124 1.144.28 1.633.46 2.334.865 4.57 2.15 6.658 3.823.374.301.753.595 1.141.9a1.255 1.255 0 00.409.214l.879.374.466-.832c.013-.022.028-.04.04-.063.063-.1.157-.249.225-.448.733-2.15 1.62-4.045 2.712-5.785a16.03 16.03 0 013.015-3.537c.608-.53 1.329-1.027 2.262-1.55.274-.154.55-.321.81-.477.41-.25.796-.486 1.194-.68.669-.334 1.563-.744 2.51-.982.358-.086.711-.185 1.053-.28.558-.155 1.08-.3 1.611-.41.66-.132 1.448-.273 2.236-.274.4-.001.803-.017 1.188-.027.57-.017 1.107-.037 1.648-.02.768.024 1.545.123 2.297.223a17.67 17.67 0 015.477 1.646A15.482 15.482 0 0167.1 5.012c.714.729 1.397 1.582 2.085 2.595.559.824.932 1.467 1.229 2.093.35.747.622 1.54.906 2.376l.059.164c.128.372.23.758.337 1.167zm-8.718 58.43a127.084 127.084 0 01-2.094-2.535c-.428-.537-.86-1.094-1.298-1.622-.29-.37-.586-.758-.885-1.139l1.069-1.753c.062-.101.123-.208.191-.31.314.408.628.817.934 1.221.628.817 1.278 1.667 1.929 2.497.778.988 1.59 1.954 2.379 2.887 1.05 1.241 2.122 2.495 3.158 3.714l.901 1.057c.116.135.23.265.341.388.095.109.182.214.275.316.536.624 1.232.714 1.906.256.13-.088.248-.178.366-.263l.215-.156c.388-.276.77-.55 1.16-.825.799-.564 1.624-1.148 2.437-1.735.495-.356.985-.73 1.454-1.087.224-.172.449-.337.672-.509.283-.214.574-.423.857-.637.61-.454 1.235-.924 1.854-1.392a80.275 80.275 0 001.77-1.394l.185-.148c.912-.737 1.859-1.49 2.778-2.248.657-.544 1.42-1.168 2.156-1.817l.1-.086a200.69 200.69 0 003.866-3.446c1.08-.996 2.143-2.026 3.175-3.028l.388-.372c.533-.522 1.088-1.056 1.591-1.64a43.563 43.563 0 001.84-2.303 43.701 43.701 0 003.357-5.184c.994-1.816 1.693-3.53 2.126-5.249.246-.995.371-2.1.379-3.487.012-1.304-.206-2.622-.663-4.034-.325-1.005-.815-1.976-1.501-2.957-.897-1.297-2.085-2.409-3.533-3.32a16.984 16.984 0 00-5.238-2.201 16.319 16.319 0 00-3.67-.397 7.14 7.14 0 00-1.282.125c-.332.06-.67.103-1.024.15l-.027.003c-.771.1-1.567.203-2.364.527-.586.24-1.186.523-1.774.848-.515.284-.998.612-1.486.948-.885.606-1.705 1.35-2.504 2.261-1.174 1.332-2.06 2.602-2.715 3.873-.374.722-.71 1.466-1.04 2.183-.107-.48-.216-.964-.337-1.446l-.052-.21c-.231-.948-.473-1.93-.974-2.873-.189-.353-.355-.72-.534-1.107-.224-.48-.45-.97-.727-1.453-.767-1.34-1.58-2.472-2.497-3.473-.722-.785-1.534-1.59-2.588-2.153a14.784 14.784 0 00-5.708-1.71c-1.271-.11-2.394-.081-3.42.082l-.328.053c-1.152.179-2.34.367-3.487.912-.216.105-.441.2-.677.304-.266.113-.538.227-.81.36-1.043.503-1.993 1.199-2.905 2.123-1.365 1.384-2.355 2.96-2.946 4.69a16.084 16.084 0 00-.791 3.795 18.742 18.742 0 00-.006 3.068c.062.897.178 1.663.352 2.355.343 1.4.73 2.741 1.138 4 .21.637.482 1.244.747 1.827l.255.567c.3.683.576 1.282.849 1.844.18.368.372.734.56 1.087.072.141.15.28.221.422l.135.252c.18.343.362.698.55 1.045-.497.77-.946 1.455-1.357 2.09-.1-.171-.193-.345-.291-.51l-.23-.407c-.064-.117-.137-.239-.202-.356-.174-.3-.35-.611-.514-.92a90.02 90.02 0 01-.584-1.145l-.074-.153c-.074-.147-.154-.299-.23-.452a23.26 23.26 0 01-.589-1.214c-.175-.396-.342-.813-.505-1.212-.16-.387-.324-.792-.499-1.188-.745-1.706-1.214-3.508-1.602-5.203-.155-.672-.213-1.37-.284-2.111l-.006-.07a29.07 29.07 0 01-.124-2.374c0-.605.038-1.253.118-1.92.207-1.693.562-3.158 1.097-4.485a15.143 15.143 0 012.777-4.437c.797-.898 1.659-1.653 2.568-2.241 1.131-.74 2.187-1.265 3.231-1.62a24.31 24.31 0 013.34-.884 15.952 15.952 0 011.54-.171c.178-.011.362-.024.545-.042.29-.023.608-.04.995-.045 2.387-.033 4.677.419 6.796 1.35 1.293.56 2.321 1.099 3.168 1.868a23.544 23.544 0 012.001 2.084c.512.611 1.028 1.305 1.669 2.26.242.358.45.758.676 1.178.095.18.19.359.293.543.02.046.046.116.094.2.242.428.561.668.962.717.402.05.77-.111 1.11-.47.148-.163.303-.329.447-.485.225-.256.449-.498.675-.729.986-1.008 1.866-1.768 2.774-2.381a16.199 16.199 0 012.767-1.524c1.317-.56 2.742-.756 4.083-.904l.393-.05c.317-.044.617-.082.9-.084.75-.002 1.522-.011 2.253.063 1.237.126 2.337.341 3.362.662a20.827 20.827 0 015.133 2.43c1.324.855 2.452 1.868 3.35 3.01.433.556.805 1.174 1.193 1.826l.074.127c.568.95.999 2.035 1.285 3.224.256 1.062.399 2.04.451 2.992a17.061 17.061 0 01-.435 4.752c-.316 1.35-.844 2.772-1.658 4.467-1.371 2.849-3.192 5.43-4.631 7.362-.908 1.219-1.997 2.436-3.53 3.938a133.056 133.056 0 01-5.666 5.267 191.423 191.423 0 01-3.835 3.257c-1.186.987-2.494 2.04-3.998 3.231-.614.487-1.26.97-1.88 1.438-.266.203-.529.398-.795.601-.262.195-.519.389-.779.59-.623.476-1.269.965-1.908 1.433-.732.525-1.482 1.056-2.206 1.567l-1.08.764c-.312.222-.63.452-.942.674-.479.346-.981.698-1.472 1.047-.47.33-.968.675-1.522 1.055-.3-.335-.601-.677-.901-1.012a369.337 369.337 0 01-2.822-3.202 162.77 162.77 0 01-2.394-2.844c-.25-.298-.503-.6-.755-.904l-.551-.659z" fill-rule="evenodd"/></svg><svg viewBox="0 0 81 81" id="search" xmlns="http://www.w3.org/2000/svg"><defs><clipPath id="ta"><path fill-opacity="0" d="M0 0h81v81H0z"/></clipPath></defs><g clip-path="url(#ta)" stroke-width="2" stroke-linejoin="round"><path d="M33.75 64.125c-16.776 0-30.375-13.6-30.375-30.375 0-16.776 13.6-30.375 30.375-30.375 16.776 0 30.375 13.6 30.375 30.375 0 16.776-13.6 30.375-30.375 30.375zM77.625 77.625L55.35 55.35"/></g></svg><svg viewBox="0 0 33.008 22.004" id="select" xmlns="http://www.w3.org/2000/svg"><path d="M32.004 1.004l-15.5 20-15.5-20"/></svg></svg>